<mxfile host="drawio-plugin" modified="2022-11-16T03:22:24.677Z" agent="5.0 (Windows NT 6.2; Win64; x64) AppleWebKit/537.36 (KHTML, like Gecko) Chrome/98.0.4758.102 Safari/537.36" etag="ShVJZJWt3cEJcm8EGkfS" version="15.5.4" type="embed" pages="5"><diagram id="hvb5-evO5CEhQdUVUnic" name="USEcase "><mxGraphModel dx="1227" dy="5560" grid="1" gridSize="10" guides="1" tooltips="1" connect="1" arrows="1" fold="1" page="1" pageScale="1" pageWidth="3300" pageHeight="4681" math="0" shadow="0"><root><mxCell id="0"/><mxCell id="1" parent="0"/><mxCell id="cM7lnOa8xKsac278n9ST-1" value="" style="whiteSpace=wrap;html=1;aspect=fixed;" parent="1" vertex="1"><mxGeometry x="530" y="-10" width="1010" height="1010" as="geometry"/></mxCell><mxCell id="SN7ESuGg-9dV5CbwiE7h-20" value="상품DB" style="shape=umlFrame;whiteSpace=wrap;html=1;" parent="1" vertex="1"><mxGeometry x="650" y="30" width="540" height="200" as="geometry"/></mxCell><mxCell id="SN7ESuGg-9dV5CbwiE7h-22" value="회원DB" style="shape=umlFrame;whiteSpace=wrap;html=1;" parent="1" vertex="1"><mxGeometry x="610" y="450" width="870" height="270" as="geometry"/></mxCell><mxCell id="Kv26vEHC08VBiixHVHI5-12" style="rounded=0;orthogonalLoop=1;jettySize=auto;html=1;edgeStyle=orthogonalEdgeStyle;" parent="1" source="Kv26vEHC08VBiixHVHI5-2" target="Kv26vEHC08VBiixHVHI5-6" edge="1"><mxGeometry relative="1" as="geometry"><Array as="points"><mxPoint x="1085" y="210"/><mxPoint x="1085" y="210"/></Array></mxGeometry></mxCell><mxCell id="Kv26vEHC08VBiixHVHI5-13" style="edgeStyle=orthogonalEdgeStyle;rounded=0;orthogonalLoop=1;jettySize=auto;html=1;" parent="1" source="Kv26vEHC08VBiixHVHI5-2" target="Kv26vEHC08VBiixHVHI5-7" edge="1"><mxGeometry relative="1" as="geometry"><Array as="points"><mxPoint x="790" y="405"/></Array><mxPoint x="887.1071665146746" y="565.0526315789475" as="targetPoint"/></mxGeometry></mxCell><mxCell id="Kv26vEHC08VBiixHVHI5-2" value="직원" style="shape=umlActor;verticalLabelPosition=bottom;verticalAlign=top;html=1;" parent="1" vertex="1"><mxGeometry x="1070" y="300" width="30" height="60" as="geometry"/></mxCell><mxCell id="Kv26vEHC08VBiixHVHI5-14" style="edgeStyle=orthogonalEdgeStyle;rounded=0;orthogonalLoop=1;jettySize=auto;html=1;" parent="1" source="Kv26vEHC08VBiixHVHI5-3" target="Kv26vEHC08VBiixHVHI5-8" edge="1"><mxGeometry relative="1" as="geometry"><Array as="points"><mxPoint x="825" y="210"/><mxPoint x="825" y="210"/></Array></mxGeometry></mxCell><mxCell id="Kv26vEHC08VBiixHVHI5-15" style="edgeStyle=orthogonalEdgeStyle;rounded=0;orthogonalLoop=1;jettySize=auto;html=1;" parent="1" source="Kv26vEHC08VBiixHVHI5-3" target="Kv26vEHC08VBiixHVHI5-7" edge="1"><mxGeometry relative="1" as="geometry"><Array as="points"><mxPoint x="825" y="390"/><mxPoint x="780" y="390"/></Array></mxGeometry></mxCell><mxCell id="Kv26vEHC08VBiixHVHI5-3" value="고객" style="shape=umlActor;verticalLabelPosition=bottom;verticalAlign=top;html=1;" parent="1" vertex="1"><mxGeometry x="810" y="290" width="30" height="60" as="geometry"/></mxCell><mxCell id="JjDydGUEUOhYbfb6GzUT-12" value="&amp;lt;&amp;lt;Include&amp;gt;&amp;gt;" style="edgeStyle=orthogonalEdgeStyle;rounded=0;orthogonalLoop=1;jettySize=auto;html=1;dashed=1;" parent="1" source="Kv26vEHC08VBiixHVHI5-6" target="Kv26vEHC08VBiixHVHI5-9" edge="1"><mxGeometry relative="1" as="geometry"/></mxCell><mxCell id="Kv26vEHC08VBiixHVHI5-6" value="상품관리" style="ellipse;whiteSpace=wrap;html=1;" parent="1" vertex="1"><mxGeometry x="1055" y="130" width="60" height="60" as="geometry"/></mxCell><mxCell id="JjDydGUEUOhYbfb6GzUT-13" value="&amp;lt;&amp;lt;Include&amp;gt;&amp;gt;" style="edgeStyle=orthogonalEdgeStyle;rounded=0;orthogonalLoop=1;jettySize=auto;html=1;dashed=1;" parent="1" source="Kv26vEHC08VBiixHVHI5-7" target="Kv26vEHC08VBiixHVHI5-9" edge="1"><mxGeometry relative="1" as="geometry"><Array as="points"><mxPoint x="840" y="540"/><mxPoint x="840" y="480"/><mxPoint x="1240" y="480"/><mxPoint x="1240" y="565"/></Array></mxGeometry></mxCell><mxCell id="Kv26vEHC08VBiixHVHI5-7" value="회원&lt;br&gt;" style="ellipse;whiteSpace=wrap;html=1;" parent="1" vertex="1"><mxGeometry x="750" y="510" width="60" height="60" as="geometry"/></mxCell><mxCell id="Kv26vEHC08VBiixHVHI5-8" value="상품조회" style="ellipse;whiteSpace=wrap;html=1;" parent="1" vertex="1"><mxGeometry x="795" y="130" width="60" height="60" as="geometry"/></mxCell><mxCell id="Kv26vEHC08VBiixHVHI5-9" value="인증" style="ellipse;whiteSpace=wrap;html=1;" parent="1" vertex="1"><mxGeometry x="1270" y="530" width="80" height="70" as="geometry"/></mxCell><mxCell id="JjDydGUEUOhYbfb6GzUT-10" value="&amp;lt;&amp;lt;Extends&amp;gt;&amp;gt;" style="edgeStyle=orthogonalEdgeStyle;rounded=0;orthogonalLoop=1;jettySize=auto;html=1;entryX=1;entryY=0.5;entryDx=0;entryDy=0;dashed=1;" parent="1" source="Kv26vEHC08VBiixHVHI5-10" target="Kv26vEHC08VBiixHVHI5-67" edge="1"><mxGeometry relative="1" as="geometry"/></mxCell><mxCell id="Kv26vEHC08VBiixHVHI5-10" value="결제" style="ellipse;whiteSpace=wrap;html=1;" parent="1" vertex="1"><mxGeometry x="1050" y="500" width="60" height="60" as="geometry"/></mxCell><mxCell id="Kv26vEHC08VBiixHVHI5-11" value="장바구니 담기" style="ellipse;whiteSpace=wrap;html=1;rotation=0;" parent="1" vertex="1"><mxGeometry x="680" y="130" width="60" height="60" as="geometry"/></mxCell><mxCell id="Kv26vEHC08VBiixHVHI5-30" style="edgeStyle=orthogonalEdgeStyle;rounded=0;orthogonalLoop=1;jettySize=auto;html=1;" parent="1" source="Kv26vEHC08VBiixHVHI5-28" target="Kv26vEHC08VBiixHVHI5-8" edge="1"><mxGeometry relative="1" as="geometry"><Array as="points"><mxPoint x="785" y="110"/><mxPoint x="825" y="110"/></Array></mxGeometry></mxCell><mxCell id="Kv26vEHC08VBiixHVHI5-28" value="전체" style="ellipse;whiteSpace=wrap;html=1;" parent="1" vertex="1"><mxGeometry x="765" y="50" width="40" height="40" as="geometry"/></mxCell><mxCell id="Kv26vEHC08VBiixHVHI5-31" style="edgeStyle=orthogonalEdgeStyle;rounded=0;orthogonalLoop=1;jettySize=auto;html=1;" parent="1" source="Kv26vEHC08VBiixHVHI5-29" target="Kv26vEHC08VBiixHVHI5-8" edge="1"><mxGeometry relative="1" as="geometry"><Array as="points"><mxPoint x="865" y="110"/><mxPoint x="825" y="110"/></Array></mxGeometry></mxCell><mxCell id="Kv26vEHC08VBiixHVHI5-29" value="검색" style="ellipse;whiteSpace=wrap;html=1;" parent="1" vertex="1"><mxGeometry x="820" y="50" width="40" height="40" as="geometry"/></mxCell><mxCell id="Kv26vEHC08VBiixHVHI5-35" style="edgeStyle=orthogonalEdgeStyle;rounded=0;orthogonalLoop=1;jettySize=auto;html=1;" parent="1" source="Kv26vEHC08VBiixHVHI5-32" target="Kv26vEHC08VBiixHVHI5-6" edge="1"><mxGeometry relative="1" as="geometry"/></mxCell><mxCell id="Kv26vEHC08VBiixHVHI5-32" value="추가" style="ellipse;whiteSpace=wrap;html=1;" parent="1" vertex="1"><mxGeometry x="1125" y="60" width="40" height="40" as="geometry"/></mxCell><mxCell id="Kv26vEHC08VBiixHVHI5-34" style="edgeStyle=orthogonalEdgeStyle;rounded=0;orthogonalLoop=1;jettySize=auto;html=1;" parent="1" source="Kv26vEHC08VBiixHVHI5-33" target="Kv26vEHC08VBiixHVHI5-6" edge="1"><mxGeometry relative="1" as="geometry"><Array as="points"><mxPoint x="1085" y="80"/></Array></mxGeometry></mxCell><mxCell id="Kv26vEHC08VBiixHVHI5-33" value="수정" style="ellipse;whiteSpace=wrap;html=1;" parent="1" vertex="1"><mxGeometry x="1005" y="60" width="40" height="40" as="geometry"/></mxCell><mxCell id="Kv26vEHC08VBiixHVHI5-37" style="edgeStyle=orthogonalEdgeStyle;rounded=0;orthogonalLoop=1;jettySize=auto;html=1;" parent="1" source="Kv26vEHC08VBiixHVHI5-36" target="Kv26vEHC08VBiixHVHI5-7" edge="1"><mxGeometry relative="1" as="geometry"/></mxCell><mxCell id="Kv26vEHC08VBiixHVHI5-36" value="가입" style="ellipse;whiteSpace=wrap;html=1;" parent="1" vertex="1"><mxGeometry x="730" y="630" width="40" height="40" as="geometry"/></mxCell><mxCell id="Kv26vEHC08VBiixHVHI5-39" style="edgeStyle=orthogonalEdgeStyle;rounded=0;orthogonalLoop=1;jettySize=auto;html=1;" parent="1" source="Kv26vEHC08VBiixHVHI5-38" target="Kv26vEHC08VBiixHVHI5-7" edge="1"><mxGeometry relative="1" as="geometry"/></mxCell><mxCell id="Kv26vEHC08VBiixHVHI5-38" value="수정" style="ellipse;whiteSpace=wrap;html=1;" parent="1" vertex="1"><mxGeometry x="780" y="630" width="40" height="40" as="geometry"/></mxCell><mxCell id="Kv26vEHC08VBiixHVHI5-41" style="edgeStyle=orthogonalEdgeStyle;rounded=0;orthogonalLoop=1;jettySize=auto;html=1;" parent="1" source="Kv26vEHC08VBiixHVHI5-40" target="Kv26vEHC08VBiixHVHI5-7" edge="1"><mxGeometry relative="1" as="geometry"><Array as="points"><mxPoint x="850" y="600"/><mxPoint x="780" y="600"/></Array></mxGeometry></mxCell><mxCell id="Kv26vEHC08VBiixHVHI5-40" value="조회" style="ellipse;whiteSpace=wrap;html=1;" parent="1" vertex="1"><mxGeometry x="830" y="630" width="40" height="40" as="geometry"/></mxCell><mxCell id="gFiut0iDrLe7WYOQsWxN-4" style="edgeStyle=orthogonalEdgeStyle;rounded=0;orthogonalLoop=1;jettySize=auto;html=1;" parent="1" source="Kv26vEHC08VBiixHVHI5-45" target="Kv26vEHC08VBiixHVHI5-7" edge="1"><mxGeometry relative="1" as="geometry"><Array as="points"><mxPoint x="700" y="600"/><mxPoint x="780" y="600"/></Array></mxGeometry></mxCell><mxCell id="Kv26vEHC08VBiixHVHI5-45" value="삭제" style="ellipse;whiteSpace=wrap;html=1;" parent="1" vertex="1"><mxGeometry x="680" y="630" width="40" height="40" as="geometry"/></mxCell><mxCell id="JjDydGUEUOhYbfb6GzUT-4" style="edgeStyle=orthogonalEdgeStyle;rounded=0;orthogonalLoop=1;jettySize=auto;html=1;" parent="1" source="Kv26vEHC08VBiixHVHI5-55" target="Kv26vEHC08VBiixHVHI5-9" edge="1"><mxGeometry relative="1" as="geometry"><Array as="points"><mxPoint x="1355" y="570"/><mxPoint x="1355" y="570"/></Array></mxGeometry></mxCell><mxCell id="Kv26vEHC08VBiixHVHI5-55" value="PASS" style="ellipse;whiteSpace=wrap;html=1;" parent="1" vertex="1"><mxGeometry x="1415" y="550" width="40" height="40" as="geometry"/></mxCell><mxCell id="JjDydGUEUOhYbfb6GzUT-7" style="edgeStyle=orthogonalEdgeStyle;rounded=0;orthogonalLoop=1;jettySize=auto;html=1;" parent="1" source="Kv26vEHC08VBiixHVHI5-56" target="Kv26vEHC08VBiixHVHI5-9" edge="1"><mxGeometry relative="1" as="geometry"><Array as="points"><mxPoint x="1375" y="630"/><mxPoint x="1375" y="570"/></Array></mxGeometry></mxCell><mxCell id="Kv26vEHC08VBiixHVHI5-56" value="모바일" style="ellipse;whiteSpace=wrap;html=1;direction=south;" parent="1" vertex="1"><mxGeometry x="1415" y="610" width="40" height="40" as="geometry"/></mxCell><mxCell id="JjDydGUEUOhYbfb6GzUT-3" style="edgeStyle=orthogonalEdgeStyle;rounded=0;orthogonalLoop=1;jettySize=auto;html=1;" parent="1" source="Kv26vEHC08VBiixHVHI5-59" target="Kv26vEHC08VBiixHVHI5-9" edge="1"><mxGeometry relative="1" as="geometry"><Array as="points"><mxPoint x="1375" y="510"/><mxPoint x="1375" y="570"/></Array></mxGeometry></mxCell><mxCell id="Kv26vEHC08VBiixHVHI5-59" value="아이핀" style="ellipse;whiteSpace=wrap;html=1;" parent="1" vertex="1"><mxGeometry x="1415" y="490" width="40" height="40" as="geometry"/></mxCell><mxCell id="GONQGHevEgolc_Vj92QQ-3" style="edgeStyle=orthogonalEdgeStyle;rounded=0;orthogonalLoop=1;jettySize=auto;html=1;startArrow=none;startFill=0;endArrow=classic;endFill=1;" parent="1" source="Kv26vEHC08VBiixHVHI5-63" target="Kv26vEHC08VBiixHVHI5-10" edge="1"><mxGeometry relative="1" as="geometry"><Array as="points"><mxPoint x="1110" y="580"/><mxPoint x="1140" y="580"/><mxPoint x="1140" y="530"/></Array><mxPoint x="1129.9999684939976" y="529.9965217391305" as="targetPoint"/></mxGeometry></mxCell><mxCell id="Kv26vEHC08VBiixHVHI5-63" value="무통장" style="ellipse;whiteSpace=wrap;html=1;" parent="1" vertex="1"><mxGeometry x="1090" y="620.04" width="40" height="40" as="geometry"/></mxCell><mxCell id="UOlsy7yWXwOPzBkwPQhx-1" value="" style="edgeStyle=orthogonalEdgeStyle;rounded=0;orthogonalLoop=1;jettySize=auto;html=1;" parent="1" source="Kv26vEHC08VBiixHVHI5-67" target="tokyzkb4w2ci1-rdvXX9-3" edge="1"><mxGeometry relative="1" as="geometry"><Array as="points"/></mxGeometry></mxCell><mxCell id="Kv26vEHC08VBiixHVHI5-67" value="조회" style="ellipse;whiteSpace=wrap;html=1;" parent="1" vertex="1"><mxGeometry x="950" y="630" width="40" height="40" as="geometry"/></mxCell><mxCell id="tokyzkb4w2ci1-rdvXX9-2" value="extends" style="html=1;verticalAlign=bottom;endArrow=open;dashed=1;endSize=8;rounded=0;edgeStyle=orthogonalEdgeStyle;" parent="1" source="Kv26vEHC08VBiixHVHI5-11" target="Kv26vEHC08VBiixHVHI5-8" edge="1"><mxGeometry x="-0.0162" y="1" relative="1" as="geometry"><mxPoint x="775" y="170" as="sourcePoint"/><mxPoint x="1315.0000000000173" y="170" as="targetPoint"/><mxPoint as="offset"/></mxGeometry></mxCell><mxCell id="tokyzkb4w2ci1-rdvXX9-3" value="장바구니&lt;br&gt;관리" style="ellipse;whiteSpace=wrap;html=1;" parent="1" vertex="1"><mxGeometry x="915" y="510" width="60" height="60" as="geometry"/></mxCell><mxCell id="tokyzkb4w2ci1-rdvXX9-9" value="카드사" style="shape=umlActor;verticalLabelPosition=bottom;verticalAlign=top;html=1;" parent="1" vertex="1"><mxGeometry x="1215" y="580.04" width="30" height="60" as="geometry"/></mxCell><mxCell id="tokyzkb4w2ci1-rdvXX9-15" style="edgeStyle=orthogonalEdgeStyle;rounded=0;orthogonalLoop=1;jettySize=auto;html=1;" parent="1" source="Kv26vEHC08VBiixHVHI5-3" target="tokyzkb4w2ci1-rdvXX9-3" edge="1"><mxGeometry relative="1" as="geometry"><mxPoint x="950" y="320" as="sourcePoint"/><mxPoint x="649.6757273574524" y="292.0663531547656" as="targetPoint"/><Array as="points"><mxPoint x="825" y="390"/><mxPoint x="945" y="390"/></Array></mxGeometry></mxCell><mxCell id="JjDydGUEUOhYbfb6GzUT-8" style="edgeStyle=orthogonalEdgeStyle;rounded=0;orthogonalLoop=1;jettySize=auto;html=1;" parent="1" source="UOlsy7yWXwOPzBkwPQhx-2" target="tokyzkb4w2ci1-rdvXX9-3" edge="1"><mxGeometry relative="1" as="geometry"/></mxCell><mxCell id="UOlsy7yWXwOPzBkwPQhx-2" value="삭제" style="ellipse;whiteSpace=wrap;html=1;" parent="1" vertex="1"><mxGeometry x="900" y="630" width="40" height="40" as="geometry"/></mxCell><mxCell id="Kv26vEHC08VBiixHVHI5-62" value="카드" style="ellipse;whiteSpace=wrap;html=1;" parent="1" vertex="1"><mxGeometry x="1150" y="620.04" width="40" height="40" as="geometry"/></mxCell><mxCell id="UOlsy7yWXwOPzBkwPQhx-5" value="" style="edgeStyle=orthogonalEdgeStyle;rounded=0;orthogonalLoop=1;jettySize=auto;html=1;endArrow=none;startArrow=open;startFill=0;" parent="1" source="Kv26vEHC08VBiixHVHI5-10" target="Kv26vEHC08VBiixHVHI5-62" edge="1"><mxGeometry relative="1" as="geometry"><mxPoint x="1129.9999684939976" y="529.9965217391305" as="sourcePoint"/><mxPoint x="1000" y="580.04" as="targetPoint"/><Array as="points"><mxPoint x="1140" y="530"/><mxPoint x="1140" y="580"/><mxPoint x="1170" y="580"/></Array></mxGeometry></mxCell><mxCell id="UOlsy7yWXwOPzBkwPQhx-6" style="edgeStyle=orthogonalEdgeStyle;rounded=0;orthogonalLoop=1;jettySize=auto;html=1;" parent="1" source="Kv26vEHC08VBiixHVHI5-62" target="tokyzkb4w2ci1-rdvXX9-9" edge="1"><mxGeometry relative="1" as="geometry"><mxPoint x="1003" y="665" as="sourcePoint"/><mxPoint x="1067" y="717" as="targetPoint"/><Array as="points"><mxPoint x="1180" y="640"/><mxPoint x="1180" y="610"/></Array></mxGeometry></mxCell></root></mxGraphModel></diagram><diagram id="bULfts8UCHqkT_8KDw2p" name="Class"><mxGraphModel dx="1718" dy="5911" grid="1" gridSize="10" guides="1" tooltips="1" connect="1" arrows="1" fold="1" page="1" pageScale="1" pageWidth="3300" pageHeight="4681" math="0" shadow="0"><root><mxCell id="0"/><mxCell id="1" parent="0"/><mxCell id="kpzuKjSK_2eZPfflm1Hq-1" value="" style="rounded=0;whiteSpace=wrap;html=1;" vertex="1" parent="1"><mxGeometry x="480" y="-110" width="660" height="470" as="geometry"/></mxCell><mxCell id="kpzuKjSK_2eZPfflm1Hq-2" value="" style="rounded=0;whiteSpace=wrap;html=1;" vertex="1" parent="1"><mxGeometry x="430" y="590" width="1080" height="510" as="geometry"/></mxCell><mxCell id="kpzuKjSK_2eZPfflm1Hq-3" value="상품목록: 상품 조회" style="shape=table;startSize=30;container=1;collapsible=1;childLayout=tableLayout;fixedRows=1;rowLines=0;fontStyle=1;align=center;resizeLast=1;" vertex="1" parent="1"><mxGeometry x="610" y="20" width="180" height="150" as="geometry"/></mxCell><mxCell id="kpzuKjSK_2eZPfflm1Hq-4" value="" style="shape=tableRow;horizontal=0;startSize=0;swimlaneHead=0;swimlaneBody=0;fillColor=none;collapsible=0;dropTarget=0;points=[[0,0.5],[1,0.5]];portConstraint=eastwest;top=0;left=0;right=0;bottom=1;" vertex="1" parent="kpzuKjSK_2eZPfflm1Hq-3"><mxGeometry y="30" width="180" height="30" as="geometry"/></mxCell><mxCell id="kpzuKjSK_2eZPfflm1Hq-5" value="PK" style="shape=partialRectangle;connectable=0;fillColor=none;top=0;left=0;bottom=0;right=0;fontStyle=1;overflow=hidden;" vertex="1" parent="kpzuKjSK_2eZPfflm1Hq-4"><mxGeometry width="30" height="30" as="geometry"><mxRectangle width="30" height="30" as="alternateBounds"/></mxGeometry></mxCell><mxCell id="kpzuKjSK_2eZPfflm1Hq-6" value="외래키 : 상품코드" style="shape=partialRectangle;connectable=0;fillColor=none;top=0;left=0;bottom=0;right=0;align=left;spacingLeft=6;fontStyle=5;overflow=hidden;" vertex="1" parent="kpzuKjSK_2eZPfflm1Hq-4"><mxGeometry x="30" width="150" height="30" as="geometry"><mxRectangle width="150" height="30" as="alternateBounds"/></mxGeometry></mxCell><mxCell id="kpzuKjSK_2eZPfflm1Hq-7" value="" style="shape=tableRow;horizontal=0;startSize=0;swimlaneHead=0;swimlaneBody=0;fillColor=none;collapsible=0;dropTarget=0;points=[[0,0.5],[1,0.5]];portConstraint=eastwest;top=0;left=0;right=0;bottom=0;" vertex="1" parent="kpzuKjSK_2eZPfflm1Hq-3"><mxGeometry y="60" width="180" height="30" as="geometry"/></mxCell><mxCell id="kpzuKjSK_2eZPfflm1Hq-8" value="" style="shape=partialRectangle;connectable=0;fillColor=none;top=0;left=0;bottom=0;right=0;editable=1;overflow=hidden;" vertex="1" parent="kpzuKjSK_2eZPfflm1Hq-7"><mxGeometry width="30" height="30" as="geometry"><mxRectangle width="30" height="30" as="alternateBounds"/></mxGeometry></mxCell><mxCell id="kpzuKjSK_2eZPfflm1Hq-9" value="상품이름 : String : 외" style="shape=partialRectangle;connectable=0;fillColor=none;top=0;left=0;bottom=0;right=0;align=left;spacingLeft=6;overflow=hidden;" vertex="1" parent="kpzuKjSK_2eZPfflm1Hq-7"><mxGeometry x="30" width="150" height="30" as="geometry"><mxRectangle width="150" height="30" as="alternateBounds"/></mxGeometry></mxCell><mxCell id="kpzuKjSK_2eZPfflm1Hq-10" value="" style="shape=tableRow;horizontal=0;startSize=0;swimlaneHead=0;swimlaneBody=0;fillColor=none;collapsible=0;dropTarget=0;points=[[0,0.5],[1,0.5]];portConstraint=eastwest;top=0;left=0;right=0;bottom=0;" vertex="1" parent="kpzuKjSK_2eZPfflm1Hq-3"><mxGeometry y="90" width="180" height="30" as="geometry"/></mxCell><mxCell id="kpzuKjSK_2eZPfflm1Hq-11" value="" style="shape=partialRectangle;connectable=0;fillColor=none;top=0;left=0;bottom=0;right=0;editable=1;overflow=hidden;" vertex="1" parent="kpzuKjSK_2eZPfflm1Hq-10"><mxGeometry width="30" height="30" as="geometry"><mxRectangle width="30" height="30" as="alternateBounds"/></mxGeometry></mxCell><mxCell id="kpzuKjSK_2eZPfflm1Hq-12" value="상품 수량 : int : 외" style="shape=partialRectangle;connectable=0;fillColor=none;top=0;left=0;bottom=0;right=0;align=left;spacingLeft=6;overflow=hidden;" vertex="1" parent="kpzuKjSK_2eZPfflm1Hq-10"><mxGeometry x="30" width="150" height="30" as="geometry"><mxRectangle width="150" height="30" as="alternateBounds"/></mxGeometry></mxCell><mxCell id="kpzuKjSK_2eZPfflm1Hq-13" value="" style="shape=tableRow;horizontal=0;startSize=0;swimlaneHead=0;swimlaneBody=0;fillColor=none;collapsible=0;dropTarget=0;points=[[0,0.5],[1,0.5]];portConstraint=eastwest;top=0;left=0;right=0;bottom=0;" vertex="1" parent="kpzuKjSK_2eZPfflm1Hq-3"><mxGeometry y="120" width="180" height="30" as="geometry"/></mxCell><mxCell id="kpzuKjSK_2eZPfflm1Hq-14" value="" style="shape=partialRectangle;connectable=0;fillColor=none;top=0;left=0;bottom=0;right=0;editable=1;overflow=hidden;" vertex="1" parent="kpzuKjSK_2eZPfflm1Hq-13"><mxGeometry width="30" height="30" as="geometry"><mxRectangle width="30" height="30" as="alternateBounds"/></mxGeometry></mxCell><mxCell id="kpzuKjSK_2eZPfflm1Hq-15" value="상품 가격 : int 외" style="shape=partialRectangle;connectable=0;fillColor=none;top=0;left=0;bottom=0;right=0;align=left;spacingLeft=6;overflow=hidden;" vertex="1" parent="kpzuKjSK_2eZPfflm1Hq-13"><mxGeometry x="30" width="150" height="30" as="geometry"><mxRectangle width="150" height="30" as="alternateBounds"/></mxGeometry></mxCell><mxCell id="kpzuKjSK_2eZPfflm1Hq-16" value="상품 관리" style="shape=table;startSize=30;container=1;collapsible=1;childLayout=tableLayout;fixedRows=1;rowLines=0;fontStyle=1;align=center;resizeLast=1;" vertex="1" parent="1"><mxGeometry x="840" y="20" width="180" height="180" as="geometry"/></mxCell><mxCell id="kpzuKjSK_2eZPfflm1Hq-17" value="" style="shape=tableRow;horizontal=0;startSize=0;swimlaneHead=0;swimlaneBody=0;fillColor=none;collapsible=0;dropTarget=0;points=[[0,0.5],[1,0.5]];portConstraint=eastwest;top=0;left=0;right=0;bottom=1;" vertex="1" parent="kpzuKjSK_2eZPfflm1Hq-16"><mxGeometry y="30" width="180" height="30" as="geometry"/></mxCell><mxCell id="kpzuKjSK_2eZPfflm1Hq-18" value="PK" style="shape=partialRectangle;connectable=0;fillColor=none;top=0;left=0;bottom=0;right=0;fontStyle=1;overflow=hidden;" vertex="1" parent="kpzuKjSK_2eZPfflm1Hq-17"><mxGeometry width="30" height="30" as="geometry"><mxRectangle width="30" height="30" as="alternateBounds"/></mxGeometry></mxCell><mxCell id="kpzuKjSK_2eZPfflm1Hq-19" value="상품코드 " style="shape=partialRectangle;connectable=0;fillColor=none;top=0;left=0;bottom=0;right=0;align=left;spacingLeft=6;fontStyle=5;overflow=hidden;" vertex="1" parent="kpzuKjSK_2eZPfflm1Hq-17"><mxGeometry x="30" width="150" height="30" as="geometry"><mxRectangle width="150" height="30" as="alternateBounds"/></mxGeometry></mxCell><mxCell id="kpzuKjSK_2eZPfflm1Hq-20" value="" style="shape=tableRow;horizontal=0;startSize=0;swimlaneHead=0;swimlaneBody=0;fillColor=none;collapsible=0;dropTarget=0;points=[[0,0.5],[1,0.5]];portConstraint=eastwest;top=0;left=0;right=0;bottom=0;" vertex="1" parent="kpzuKjSK_2eZPfflm1Hq-16"><mxGeometry y="60" width="180" height="30" as="geometry"/></mxCell><mxCell id="kpzuKjSK_2eZPfflm1Hq-21" value="" style="shape=partialRectangle;connectable=0;fillColor=none;top=0;left=0;bottom=0;right=0;editable=1;overflow=hidden;" vertex="1" parent="kpzuKjSK_2eZPfflm1Hq-20"><mxGeometry width="30" height="30" as="geometry"><mxRectangle width="30" height="30" as="alternateBounds"/></mxGeometry></mxCell><mxCell id="kpzuKjSK_2eZPfflm1Hq-22" value="상품 이름 : St" style="shape=partialRectangle;connectable=0;fillColor=none;top=0;left=0;bottom=0;right=0;align=left;spacingLeft=6;overflow=hidden;" vertex="1" parent="kpzuKjSK_2eZPfflm1Hq-20"><mxGeometry x="30" width="150" height="30" as="geometry"><mxRectangle width="150" height="30" as="alternateBounds"/></mxGeometry></mxCell><mxCell id="kpzuKjSK_2eZPfflm1Hq-23" value="" style="shape=tableRow;horizontal=0;startSize=0;swimlaneHead=0;swimlaneBody=0;fillColor=none;collapsible=0;dropTarget=0;points=[[0,0.5],[1,0.5]];portConstraint=eastwest;top=0;left=0;right=0;bottom=0;" vertex="1" parent="kpzuKjSK_2eZPfflm1Hq-16"><mxGeometry y="90" width="180" height="30" as="geometry"/></mxCell><mxCell id="kpzuKjSK_2eZPfflm1Hq-24" value="" style="shape=partialRectangle;connectable=0;fillColor=none;top=0;left=0;bottom=0;right=0;editable=1;overflow=hidden;" vertex="1" parent="kpzuKjSK_2eZPfflm1Hq-23"><mxGeometry width="30" height="30" as="geometry"><mxRectangle width="30" height="30" as="alternateBounds"/></mxGeometry></mxCell><mxCell id="kpzuKjSK_2eZPfflm1Hq-25" value="상품 수량 : int" style="shape=partialRectangle;connectable=0;fillColor=none;top=0;left=0;bottom=0;right=0;align=left;spacingLeft=6;overflow=hidden;" vertex="1" parent="kpzuKjSK_2eZPfflm1Hq-23"><mxGeometry x="30" width="150" height="30" as="geometry"><mxRectangle width="150" height="30" as="alternateBounds"/></mxGeometry></mxCell><mxCell id="kpzuKjSK_2eZPfflm1Hq-26" value="" style="shape=tableRow;horizontal=0;startSize=0;swimlaneHead=0;swimlaneBody=0;fillColor=none;collapsible=0;dropTarget=0;points=[[0,0.5],[1,0.5]];portConstraint=eastwest;top=0;left=0;right=0;bottom=0;" vertex="1" parent="kpzuKjSK_2eZPfflm1Hq-16"><mxGeometry y="120" width="180" height="30" as="geometry"/></mxCell><mxCell id="kpzuKjSK_2eZPfflm1Hq-27" value="" style="shape=partialRectangle;connectable=0;fillColor=none;top=0;left=0;bottom=0;right=0;editable=1;overflow=hidden;" vertex="1" parent="kpzuKjSK_2eZPfflm1Hq-26"><mxGeometry width="30" height="30" as="geometry"><mxRectangle width="30" height="30" as="alternateBounds"/></mxGeometry></mxCell><mxCell id="kpzuKjSK_2eZPfflm1Hq-28" value="상품 가격 : int" style="shape=partialRectangle;connectable=0;fillColor=none;top=0;left=0;bottom=0;right=0;align=left;spacingLeft=6;overflow=hidden;" vertex="1" parent="kpzuKjSK_2eZPfflm1Hq-26"><mxGeometry x="30" width="150" height="30" as="geometry"><mxRectangle width="150" height="30" as="alternateBounds"/></mxGeometry></mxCell><mxCell id="kpzuKjSK_2eZPfflm1Hq-29" value="" style="shape=tableRow;horizontal=0;startSize=0;swimlaneHead=0;swimlaneBody=0;fillColor=none;collapsible=0;dropTarget=0;points=[[0,0.5],[1,0.5]];portConstraint=eastwest;top=0;left=0;right=0;bottom=0;" vertex="1" parent="kpzuKjSK_2eZPfflm1Hq-16"><mxGeometry y="150" width="180" height="30" as="geometry"/></mxCell><mxCell id="kpzuKjSK_2eZPfflm1Hq-30" value="" style="shape=partialRectangle;connectable=0;fillColor=none;top=0;left=0;bottom=0;right=0;editable=1;overflow=hidden;" vertex="1" parent="kpzuKjSK_2eZPfflm1Hq-29"><mxGeometry width="30" height="30" as="geometry"><mxRectangle width="30" height="30" as="alternateBounds"/></mxGeometry></mxCell><mxCell id="kpzuKjSK_2eZPfflm1Hq-31" value="권한(관리자) : 외" style="shape=partialRectangle;connectable=0;fillColor=none;top=0;left=0;bottom=0;right=0;align=left;spacingLeft=6;overflow=hidden;" vertex="1" parent="kpzuKjSK_2eZPfflm1Hq-29"><mxGeometry x="30" width="150" height="30" as="geometry"><mxRectangle width="150" height="30" as="alternateBounds"/></mxGeometry></mxCell><mxCell id="kpzuKjSK_2eZPfflm1Hq-32" value="회원(직원)" style="shape=table;startSize=30;container=1;collapsible=1;childLayout=tableLayout;fixedRows=1;rowLines=0;fontStyle=1;align=center;resizeLast=1;" vertex="1" parent="1"><mxGeometry x="490" y="720" width="180" height="270" as="geometry"/></mxCell><mxCell id="kpzuKjSK_2eZPfflm1Hq-33" value="" style="shape=tableRow;horizontal=0;startSize=0;swimlaneHead=0;swimlaneBody=0;fillColor=none;collapsible=0;dropTarget=0;points=[[0,0.5],[1,0.5]];portConstraint=eastwest;top=0;left=0;right=0;bottom=1;" vertex="1" parent="kpzuKjSK_2eZPfflm1Hq-32"><mxGeometry y="30" width="180" height="30" as="geometry"/></mxCell><mxCell id="kpzuKjSK_2eZPfflm1Hq-34" value="PK" style="shape=partialRectangle;connectable=0;fillColor=none;top=0;left=0;bottom=0;right=0;fontStyle=1;overflow=hidden;" vertex="1" parent="kpzuKjSK_2eZPfflm1Hq-33"><mxGeometry width="30" height="30" as="geometry"><mxRectangle width="30" height="30" as="alternateBounds"/></mxGeometry></mxCell><mxCell id="kpzuKjSK_2eZPfflm1Hq-35" value="아이디(이메일) : St" style="shape=partialRectangle;connectable=0;fillColor=none;top=0;left=0;bottom=0;right=0;align=left;spacingLeft=6;fontStyle=5;overflow=hidden;" vertex="1" parent="kpzuKjSK_2eZPfflm1Hq-33"><mxGeometry x="30" width="150" height="30" as="geometry"><mxRectangle width="150" height="30" as="alternateBounds"/></mxGeometry></mxCell><mxCell id="kpzuKjSK_2eZPfflm1Hq-36" value="" style="shape=tableRow;horizontal=0;startSize=0;swimlaneHead=0;swimlaneBody=0;fillColor=none;collapsible=0;dropTarget=0;points=[[0,0.5],[1,0.5]];portConstraint=eastwest;top=0;left=0;right=0;bottom=0;" vertex="1" parent="kpzuKjSK_2eZPfflm1Hq-32"><mxGeometry y="60" width="180" height="30" as="geometry"/></mxCell><mxCell id="kpzuKjSK_2eZPfflm1Hq-37" value="" style="shape=partialRectangle;connectable=0;fillColor=none;top=0;left=0;bottom=0;right=0;editable=1;overflow=hidden;" vertex="1" parent="kpzuKjSK_2eZPfflm1Hq-36"><mxGeometry width="30" height="30" as="geometry"><mxRectangle width="30" height="30" as="alternateBounds"/></mxGeometry></mxCell><mxCell id="kpzuKjSK_2eZPfflm1Hq-38" value="비밀번호 : St" style="shape=partialRectangle;connectable=0;fillColor=none;top=0;left=0;bottom=0;right=0;align=left;spacingLeft=6;overflow=hidden;" vertex="1" parent="kpzuKjSK_2eZPfflm1Hq-36"><mxGeometry x="30" width="150" height="30" as="geometry"><mxRectangle width="150" height="30" as="alternateBounds"/></mxGeometry></mxCell><mxCell id="kpzuKjSK_2eZPfflm1Hq-39" value="" style="shape=tableRow;horizontal=0;startSize=0;swimlaneHead=0;swimlaneBody=0;fillColor=none;collapsible=0;dropTarget=0;points=[[0,0.5],[1,0.5]];portConstraint=eastwest;top=0;left=0;right=0;bottom=0;" vertex="1" parent="kpzuKjSK_2eZPfflm1Hq-32"><mxGeometry y="90" width="180" height="30" as="geometry"/></mxCell><mxCell id="kpzuKjSK_2eZPfflm1Hq-40" value="" style="shape=partialRectangle;connectable=0;fillColor=none;top=0;left=0;bottom=0;right=0;editable=1;overflow=hidden;" vertex="1" parent="kpzuKjSK_2eZPfflm1Hq-39"><mxGeometry width="30" height="30" as="geometry"><mxRectangle width="30" height="30" as="alternateBounds"/></mxGeometry></mxCell><mxCell id="kpzuKjSK_2eZPfflm1Hq-41" value="이름 : St" style="shape=partialRectangle;connectable=0;fillColor=none;top=0;left=0;bottom=0;right=0;align=left;spacingLeft=6;overflow=hidden;" vertex="1" parent="kpzuKjSK_2eZPfflm1Hq-39"><mxGeometry x="30" width="150" height="30" as="geometry"><mxRectangle width="150" height="30" as="alternateBounds"/></mxGeometry></mxCell><mxCell id="kpzuKjSK_2eZPfflm1Hq-42" value="" style="shape=tableRow;horizontal=0;startSize=0;swimlaneHead=0;swimlaneBody=0;fillColor=none;collapsible=0;dropTarget=0;points=[[0,0.5],[1,0.5]];portConstraint=eastwest;top=0;left=0;right=0;bottom=0;" vertex="1" parent="kpzuKjSK_2eZPfflm1Hq-32"><mxGeometry y="120" width="180" height="30" as="geometry"/></mxCell><mxCell id="kpzuKjSK_2eZPfflm1Hq-43" value="" style="shape=partialRectangle;connectable=0;fillColor=none;top=0;left=0;bottom=0;right=0;editable=1;overflow=hidden;" vertex="1" parent="kpzuKjSK_2eZPfflm1Hq-42"><mxGeometry width="30" height="30" as="geometry"><mxRectangle width="30" height="30" as="alternateBounds"/></mxGeometry></mxCell><mxCell id="kpzuKjSK_2eZPfflm1Hq-44" value="주소 : St" style="shape=partialRectangle;connectable=0;fillColor=none;top=0;left=0;bottom=0;right=0;align=left;spacingLeft=6;overflow=hidden;" vertex="1" parent="kpzuKjSK_2eZPfflm1Hq-42"><mxGeometry x="30" width="150" height="30" as="geometry"><mxRectangle width="150" height="30" as="alternateBounds"/></mxGeometry></mxCell><mxCell id="kpzuKjSK_2eZPfflm1Hq-45" value="" style="shape=tableRow;horizontal=0;startSize=0;swimlaneHead=0;swimlaneBody=0;fillColor=none;collapsible=0;dropTarget=0;points=[[0,0.5],[1,0.5]];portConstraint=eastwest;top=0;left=0;right=0;bottom=0;" vertex="1" parent="kpzuKjSK_2eZPfflm1Hq-32"><mxGeometry y="150" width="180" height="30" as="geometry"/></mxCell><mxCell id="kpzuKjSK_2eZPfflm1Hq-46" value="" style="shape=partialRectangle;connectable=0;fillColor=none;top=0;left=0;bottom=0;right=0;editable=1;overflow=hidden;" vertex="1" parent="kpzuKjSK_2eZPfflm1Hq-45"><mxGeometry width="30" height="30" as="geometry"><mxRectangle width="30" height="30" as="alternateBounds"/></mxGeometry></mxCell><mxCell id="kpzuKjSK_2eZPfflm1Hq-47" value="연락처 : St" style="shape=partialRectangle;connectable=0;fillColor=none;top=0;left=0;bottom=0;right=0;align=left;spacingLeft=6;overflow=hidden;" vertex="1" parent="kpzuKjSK_2eZPfflm1Hq-45"><mxGeometry x="30" width="150" height="30" as="geometry"><mxRectangle width="150" height="30" as="alternateBounds"/></mxGeometry></mxCell><mxCell id="kpzuKjSK_2eZPfflm1Hq-48" value="" style="shape=tableRow;horizontal=0;startSize=0;swimlaneHead=0;swimlaneBody=0;fillColor=none;collapsible=0;dropTarget=0;points=[[0,0.5],[1,0.5]];portConstraint=eastwest;top=0;left=0;right=0;bottom=0;" vertex="1" parent="kpzuKjSK_2eZPfflm1Hq-32"><mxGeometry y="180" width="180" height="30" as="geometry"/></mxCell><mxCell id="kpzuKjSK_2eZPfflm1Hq-49" value="" style="shape=partialRectangle;connectable=0;fillColor=none;top=0;left=0;bottom=0;right=0;editable=1;overflow=hidden;" vertex="1" parent="kpzuKjSK_2eZPfflm1Hq-48"><mxGeometry width="30" height="30" as="geometry"><mxRectangle width="30" height="30" as="alternateBounds"/></mxGeometry></mxCell><mxCell id="kpzuKjSK_2eZPfflm1Hq-50" value="가입 날짜 : Date" style="shape=partialRectangle;connectable=0;fillColor=none;top=0;left=0;bottom=0;right=0;align=left;spacingLeft=6;overflow=hidden;" vertex="1" parent="kpzuKjSK_2eZPfflm1Hq-48"><mxGeometry x="30" width="150" height="30" as="geometry"><mxRectangle width="150" height="30" as="alternateBounds"/></mxGeometry></mxCell><mxCell id="kpzuKjSK_2eZPfflm1Hq-51" value="" style="shape=tableRow;horizontal=0;startSize=0;swimlaneHead=0;swimlaneBody=0;fillColor=none;collapsible=0;dropTarget=0;points=[[0,0.5],[1,0.5]];portConstraint=eastwest;top=0;left=0;right=0;bottom=0;" vertex="1" parent="kpzuKjSK_2eZPfflm1Hq-32"><mxGeometry y="210" width="180" height="30" as="geometry"/></mxCell><mxCell id="kpzuKjSK_2eZPfflm1Hq-52" value="" style="shape=partialRectangle;connectable=0;fillColor=none;top=0;left=0;bottom=0;right=0;editable=1;overflow=hidden;" vertex="1" parent="kpzuKjSK_2eZPfflm1Hq-51"><mxGeometry width="30" height="30" as="geometry"><mxRectangle width="30" height="30" as="alternateBounds"/></mxGeometry></mxCell><mxCell id="kpzuKjSK_2eZPfflm1Hq-53" value="인증확인 : int ,boolean" style="shape=partialRectangle;connectable=0;fillColor=none;top=0;left=0;bottom=0;right=0;align=left;spacingLeft=6;overflow=hidden;" vertex="1" parent="kpzuKjSK_2eZPfflm1Hq-51"><mxGeometry x="30" width="150" height="30" as="geometry"><mxRectangle width="150" height="30" as="alternateBounds"/></mxGeometry></mxCell><mxCell id="kpzuKjSK_2eZPfflm1Hq-54" value="" style="shape=tableRow;horizontal=0;startSize=0;swimlaneHead=0;swimlaneBody=0;fillColor=none;collapsible=0;dropTarget=0;points=[[0,0.5],[1,0.5]];portConstraint=eastwest;top=0;left=0;right=0;bottom=0;" vertex="1" parent="kpzuKjSK_2eZPfflm1Hq-32"><mxGeometry y="240" width="180" height="30" as="geometry"/></mxCell><mxCell id="kpzuKjSK_2eZPfflm1Hq-55" value="" style="shape=partialRectangle;connectable=0;fillColor=none;top=0;left=0;bottom=0;right=0;editable=1;overflow=hidden;" vertex="1" parent="kpzuKjSK_2eZPfflm1Hq-54"><mxGeometry width="30" height="30" as="geometry"><mxRectangle width="30" height="30" as="alternateBounds"/></mxGeometry></mxCell><mxCell id="kpzuKjSK_2eZPfflm1Hq-56" value="권한 : boolean,int" style="shape=partialRectangle;connectable=0;fillColor=none;top=0;left=0;bottom=0;right=0;align=left;spacingLeft=6;overflow=hidden;" vertex="1" parent="kpzuKjSK_2eZPfflm1Hq-54"><mxGeometry x="30" width="150" height="30" as="geometry"><mxRectangle width="150" height="30" as="alternateBounds"/></mxGeometry></mxCell><mxCell id="kpzuKjSK_2eZPfflm1Hq-57" value="인증" style="shape=table;startSize=30;container=1;collapsible=1;childLayout=tableLayout;fixedRows=1;rowLines=0;fontStyle=1;align=center;resizeLast=1;" vertex="1" parent="1"><mxGeometry x="790" y="720" width="180" height="210" as="geometry"/></mxCell><mxCell id="kpzuKjSK_2eZPfflm1Hq-58" value="" style="shape=tableRow;horizontal=0;startSize=0;swimlaneHead=0;swimlaneBody=0;fillColor=none;collapsible=0;dropTarget=0;points=[[0,0.5],[1,0.5]];portConstraint=eastwest;top=0;left=0;right=0;bottom=1;" vertex="1" parent="kpzuKjSK_2eZPfflm1Hq-57"><mxGeometry y="30" width="180" height="30" as="geometry"/></mxCell><mxCell id="kpzuKjSK_2eZPfflm1Hq-59" value="PK" style="shape=partialRectangle;connectable=0;fillColor=none;top=0;left=0;bottom=0;right=0;fontStyle=1;overflow=hidden;" vertex="1" parent="kpzuKjSK_2eZPfflm1Hq-58"><mxGeometry width="30" height="30" as="geometry"><mxRectangle width="30" height="30" as="alternateBounds"/></mxGeometry></mxCell><mxCell id="kpzuKjSK_2eZPfflm1Hq-60" value="Index : int  : auto" style="shape=partialRectangle;connectable=0;fillColor=none;top=0;left=0;bottom=0;right=0;align=left;spacingLeft=6;fontStyle=5;overflow=hidden;" vertex="1" parent="kpzuKjSK_2eZPfflm1Hq-58"><mxGeometry x="30" width="150" height="30" as="geometry"><mxRectangle width="150" height="30" as="alternateBounds"/></mxGeometry></mxCell><mxCell id="kpzuKjSK_2eZPfflm1Hq-61" value="" style="shape=tableRow;horizontal=0;startSize=0;swimlaneHead=0;swimlaneBody=0;fillColor=none;collapsible=0;dropTarget=0;points=[[0,0.5],[1,0.5]];portConstraint=eastwest;top=0;left=0;right=0;bottom=0;" vertex="1" parent="kpzuKjSK_2eZPfflm1Hq-57"><mxGeometry y="60" width="180" height="30" as="geometry"/></mxCell><mxCell id="kpzuKjSK_2eZPfflm1Hq-62" value="" style="shape=partialRectangle;connectable=0;fillColor=none;top=0;left=0;bottom=0;right=0;editable=1;overflow=hidden;" vertex="1" parent="kpzuKjSK_2eZPfflm1Hq-61"><mxGeometry width="30" height="30" as="geometry"><mxRectangle width="30" height="30" as="alternateBounds"/></mxGeometry></mxCell><mxCell id="kpzuKjSK_2eZPfflm1Hq-63" value="이메일 : 외" style="shape=partialRectangle;connectable=0;fillColor=none;top=0;left=0;bottom=0;right=0;align=left;spacingLeft=6;overflow=hidden;" vertex="1" parent="kpzuKjSK_2eZPfflm1Hq-61"><mxGeometry x="30" width="150" height="30" as="geometry"><mxRectangle width="150" height="30" as="alternateBounds"/></mxGeometry></mxCell><mxCell id="kpzuKjSK_2eZPfflm1Hq-64" value="" style="shape=tableRow;horizontal=0;startSize=0;swimlaneHead=0;swimlaneBody=0;fillColor=none;collapsible=0;dropTarget=0;points=[[0,0.5],[1,0.5]];portConstraint=eastwest;top=0;left=0;right=0;bottom=0;" vertex="1" parent="kpzuKjSK_2eZPfflm1Hq-57"><mxGeometry y="90" width="180" height="30" as="geometry"/></mxCell><mxCell id="kpzuKjSK_2eZPfflm1Hq-65" value="" style="shape=partialRectangle;connectable=0;fillColor=none;top=0;left=0;bottom=0;right=0;editable=1;overflow=hidden;" vertex="1" parent="kpzuKjSK_2eZPfflm1Hq-64"><mxGeometry width="30" height="30" as="geometry"><mxRectangle width="30" height="30" as="alternateBounds"/></mxGeometry></mxCell><mxCell id="kpzuKjSK_2eZPfflm1Hq-66" value="Salt : 인증번호" style="shape=partialRectangle;connectable=0;fillColor=none;top=0;left=0;bottom=0;right=0;align=left;spacingLeft=6;overflow=hidden;" vertex="1" parent="kpzuKjSK_2eZPfflm1Hq-64"><mxGeometry x="30" width="150" height="30" as="geometry"><mxRectangle width="150" height="30" as="alternateBounds"/></mxGeometry></mxCell><mxCell id="kpzuKjSK_2eZPfflm1Hq-67" value="" style="shape=tableRow;horizontal=0;startSize=0;swimlaneHead=0;swimlaneBody=0;fillColor=none;collapsible=0;dropTarget=0;points=[[0,0.5],[1,0.5]];portConstraint=eastwest;top=0;left=0;right=0;bottom=0;" vertex="1" parent="kpzuKjSK_2eZPfflm1Hq-57"><mxGeometry y="120" width="180" height="30" as="geometry"/></mxCell><mxCell id="kpzuKjSK_2eZPfflm1Hq-68" value="" style="shape=partialRectangle;connectable=0;fillColor=none;top=0;left=0;bottom=0;right=0;editable=1;overflow=hidden;" vertex="1" parent="kpzuKjSK_2eZPfflm1Hq-67"><mxGeometry width="30" height="30" as="geometry"><mxRectangle width="30" height="30" as="alternateBounds"/></mxGeometry></mxCell><mxCell id="kpzuKjSK_2eZPfflm1Hq-69" value="인증 만들어진시간; Date" style="shape=partialRectangle;connectable=0;fillColor=none;top=0;left=0;bottom=0;right=0;align=left;spacingLeft=6;overflow=hidden;" vertex="1" parent="kpzuKjSK_2eZPfflm1Hq-67"><mxGeometry x="30" width="150" height="30" as="geometry"><mxRectangle width="150" height="30" as="alternateBounds"/></mxGeometry></mxCell><mxCell id="kpzuKjSK_2eZPfflm1Hq-70" value="" style="shape=tableRow;horizontal=0;startSize=0;swimlaneHead=0;swimlaneBody=0;fillColor=none;collapsible=0;dropTarget=0;points=[[0,0.5],[1,0.5]];portConstraint=eastwest;top=0;left=0;right=0;bottom=0;" vertex="1" parent="kpzuKjSK_2eZPfflm1Hq-57"><mxGeometry y="150" width="180" height="30" as="geometry"/></mxCell><mxCell id="kpzuKjSK_2eZPfflm1Hq-71" value="" style="shape=partialRectangle;connectable=0;fillColor=none;top=0;left=0;bottom=0;right=0;editable=1;overflow=hidden;" vertex="1" parent="kpzuKjSK_2eZPfflm1Hq-70"><mxGeometry width="30" height="30" as="geometry"><mxRectangle width="30" height="30" as="alternateBounds"/></mxGeometry></mxCell><mxCell id="kpzuKjSK_2eZPfflm1Hq-72" value="인증 만료 시간 : Date" style="shape=partialRectangle;connectable=0;fillColor=none;top=0;left=0;bottom=0;right=0;align=left;spacingLeft=6;overflow=hidden;" vertex="1" parent="kpzuKjSK_2eZPfflm1Hq-70"><mxGeometry x="30" width="150" height="30" as="geometry"><mxRectangle width="150" height="30" as="alternateBounds"/></mxGeometry></mxCell><mxCell id="kpzuKjSK_2eZPfflm1Hq-73" value="" style="shape=tableRow;horizontal=0;startSize=0;swimlaneHead=0;swimlaneBody=0;fillColor=none;collapsible=0;dropTarget=0;points=[[0,0.5],[1,0.5]];portConstraint=eastwest;top=0;left=0;right=0;bottom=0;" vertex="1" parent="kpzuKjSK_2eZPfflm1Hq-57"><mxGeometry y="180" width="180" height="30" as="geometry"/></mxCell><mxCell id="kpzuKjSK_2eZPfflm1Hq-74" value="" style="shape=partialRectangle;connectable=0;fillColor=none;top=0;left=0;bottom=0;right=0;editable=1;overflow=hidden;" vertex="1" parent="kpzuKjSK_2eZPfflm1Hq-73"><mxGeometry width="30" height="30" as="geometry"><mxRectangle width="30" height="30" as="alternateBounds"/></mxGeometry></mxCell><mxCell id="kpzuKjSK_2eZPfflm1Hq-75" value="인증확인 : boolean,int " style="shape=partialRectangle;connectable=0;fillColor=none;top=0;left=0;bottom=0;right=0;align=left;spacingLeft=6;overflow=hidden;" vertex="1" parent="kpzuKjSK_2eZPfflm1Hq-73"><mxGeometry x="30" width="150" height="30" as="geometry"><mxRectangle width="150" height="30" as="alternateBounds"/></mxGeometry></mxCell><mxCell id="kpzuKjSK_2eZPfflm1Hq-76" value="장바구니" style="shape=table;startSize=30;container=1;collapsible=1;childLayout=tableLayout;fixedRows=1;rowLines=0;fontStyle=1;align=center;resizeLast=1;" vertex="1" parent="1"><mxGeometry x="1060" y="720" width="180" height="180" as="geometry"/></mxCell><mxCell id="kpzuKjSK_2eZPfflm1Hq-77" value="" style="shape=tableRow;horizontal=0;startSize=0;swimlaneHead=0;swimlaneBody=0;fillColor=none;collapsible=0;dropTarget=0;points=[[0,0.5],[1,0.5]];portConstraint=eastwest;top=0;left=0;right=0;bottom=1;" vertex="1" parent="kpzuKjSK_2eZPfflm1Hq-76"><mxGeometry y="30" width="180" height="30" as="geometry"/></mxCell><mxCell id="kpzuKjSK_2eZPfflm1Hq-78" value="PK" style="shape=partialRectangle;connectable=0;fillColor=none;top=0;left=0;bottom=0;right=0;fontStyle=1;overflow=hidden;" vertex="1" parent="kpzuKjSK_2eZPfflm1Hq-77"><mxGeometry width="30" height="30" as="geometry"><mxRectangle width="30" height="30" as="alternateBounds"/></mxGeometry></mxCell><mxCell id="kpzuKjSK_2eZPfflm1Hq-79" value="index : int : auto" style="shape=partialRectangle;connectable=0;fillColor=none;top=0;left=0;bottom=0;right=0;align=left;spacingLeft=6;fontStyle=5;overflow=hidden;" vertex="1" parent="kpzuKjSK_2eZPfflm1Hq-77"><mxGeometry x="30" width="150" height="30" as="geometry"><mxRectangle width="150" height="30" as="alternateBounds"/></mxGeometry></mxCell><mxCell id="kpzuKjSK_2eZPfflm1Hq-80" value="" style="shape=tableRow;horizontal=0;startSize=0;swimlaneHead=0;swimlaneBody=0;fillColor=none;collapsible=0;dropTarget=0;points=[[0,0.5],[1,0.5]];portConstraint=eastwest;top=0;left=0;right=0;bottom=0;" vertex="1" parent="kpzuKjSK_2eZPfflm1Hq-76"><mxGeometry y="60" width="180" height="30" as="geometry"/></mxCell><mxCell id="kpzuKjSK_2eZPfflm1Hq-81" value="" style="shape=partialRectangle;connectable=0;fillColor=none;top=0;left=0;bottom=0;right=0;editable=1;overflow=hidden;" vertex="1" parent="kpzuKjSK_2eZPfflm1Hq-80"><mxGeometry width="30" height="30" as="geometry"><mxRectangle width="30" height="30" as="alternateBounds"/></mxGeometry></mxCell><mxCell id="kpzuKjSK_2eZPfflm1Hq-82" value="이메일 : 외" style="shape=partialRectangle;connectable=0;fillColor=none;top=0;left=0;bottom=0;right=0;align=left;spacingLeft=6;overflow=hidden;" vertex="1" parent="kpzuKjSK_2eZPfflm1Hq-80"><mxGeometry x="30" width="150" height="30" as="geometry"><mxRectangle width="150" height="30" as="alternateBounds"/></mxGeometry></mxCell><mxCell id="kpzuKjSK_2eZPfflm1Hq-83" value="" style="shape=tableRow;horizontal=0;startSize=0;swimlaneHead=0;swimlaneBody=0;fillColor=none;collapsible=0;dropTarget=0;points=[[0,0.5],[1,0.5]];portConstraint=eastwest;top=0;left=0;right=0;bottom=0;" vertex="1" parent="kpzuKjSK_2eZPfflm1Hq-76"><mxGeometry y="90" width="180" height="30" as="geometry"/></mxCell><mxCell id="kpzuKjSK_2eZPfflm1Hq-84" value="" style="shape=partialRectangle;connectable=0;fillColor=none;top=0;left=0;bottom=0;right=0;editable=1;overflow=hidden;" vertex="1" parent="kpzuKjSK_2eZPfflm1Hq-83"><mxGeometry width="30" height="30" as="geometry"><mxRectangle width="30" height="30" as="alternateBounds"/></mxGeometry></mxCell><mxCell id="kpzuKjSK_2eZPfflm1Hq-85" value="상품이름 : 외" style="shape=partialRectangle;connectable=0;fillColor=none;top=0;left=0;bottom=0;right=0;align=left;spacingLeft=6;overflow=hidden;" vertex="1" parent="kpzuKjSK_2eZPfflm1Hq-83"><mxGeometry x="30" width="150" height="30" as="geometry"><mxRectangle width="150" height="30" as="alternateBounds"/></mxGeometry></mxCell><mxCell id="kpzuKjSK_2eZPfflm1Hq-86" value="" style="shape=tableRow;horizontal=0;startSize=0;swimlaneHead=0;swimlaneBody=0;fillColor=none;collapsible=0;dropTarget=0;points=[[0,0.5],[1,0.5]];portConstraint=eastwest;top=0;left=0;right=0;bottom=0;" vertex="1" parent="kpzuKjSK_2eZPfflm1Hq-76"><mxGeometry y="120" width="180" height="30" as="geometry"/></mxCell><mxCell id="kpzuKjSK_2eZPfflm1Hq-87" value="" style="shape=partialRectangle;connectable=0;fillColor=none;top=0;left=0;bottom=0;right=0;editable=1;overflow=hidden;" vertex="1" parent="kpzuKjSK_2eZPfflm1Hq-86"><mxGeometry width="30" height="30" as="geometry"><mxRectangle width="30" height="30" as="alternateBounds"/></mxGeometry></mxCell><mxCell id="kpzuKjSK_2eZPfflm1Hq-88" value="상품가격 : 외" style="shape=partialRectangle;connectable=0;fillColor=none;top=0;left=0;bottom=0;right=0;align=left;spacingLeft=6;overflow=hidden;" vertex="1" parent="kpzuKjSK_2eZPfflm1Hq-86"><mxGeometry x="30" width="150" height="30" as="geometry"><mxRectangle width="150" height="30" as="alternateBounds"/></mxGeometry></mxCell><mxCell id="kpzuKjSK_2eZPfflm1Hq-89" value="" style="shape=tableRow;horizontal=0;startSize=0;swimlaneHead=0;swimlaneBody=0;fillColor=none;collapsible=0;dropTarget=0;points=[[0,0.5],[1,0.5]];portConstraint=eastwest;top=0;left=0;right=0;bottom=0;" vertex="1" parent="kpzuKjSK_2eZPfflm1Hq-76"><mxGeometry y="150" width="180" height="30" as="geometry"/></mxCell><mxCell id="kpzuKjSK_2eZPfflm1Hq-90" value="" style="shape=partialRectangle;connectable=0;fillColor=none;top=0;left=0;bottom=0;right=0;editable=1;overflow=hidden;" vertex="1" parent="kpzuKjSK_2eZPfflm1Hq-89"><mxGeometry width="30" height="30" as="geometry"><mxRectangle width="30" height="30" as="alternateBounds"/></mxGeometry></mxCell><mxCell id="kpzuKjSK_2eZPfflm1Hq-91" value="상품 수량 : 넣은 수량 " style="shape=partialRectangle;connectable=0;fillColor=none;top=0;left=0;bottom=0;right=0;align=left;spacingLeft=6;overflow=hidden;" vertex="1" parent="kpzuKjSK_2eZPfflm1Hq-89"><mxGeometry x="30" width="150" height="30" as="geometry"><mxRectangle width="150" height="30" as="alternateBounds"/></mxGeometry></mxCell><mxCell id="kpzuKjSK_2eZPfflm1Hq-92" value="결제" style="shape=table;startSize=30;container=1;collapsible=1;childLayout=tableLayout;fixedRows=1;rowLines=0;fontStyle=1;align=center;resizeLast=1;" vertex="1" parent="1"><mxGeometry x="1300" y="720" width="180" height="270" as="geometry"/></mxCell><mxCell id="kpzuKjSK_2eZPfflm1Hq-93" value="" style="shape=tableRow;horizontal=0;startSize=0;swimlaneHead=0;swimlaneBody=0;fillColor=none;collapsible=0;dropTarget=0;points=[[0,0.5],[1,0.5]];portConstraint=eastwest;top=0;left=0;right=0;bottom=1;" vertex="1" parent="kpzuKjSK_2eZPfflm1Hq-92"><mxGeometry y="30" width="180" height="30" as="geometry"/></mxCell><mxCell id="kpzuKjSK_2eZPfflm1Hq-94" value="PK" style="shape=partialRectangle;connectable=0;fillColor=none;top=0;left=0;bottom=0;right=0;fontStyle=1;overflow=hidden;" vertex="1" parent="kpzuKjSK_2eZPfflm1Hq-93"><mxGeometry width="30" height="30" as="geometry"><mxRectangle width="30" height="30" as="alternateBounds"/></mxGeometry></mxCell><mxCell id="kpzuKjSK_2eZPfflm1Hq-95" value="index : int : auto" style="shape=partialRectangle;connectable=0;fillColor=none;top=0;left=0;bottom=0;right=0;align=left;spacingLeft=6;fontStyle=5;overflow=hidden;" vertex="1" parent="kpzuKjSK_2eZPfflm1Hq-93"><mxGeometry x="30" width="150" height="30" as="geometry"><mxRectangle width="150" height="30" as="alternateBounds"/></mxGeometry></mxCell><mxCell id="kpzuKjSK_2eZPfflm1Hq-96" value="" style="shape=tableRow;horizontal=0;startSize=0;swimlaneHead=0;swimlaneBody=0;fillColor=none;collapsible=0;dropTarget=0;points=[[0,0.5],[1,0.5]];portConstraint=eastwest;top=0;left=0;right=0;bottom=0;" vertex="1" parent="kpzuKjSK_2eZPfflm1Hq-92"><mxGeometry y="60" width="180" height="30" as="geometry"/></mxCell><mxCell id="kpzuKjSK_2eZPfflm1Hq-97" value="" style="shape=partialRectangle;connectable=0;fillColor=none;top=0;left=0;bottom=0;right=0;editable=1;overflow=hidden;" vertex="1" parent="kpzuKjSK_2eZPfflm1Hq-96"><mxGeometry width="30" height="30" as="geometry"><mxRectangle width="30" height="30" as="alternateBounds"/></mxGeometry></mxCell><mxCell id="kpzuKjSK_2eZPfflm1Hq-98" value="이메일 : 외" style="shape=partialRectangle;connectable=0;fillColor=none;top=0;left=0;bottom=0;right=0;align=left;spacingLeft=6;overflow=hidden;" vertex="1" parent="kpzuKjSK_2eZPfflm1Hq-96"><mxGeometry x="30" width="150" height="30" as="geometry"><mxRectangle width="150" height="30" as="alternateBounds"/></mxGeometry></mxCell><mxCell id="kpzuKjSK_2eZPfflm1Hq-99" value="" style="shape=tableRow;horizontal=0;startSize=0;swimlaneHead=0;swimlaneBody=0;fillColor=none;collapsible=0;dropTarget=0;points=[[0,0.5],[1,0.5]];portConstraint=eastwest;top=0;left=0;right=0;bottom=0;" vertex="1" parent="kpzuKjSK_2eZPfflm1Hq-92"><mxGeometry y="90" width="180" height="30" as="geometry"/></mxCell><mxCell id="kpzuKjSK_2eZPfflm1Hq-100" value="" style="shape=partialRectangle;connectable=0;fillColor=none;top=0;left=0;bottom=0;right=0;editable=1;overflow=hidden;" vertex="1" parent="kpzuKjSK_2eZPfflm1Hq-99"><mxGeometry width="30" height="30" as="geometry"><mxRectangle width="30" height="30" as="alternateBounds"/></mxGeometry></mxCell><mxCell id="kpzuKjSK_2eZPfflm1Hq-101" value="이름 : 외" style="shape=partialRectangle;connectable=0;fillColor=none;top=0;left=0;bottom=0;right=0;align=left;spacingLeft=6;overflow=hidden;" vertex="1" parent="kpzuKjSK_2eZPfflm1Hq-99"><mxGeometry x="30" width="150" height="30" as="geometry"><mxRectangle width="150" height="30" as="alternateBounds"/></mxGeometry></mxCell><mxCell id="kpzuKjSK_2eZPfflm1Hq-102" value="" style="shape=tableRow;horizontal=0;startSize=0;swimlaneHead=0;swimlaneBody=0;fillColor=none;collapsible=0;dropTarget=0;points=[[0,0.5],[1,0.5]];portConstraint=eastwest;top=0;left=0;right=0;bottom=0;" vertex="1" parent="kpzuKjSK_2eZPfflm1Hq-92"><mxGeometry y="120" width="180" height="30" as="geometry"/></mxCell><mxCell id="kpzuKjSK_2eZPfflm1Hq-103" value="" style="shape=partialRectangle;connectable=0;fillColor=none;top=0;left=0;bottom=0;right=0;editable=1;overflow=hidden;" vertex="1" parent="kpzuKjSK_2eZPfflm1Hq-102"><mxGeometry width="30" height="30" as="geometry"><mxRectangle width="30" height="30" as="alternateBounds"/></mxGeometry></mxCell><mxCell id="kpzuKjSK_2eZPfflm1Hq-104" value="주소 : St" style="shape=partialRectangle;connectable=0;fillColor=none;top=0;left=0;bottom=0;right=0;align=left;spacingLeft=6;overflow=hidden;" vertex="1" parent="kpzuKjSK_2eZPfflm1Hq-102"><mxGeometry x="30" width="150" height="30" as="geometry"><mxRectangle width="150" height="30" as="alternateBounds"/></mxGeometry></mxCell><mxCell id="kpzuKjSK_2eZPfflm1Hq-105" value="" style="shape=tableRow;horizontal=0;startSize=0;swimlaneHead=0;swimlaneBody=0;fillColor=none;collapsible=0;dropTarget=0;points=[[0,0.5],[1,0.5]];portConstraint=eastwest;top=0;left=0;right=0;bottom=0;" vertex="1" parent="kpzuKjSK_2eZPfflm1Hq-92"><mxGeometry y="150" width="180" height="30" as="geometry"/></mxCell><mxCell id="kpzuKjSK_2eZPfflm1Hq-106" value="" style="shape=partialRectangle;connectable=0;fillColor=none;top=0;left=0;bottom=0;right=0;editable=1;overflow=hidden;" vertex="1" parent="kpzuKjSK_2eZPfflm1Hq-105"><mxGeometry width="30" height="30" as="geometry"><mxRectangle width="30" height="30" as="alternateBounds"/></mxGeometry></mxCell><mxCell id="kpzuKjSK_2eZPfflm1Hq-107" value="연락처 : 외" style="shape=partialRectangle;connectable=0;fillColor=none;top=0;left=0;bottom=0;right=0;align=left;spacingLeft=6;overflow=hidden;" vertex="1" parent="kpzuKjSK_2eZPfflm1Hq-105"><mxGeometry x="30" width="150" height="30" as="geometry"><mxRectangle width="150" height="30" as="alternateBounds"/></mxGeometry></mxCell><mxCell id="kpzuKjSK_2eZPfflm1Hq-108" value="" style="shape=tableRow;horizontal=0;startSize=0;swimlaneHead=0;swimlaneBody=0;fillColor=none;collapsible=0;dropTarget=0;points=[[0,0.5],[1,0.5]];portConstraint=eastwest;top=0;left=0;right=0;bottom=0;" vertex="1" parent="kpzuKjSK_2eZPfflm1Hq-92"><mxGeometry y="180" width="180" height="30" as="geometry"/></mxCell><mxCell id="kpzuKjSK_2eZPfflm1Hq-109" value="" style="shape=partialRectangle;connectable=0;fillColor=none;top=0;left=0;bottom=0;right=0;editable=1;overflow=hidden;" vertex="1" parent="kpzuKjSK_2eZPfflm1Hq-108"><mxGeometry width="30" height="30" as="geometry"><mxRectangle width="30" height="30" as="alternateBounds"/></mxGeometry></mxCell><mxCell id="kpzuKjSK_2eZPfflm1Hq-110" value="인증 만들어진 시간 : Date" style="shape=partialRectangle;connectable=0;fillColor=none;top=0;left=0;bottom=0;right=0;align=left;spacingLeft=6;overflow=hidden;" vertex="1" parent="kpzuKjSK_2eZPfflm1Hq-108"><mxGeometry x="30" width="150" height="30" as="geometry"><mxRectangle width="150" height="30" as="alternateBounds"/></mxGeometry></mxCell><mxCell id="kpzuKjSK_2eZPfflm1Hq-111" value="" style="shape=tableRow;horizontal=0;startSize=0;swimlaneHead=0;swimlaneBody=0;fillColor=none;collapsible=0;dropTarget=0;points=[[0,0.5],[1,0.5]];portConstraint=eastwest;top=0;left=0;right=0;bottom=0;" vertex="1" parent="kpzuKjSK_2eZPfflm1Hq-92"><mxGeometry y="210" width="180" height="30" as="geometry"/></mxCell><mxCell id="kpzuKjSK_2eZPfflm1Hq-112" value="" style="shape=partialRectangle;connectable=0;fillColor=none;top=0;left=0;bottom=0;right=0;editable=1;overflow=hidden;" vertex="1" parent="kpzuKjSK_2eZPfflm1Hq-111"><mxGeometry width="30" height="30" as="geometry"><mxRectangle width="30" height="30" as="alternateBounds"/></mxGeometry></mxCell><mxCell id="kpzuKjSK_2eZPfflm1Hq-113" value="인증 만료 : Date" style="shape=partialRectangle;connectable=0;fillColor=none;top=0;left=0;bottom=0;right=0;align=left;spacingLeft=6;overflow=hidden;" vertex="1" parent="kpzuKjSK_2eZPfflm1Hq-111"><mxGeometry x="30" width="150" height="30" as="geometry"><mxRectangle width="150" height="30" as="alternateBounds"/></mxGeometry></mxCell><mxCell id="kpzuKjSK_2eZPfflm1Hq-114" value="" style="shape=tableRow;horizontal=0;startSize=0;swimlaneHead=0;swimlaneBody=0;fillColor=none;collapsible=0;dropTarget=0;points=[[0,0.5],[1,0.5]];portConstraint=eastwest;top=0;left=0;right=0;bottom=0;" vertex="1" parent="kpzuKjSK_2eZPfflm1Hq-92"><mxGeometry y="240" width="180" height="30" as="geometry"/></mxCell><mxCell id="kpzuKjSK_2eZPfflm1Hq-115" value="" style="shape=partialRectangle;connectable=0;fillColor=none;top=0;left=0;bottom=0;right=0;editable=1;overflow=hidden;" vertex="1" parent="kpzuKjSK_2eZPfflm1Hq-114"><mxGeometry width="30" height="30" as="geometry"><mxRectangle width="30" height="30" as="alternateBounds"/></mxGeometry></mxCell><mxCell id="kpzuKjSK_2eZPfflm1Hq-116" value="인증확인 : boolean,int" style="shape=partialRectangle;connectable=0;fillColor=none;top=0;left=0;bottom=0;right=0;align=left;spacingLeft=6;overflow=hidden;" vertex="1" parent="kpzuKjSK_2eZPfflm1Hq-114"><mxGeometry x="30" width="150" height="30" as="geometry"><mxRectangle width="150" height="30" as="alternateBounds"/></mxGeometry></mxCell><mxCell id="kpzuKjSK_2eZPfflm1Hq-117" value="USER DB" style="rounded=0;whiteSpace=wrap;html=1;" vertex="1" parent="1"><mxGeometry x="880" y="620" width="120" height="60" as="geometry"/></mxCell><mxCell id="kpzuKjSK_2eZPfflm1Hq-118" value="상품 DB" style="rounded=0;whiteSpace=wrap;html=1;" vertex="1" parent="1"><mxGeometry x="760" y="-80" width="120" height="60" as="geometry"/></mxCell></root></mxGraphModel></diagram><diagram id="Lfs-iDrzNEPbWop_GKH7" name="시퀀스"><mxGraphModel dx="1011" dy="724" grid="1" gridSize="10" guides="1" tooltips="1" connect="1" arrows="1" fold="1" page="1" pageScale="1" pageWidth="827" pageHeight="1169" math="0" shadow="0"><root><mxCell id="0"/><mxCell id="1" parent="0"/><mxCell id="FUvMvxJM56J5M-4C7xyJ-1" value="" style="shape=umlLifeline;participant=umlActor;perimeter=lifelinePerimeter;whiteSpace=wrap;html=1;container=1;collapsible=0;recursiveResize=0;verticalAlign=top;spacingTop=36;outlineConnect=0;" parent="1" vertex="1"><mxGeometry x="285" y="290" width="20" height="530" as="geometry"/></mxCell><mxCell id="FUvMvxJM56J5M-4C7xyJ-2" value="회원" style="text;html=1;align=center;verticalAlign=middle;resizable=0;points=[];autosize=1;strokeColor=none;fillColor=none;" parent="1" vertex="1"><mxGeometry x="270" y="260" width="50" height="30" as="geometry"/></mxCell><mxCell id="FUvMvxJM56J5M-4C7xyJ-3" value="상품조회" style="shape=umlLifeline;perimeter=lifelinePerimeter;whiteSpace=wrap;html=1;container=1;collapsible=0;recursiveResize=0;outlineConnect=0;" parent="1" vertex="1"><mxGeometry x="535" y="290" width="100" height="530" as="geometry"/></mxCell><mxCell id="FUvMvxJM56J5M-4C7xyJ-4" value="" style="html=1;points=[];perimeter=orthogonalPerimeter;" parent="FUvMvxJM56J5M-4C7xyJ-3" vertex="1"><mxGeometry x="46" y="68" width="7.17" height="41" as="geometry"/></mxCell><mxCell id="FUvMvxJM56J5M-4C7xyJ-5" value="상품조회 결과 반환" style="html=1;verticalAlign=bottom;endArrow=open;dashed=1;endSize=8;rounded=0;" parent="FUvMvxJM56J5M-4C7xyJ-3" target="FUvMvxJM56J5M-4C7xyJ-1" edge="1"><mxGeometry relative="1" as="geometry"><mxPoint x="40" y="109" as="sourcePoint"/><mxPoint x="-40" y="109" as="targetPoint"/></mxGeometry></mxCell><mxCell id="FUvMvxJM56J5M-4C7xyJ-6" value="" style="html=1;points=[];perimeter=orthogonalPerimeter;" parent="FUvMvxJM56J5M-4C7xyJ-3" vertex="1"><mxGeometry x="45" y="264" width="10" height="46" as="geometry"/></mxCell><mxCell id="FUvMvxJM56J5M-4C7xyJ-7" value="장바구니 요청" style="html=1;verticalAlign=bottom;endArrow=block;rounded=0;" parent="FUvMvxJM56J5M-4C7xyJ-3" edge="1"><mxGeometry width="80" relative="1" as="geometry"><mxPoint x="-240.07142857142856" y="204" as="sourcePoint"/><mxPoint x="202.08000000000004" y="204" as="targetPoint"/></mxGeometry></mxCell><mxCell id="FUvMvxJM56J5M-4C7xyJ-8" value="" style="html=1;points=[];perimeter=orthogonalPerimeter;" parent="FUvMvxJM56J5M-4C7xyJ-3" vertex="1"><mxGeometry x="45" y="320" width="10" height="40" as="geometry"/></mxCell><mxCell id="FUvMvxJM56J5M-4C7xyJ-9" value="결제 결과 반환" style="html=1;verticalAlign=bottom;endArrow=open;dashed=1;endSize=8;rounded=0;" parent="FUvMvxJM56J5M-4C7xyJ-3" edge="1"><mxGeometry relative="1" as="geometry"><mxPoint x="361" y="460" as="sourcePoint"/><mxPoint x="-239.18965517241372" y="460" as="targetPoint"/></mxGeometry></mxCell><mxCell id="FUvMvxJM56J5M-4C7xyJ-10" value="장바구니" style="shape=umlLifeline;perimeter=lifelinePerimeter;whiteSpace=wrap;html=1;container=1;collapsible=0;recursiveResize=0;outlineConnect=0;" parent="1" vertex="1"><mxGeometry x="695" y="290" width="100" height="530" as="geometry"/></mxCell><mxCell id="FUvMvxJM56J5M-4C7xyJ-11" value="" style="html=1;points=[];perimeter=orthogonalPerimeter;" parent="FUvMvxJM56J5M-4C7xyJ-10" vertex="1"><mxGeometry x="45" y="194" width="8.46" height="196" as="geometry"/></mxCell><mxCell id="FUvMvxJM56J5M-4C7xyJ-12" value="결제하기" style="shape=umlLifeline;perimeter=lifelinePerimeter;whiteSpace=wrap;html=1;container=1;collapsible=0;recursiveResize=0;outlineConnect=0;" parent="1" vertex="1"><mxGeometry x="855" y="290" width="100" height="530" as="geometry"/></mxCell><mxCell id="FUvMvxJM56J5M-4C7xyJ-13" value="" style="html=1;points=[];perimeter=orthogonalPerimeter;" parent="FUvMvxJM56J5M-4C7xyJ-12" vertex="1"><mxGeometry x="45.37" y="424" width="9.26" height="46" as="geometry"/></mxCell><mxCell id="FUvMvxJM56J5M-4C7xyJ-14" value="인증" style="shape=umlLifeline;perimeter=lifelinePerimeter;whiteSpace=wrap;html=1;container=1;collapsible=0;recursiveResize=0;outlineConnect=0;" parent="1" vertex="1"><mxGeometry x="375" y="290" width="100" height="530" as="geometry"/></mxCell><mxCell id="FUvMvxJM56J5M-4C7xyJ-15" value="" style="html=1;points=[];perimeter=orthogonalPerimeter;" parent="FUvMvxJM56J5M-4C7xyJ-14" vertex="1"><mxGeometry x="46" y="147" width="9.25" height="33" as="geometry"/></mxCell><mxCell id="FUvMvxJM56J5M-4C7xyJ-16" value="로그인 결과" style="html=1;verticalAlign=bottom;endArrow=open;dashed=1;endSize=8;rounded=0;" parent="FUvMvxJM56J5M-4C7xyJ-14" target="FUvMvxJM56J5M-4C7xyJ-1" edge="1"><mxGeometry relative="1" as="geometry"><mxPoint x="40" y="170" as="sourcePoint"/><mxPoint x="-40" y="170" as="targetPoint"/></mxGeometry></mxCell><mxCell id="FUvMvxJM56J5M-4C7xyJ-17" value="상품조회 요청" style="html=1;verticalAlign=bottom;endArrow=block;rounded=0;" parent="1" source="FUvMvxJM56J5M-4C7xyJ-1" edge="1"><mxGeometry width="80" relative="1" as="geometry"><mxPoint x="575" y="480" as="sourcePoint"/><mxPoint x="575" y="360" as="targetPoint"/><Array as="points"><mxPoint x="495" y="360"/></Array></mxGeometry></mxCell><mxCell id="FUvMvxJM56J5M-4C7xyJ-18" value="조회 / 등록 / 수정 / 삭제" style="text;html=1;align=center;verticalAlign=middle;resizable=0;points=[];autosize=1;strokeColor=none;fillColor=none;" parent="1" vertex="1"><mxGeometry x="510" y="260" width="150" height="30" as="geometry"/></mxCell><mxCell id="FUvMvxJM56J5M-4C7xyJ-19" value="로그인 시도" style="html=1;verticalAlign=bottom;endArrow=block;rounded=0;" parent="1" edge="1"><mxGeometry width="80" relative="1" as="geometry"><mxPoint x="295" y="439.71000000000004" as="sourcePoint"/><mxPoint x="415" y="440" as="targetPoint"/></mxGeometry></mxCell><mxCell id="FUvMvxJM56J5M-4C7xyJ-20" value="장바구니 가능여부 확인" style="html=1;verticalAlign=bottom;endArrow=block;rounded=0;" parent="1" edge="1"><mxGeometry width="80" relative="1" as="geometry"><mxPoint x="740.5" y="564" as="sourcePoint"/><mxPoint x="595" y="564" as="targetPoint"/></mxGeometry></mxCell><mxCell id="FUvMvxJM56J5M-4C7xyJ-21" value="장바구니 가능여부 반환" style="html=1;verticalAlign=bottom;endArrow=open;dashed=1;endSize=8;rounded=0;" parent="1" edge="1"><mxGeometry relative="1" as="geometry"><mxPoint x="596" y="590" as="sourcePoint"/><mxPoint x="738" y="589" as="targetPoint"/></mxGeometry></mxCell><mxCell id="FUvMvxJM56J5M-4C7xyJ-22" value="로그인 상태 확인" style="html=1;verticalAlign=bottom;endArrow=block;rounded=0;" parent="1" target="FUvMvxJM56J5M-4C7xyJ-23" edge="1"><mxGeometry width="80" relative="1" as="geometry"><mxPoint x="739.5" y="516" as="sourcePoint"/><mxPoint x="435" y="516" as="targetPoint"/></mxGeometry></mxCell><mxCell id="FUvMvxJM56J5M-4C7xyJ-23" value="" style="html=1;points=[];perimeter=orthogonalPerimeter;" parent="1" vertex="1"><mxGeometry x="421" y="507" width="8.25" height="33" as="geometry"/></mxCell><mxCell id="FUvMvxJM56J5M-4C7xyJ-24" value="로그인 상태 결과 반환" style="html=1;verticalAlign=bottom;endArrow=open;dashed=1;endSize=8;rounded=0;" parent="1" target="FUvMvxJM56J5M-4C7xyJ-11" edge="1"><mxGeometry relative="1" as="geometry"><mxPoint x="435" y="534" as="sourcePoint"/><mxPoint x="735" y="534" as="targetPoint"/><Array as="points"><mxPoint x="655" y="534"/></Array></mxGeometry></mxCell><mxCell id="FUvMvxJM56J5M-4C7xyJ-25" value="장바구니 요청 결과 반환" style="html=1;verticalAlign=bottom;endArrow=open;dashed=1;endSize=8;rounded=0;" parent="1" edge="1"><mxGeometry relative="1" as="geometry"><mxPoint x="740" y="673" as="sourcePoint"/><mxPoint x="294.92857142857156" y="673" as="targetPoint"/></mxGeometry></mxCell><mxCell id="FUvMvxJM56J5M-4C7xyJ-26" value="결제 신청" style="html=1;verticalAlign=bottom;endArrow=block;rounded=0;" parent="1" edge="1"><mxGeometry x="-0.01" y="3" width="80" relative="1" as="geometry"><mxPoint x="297.9985714285715" y="723" as="sourcePoint"/><mxPoint x="898" y="723" as="targetPoint"/><mxPoint as="offset"/></mxGeometry></mxCell><mxCell id="FUvMvxJM56J5M-4C7xyJ-27" value="" style="html=1;verticalAlign=bottom;endArrow=block;rounded=0;" parent="1" edge="1"><mxGeometry width="80" relative="1" as="geometry"><mxPoint x="740.5" y="620" as="sourcePoint"/><mxPoint x="595" y="620" as="targetPoint"/></mxGeometry></mxCell><mxCell id="FUvMvxJM56J5M-4C7xyJ-28" value="수정 결과 반환" style="html=1;verticalAlign=bottom;endArrow=open;dashed=1;endSize=8;rounded=0;" parent="1" edge="1"><mxGeometry relative="1" as="geometry"><mxPoint x="596" y="646" as="sourcePoint"/><mxPoint x="738" y="645" as="targetPoint"/></mxGeometry></mxCell></root></mxGraphModel></diagram><diagram id="Sk9gu6rQnio5hvl8QulZ" name="MVC"><mxGraphModel dx="2545" dy="1230" grid="1" gridSize="10" guides="1" tooltips="1" connect="1" arrows="1" fold="1" page="1" pageScale="1" pageWidth="827" pageHeight="1169" math="0" shadow="0"><root><mxCell id="0"/><mxCell id="1" style="" parent="0"/><mxCell id="ZgN52ImHQu7eaq46eePh-1" value="" style="rounded=0;whiteSpace=wrap;html=1;" parent="1" vertex="1"><mxGeometry x="-320" y="140" width="1990" height="1260" as="geometry"/></mxCell><mxCell id="ZgN52ImHQu7eaq46eePh-54" value="Model" style="shape=umlFrame;whiteSpace=wrap;html=1;" parent="1" vertex="1"><mxGeometry x="960" y="536" width="650" height="774" as="geometry"/></mxCell><mxCell id="ZgN52ImHQu7eaq46eePh-31" value="Controller" style="shape=umlFrame;whiteSpace=wrap;html=1;" parent="1" vertex="1"><mxGeometry x="150" y="270" width="650" height="770" as="geometry"/></mxCell><mxCell id="ZgN52ImHQu7eaq46eePh-26" style="edgeStyle=orthogonalEdgeStyle;rounded=0;orthogonalLoop=1;jettySize=auto;html=1;endArrow=diamondThin;endFill=1;" parent="1" source="zdFcsWyQoaF2xdpgz6Ov-1" target="ZgN52ImHQu7eaq46eePh-6" edge="1"><mxGeometry relative="1" as="geometry"><mxPoint x="330.00000000000045" y="493" as="sourcePoint"/></mxGeometry></mxCell><mxCell id="ZgN52ImHQu7eaq46eePh-32" style="edgeStyle=orthogonalEdgeStyle;rounded=0;orthogonalLoop=1;jettySize=auto;html=1;dashed=1;endArrow=open;endFill=0;" parent="1" source="ZgN52ImHQu7eaq46eePh-6" target="ZgN52ImHQu7eaq46eePh-14" edge="1"><mxGeometry relative="1" as="geometry"/></mxCell><mxCell id="ZgN52ImHQu7eaq46eePh-6" value="&lt;&lt;Interface&gt;&gt;&#10;Sub_Controller" style="swimlane;fontStyle=1;align=center;verticalAlign=top;childLayout=stackLayout;horizontal=1;startSize=40;horizontalStack=0;resizeParent=1;resizeParentMax=0;resizeLast=0;collapsible=1;marginBottom=0;" parent="1" vertex="1"><mxGeometry x="414" y="443" width="160" height="100" as="geometry"/></mxCell><mxCell id="ZgN52ImHQu7eaq46eePh-7" value="-" style="text;strokeColor=none;fillColor=none;align=left;verticalAlign=top;spacingLeft=4;spacingRight=4;overflow=hidden;rotatable=0;points=[[0,0.5],[1,0.5]];portConstraint=eastwest;" parent="ZgN52ImHQu7eaq46eePh-6" vertex="1"><mxGeometry y="40" width="160" height="26" as="geometry"/></mxCell><mxCell id="ZgN52ImHQu7eaq46eePh-8" value="" style="line;strokeWidth=1;fillColor=none;align=left;verticalAlign=middle;spacingTop=-1;spacingLeft=3;spacingRight=3;rotatable=0;labelPosition=right;points=[];portConstraint=eastwest;strokeColor=inherit;" parent="ZgN52ImHQu7eaq46eePh-6" vertex="1"><mxGeometry y="66" width="160" height="8" as="geometry"/></mxCell><mxCell id="ZgN52ImHQu7eaq46eePh-9" value="+ Execute():void" style="text;strokeColor=none;fillColor=none;align=left;verticalAlign=top;spacingLeft=4;spacingRight=4;overflow=hidden;rotatable=0;points=[[0,0.5],[1,0.5]];portConstraint=eastwest;" parent="ZgN52ImHQu7eaq46eePh-6" vertex="1"><mxGeometry y="74" width="160" height="26" as="geometry"/></mxCell><mxCell id="ZgN52ImHQu7eaq46eePh-27" style="edgeStyle=orthogonalEdgeStyle;rounded=0;orthogonalLoop=1;jettySize=auto;html=1;endArrow=block;endFill=0;" parent="1" source="ZgN52ImHQu7eaq46eePh-10" target="ZgN52ImHQu7eaq46eePh-6" edge="1"><mxGeometry relative="1" as="geometry"/></mxCell><mxCell id="ZgN52ImHQu7eaq46eePh-85" style="edgeStyle=orthogonalEdgeStyle;rounded=0;orthogonalLoop=1;jettySize=auto;html=1;endArrow=diamondThin;endFill=1;" parent="1" source="ZgN52ImHQu7eaq46eePh-10" target="ZgN52ImHQu7eaq46eePh-79" edge="1"><mxGeometry relative="1" as="geometry"><Array as="points"><mxPoint x="1070" y="350"/></Array></mxGeometry></mxCell><mxCell id="ZgN52ImHQu7eaq46eePh-10" value="상품" style="swimlane;fontStyle=1;align=center;verticalAlign=top;childLayout=stackLayout;horizontal=1;startSize=26;horizontalStack=0;resizeParent=1;resizeParentMax=0;resizeLast=0;collapsible=1;marginBottom=0;" parent="1" vertex="1"><mxGeometry x="600" y="300" width="160" height="86" as="geometry"/></mxCell><mxCell id="ZgN52ImHQu7eaq46eePh-11" value="- 상품 Serivce" style="text;strokeColor=none;fillColor=none;align=left;verticalAlign=top;spacingLeft=4;spacingRight=4;overflow=hidden;rotatable=0;points=[[0,0.5],[1,0.5]];portConstraint=eastwest;" parent="ZgN52ImHQu7eaq46eePh-10" vertex="1"><mxGeometry y="26" width="160" height="26" as="geometry"/></mxCell><mxCell id="ZgN52ImHQu7eaq46eePh-12" value="" style="line;strokeWidth=1;fillColor=none;align=left;verticalAlign=middle;spacingTop=-1;spacingLeft=3;spacingRight=3;rotatable=0;labelPosition=right;points=[];portConstraint=eastwest;strokeColor=inherit;" parent="ZgN52ImHQu7eaq46eePh-10" vertex="1"><mxGeometry y="52" width="160" height="8" as="geometry"/></mxCell><mxCell id="ZgN52ImHQu7eaq46eePh-13" value="+ method(type): type" style="text;strokeColor=none;fillColor=none;align=left;verticalAlign=top;spacingLeft=4;spacingRight=4;overflow=hidden;rotatable=0;points=[[0,0.5],[1,0.5]];portConstraint=eastwest;" parent="ZgN52ImHQu7eaq46eePh-10" vertex="1"><mxGeometry y="60" width="160" height="26" as="geometry"/></mxCell><mxCell id="ZgN52ImHQu7eaq46eePh-14" value="DTO" style="swimlane;fontStyle=1;align=center;verticalAlign=top;childLayout=stackLayout;horizontal=1;startSize=26;horizontalStack=0;resizeParent=1;resizeParentMax=0;resizeLast=0;collapsible=1;marginBottom=0;" parent="1" vertex="1"><mxGeometry x="840" y="450" width="90" height="86" as="geometry"/></mxCell><mxCell id="ZgN52ImHQu7eaq46eePh-15" value="-" style="text;strokeColor=none;fillColor=none;align=left;verticalAlign=top;spacingLeft=4;spacingRight=4;overflow=hidden;rotatable=0;points=[[0,0.5],[1,0.5]];portConstraint=eastwest;" parent="ZgN52ImHQu7eaq46eePh-14" vertex="1"><mxGeometry y="26" width="90" height="26" as="geometry"/></mxCell><mxCell id="ZgN52ImHQu7eaq46eePh-16" value="" style="line;strokeWidth=1;fillColor=none;align=left;verticalAlign=middle;spacingTop=-1;spacingLeft=3;spacingRight=3;rotatable=0;labelPosition=right;points=[];portConstraint=eastwest;strokeColor=inherit;" parent="ZgN52ImHQu7eaq46eePh-14" vertex="1"><mxGeometry y="52" width="90" height="8" as="geometry"/></mxCell><mxCell id="ZgN52ImHQu7eaq46eePh-17" value="+" style="text;strokeColor=none;fillColor=none;align=left;verticalAlign=top;spacingLeft=4;spacingRight=4;overflow=hidden;rotatable=0;points=[[0,0.5],[1,0.5]];portConstraint=eastwest;" parent="ZgN52ImHQu7eaq46eePh-14" vertex="1"><mxGeometry y="60" width="90" height="26" as="geometry"/></mxCell><mxCell id="ZgN52ImHQu7eaq46eePh-29" style="edgeStyle=orthogonalEdgeStyle;rounded=0;orthogonalLoop=1;jettySize=auto;html=1;endArrow=block;endFill=0;" parent="1" source="ZgN52ImHQu7eaq46eePh-18" target="ZgN52ImHQu7eaq46eePh-6" edge="1"><mxGeometry relative="1" as="geometry"/></mxCell><mxCell id="ZgN52ImHQu7eaq46eePh-18" value="회원" style="swimlane;fontStyle=1;align=center;verticalAlign=top;childLayout=stackLayout;horizontal=1;startSize=26;horizontalStack=0;resizeParent=1;resizeParentMax=0;resizeLast=0;collapsible=1;marginBottom=0;" parent="1" vertex="1"><mxGeometry x="600" y="786" width="160" height="86" as="geometry"/></mxCell><mxCell id="ZgN52ImHQu7eaq46eePh-19" value="- 회원 Service" style="text;strokeColor=none;fillColor=none;align=left;verticalAlign=top;spacingLeft=4;spacingRight=4;overflow=hidden;rotatable=0;points=[[0,0.5],[1,0.5]];portConstraint=eastwest;" parent="ZgN52ImHQu7eaq46eePh-18" vertex="1"><mxGeometry y="26" width="160" height="26" as="geometry"/></mxCell><mxCell id="ZgN52ImHQu7eaq46eePh-20" value="" style="line;strokeWidth=1;fillColor=none;align=left;verticalAlign=middle;spacingTop=-1;spacingLeft=3;spacingRight=3;rotatable=0;labelPosition=right;points=[];portConstraint=eastwest;strokeColor=inherit;" parent="ZgN52ImHQu7eaq46eePh-18" vertex="1"><mxGeometry y="52" width="160" height="8" as="geometry"/></mxCell><mxCell id="ZgN52ImHQu7eaq46eePh-21" value="+ method(type): type" style="text;strokeColor=none;fillColor=none;align=left;verticalAlign=top;spacingLeft=4;spacingRight=4;overflow=hidden;rotatable=0;points=[[0,0.5],[1,0.5]];portConstraint=eastwest;" parent="ZgN52ImHQu7eaq46eePh-18" vertex="1"><mxGeometry y="60" width="160" height="26" as="geometry"/></mxCell><mxCell id="ZgN52ImHQu7eaq46eePh-33" value="Model" style="shape=umlFrame;whiteSpace=wrap;html=1;" parent="1" vertex="1"><mxGeometry x="960" y="160" width="650" height="260" as="geometry"/></mxCell><mxCell id="ZgN52ImHQu7eaq46eePh-87" value="USE" style="edgeStyle=orthogonalEdgeStyle;rounded=0;orthogonalLoop=1;jettySize=auto;html=1;endArrow=open;endFill=0;dashed=1;" parent="1" source="ZgN52ImHQu7eaq46eePh-42" target="s9poXXWlQeJ2IswRoZ03-7" edge="1"><mxGeometry relative="1" as="geometry"><mxPoint x="1390" y="730" as="targetPoint"/><Array as="points"><mxPoint x="1255" y="830"/><mxPoint x="1255" y="830"/></Array></mxGeometry></mxCell><mxCell id="ZgN52ImHQu7eaq46eePh-42" value="회원DAO" style="swimlane;fontStyle=1;align=center;verticalAlign=top;childLayout=stackLayout;horizontal=1;startSize=26;horizontalStack=0;resizeParent=1;resizeParentMax=0;resizeLast=0;collapsible=1;marginBottom=0;" parent="1" vertex="1"><mxGeometry x="1187.5" y="920" width="190" height="138" as="geometry"/></mxCell><mxCell id="ZgN52ImHQu7eaq46eePh-43" value="- 회원 DTO : I,S,U,D" style="text;strokeColor=none;fillColor=none;align=left;verticalAlign=top;spacingLeft=4;spacingRight=4;overflow=hidden;rotatable=0;points=[[0,0.5],[1,0.5]];portConstraint=eastwest;" parent="ZgN52ImHQu7eaq46eePh-42" vertex="1"><mxGeometry y="26" width="190" height="26" as="geometry"/></mxCell><mxCell id="s9poXXWlQeJ2IswRoZ03-65" value="- 인증 DTO : INSERT,SELECT" style="text;strokeColor=none;fillColor=none;align=left;verticalAlign=top;spacingLeft=4;spacingRight=4;overflow=hidden;rotatable=0;points=[[0,0.5],[1,0.5]];portConstraint=eastwest;" parent="ZgN52ImHQu7eaq46eePh-42" vertex="1"><mxGeometry y="52" width="190" height="26" as="geometry"/></mxCell><mxCell id="s9poXXWlQeJ2IswRoZ03-66" value="- 결제 DTO : INSERT,SELECT" style="text;strokeColor=none;fillColor=none;align=left;verticalAlign=top;spacingLeft=4;spacingRight=4;overflow=hidden;rotatable=0;points=[[0,0.5],[1,0.5]];portConstraint=eastwest;" parent="ZgN52ImHQu7eaq46eePh-42" vertex="1"><mxGeometry y="78" width="190" height="26" as="geometry"/></mxCell><mxCell id="ZgN52ImHQu7eaq46eePh-44" value="" style="line;strokeWidth=1;fillColor=none;align=left;verticalAlign=middle;spacingTop=-1;spacingLeft=3;spacingRight=3;rotatable=0;labelPosition=right;points=[];portConstraint=eastwest;strokeColor=inherit;" parent="ZgN52ImHQu7eaq46eePh-42" vertex="1"><mxGeometry y="104" width="190" height="8" as="geometry"/></mxCell><mxCell id="ZgN52ImHQu7eaq46eePh-45" value="+ method(type): type" style="text;strokeColor=none;fillColor=none;align=left;verticalAlign=top;spacingLeft=4;spacingRight=4;overflow=hidden;rotatable=0;points=[[0,0.5],[1,0.5]];portConstraint=eastwest;" parent="ZgN52ImHQu7eaq46eePh-42" vertex="1"><mxGeometry y="112" width="190" height="26" as="geometry"/></mxCell><mxCell id="ZgN52ImHQu7eaq46eePh-78" style="edgeStyle=orthogonalEdgeStyle;rounded=0;orthogonalLoop=1;jettySize=auto;html=1;endArrow=none;endFill=0;startArrow=none;startFill=1;" parent="1" source="ZgN52ImHQu7eaq46eePh-55" target="ZgN52ImHQu7eaq46eePh-18" edge="1"><mxGeometry relative="1" as="geometry"><Array as="points"/></mxGeometry></mxCell><mxCell id="ZgN52ImHQu7eaq46eePh-46" value="상품DTO" style="swimlane;fontStyle=1;align=center;verticalAlign=top;childLayout=stackLayout;horizontal=1;startSize=26;horizontalStack=0;resizeParent=1;resizeParentMax=0;resizeLast=0;collapsible=1;marginBottom=0;" parent="1" vertex="1"><mxGeometry x="1430" y="208" width="160" height="164" as="geometry"/></mxCell><mxCell id="ZgN52ImHQu7eaq46eePh-47" value="- Goods_Code(PK) : String" style="text;strokeColor=none;fillColor=none;align=left;verticalAlign=top;spacingLeft=4;spacingRight=4;overflow=hidden;rotatable=0;points=[[0,0.5],[1,0.5]];portConstraint=eastwest;" parent="ZgN52ImHQu7eaq46eePh-46" vertex="1"><mxGeometry y="26" width="160" height="26" as="geometry"/></mxCell><mxCell id="s9poXXWlQeJ2IswRoZ03-55" value="- Goods_Name : String" style="text;strokeColor=none;fillColor=none;align=left;verticalAlign=top;spacingLeft=4;spacingRight=4;overflow=hidden;rotatable=0;points=[[0,0.5],[1,0.5]];portConstraint=eastwest;" parent="ZgN52ImHQu7eaq46eePh-46" vertex="1"><mxGeometry y="52" width="160" height="26" as="geometry"/></mxCell><mxCell id="s9poXXWlQeJ2IswRoZ03-18" value="- Goods_Amount : String" style="text;strokeColor=none;fillColor=none;align=left;verticalAlign=top;spacingLeft=4;spacingRight=4;overflow=hidden;rotatable=0;points=[[0,0.5],[1,0.5]];portConstraint=eastwest;" parent="ZgN52ImHQu7eaq46eePh-46" vertex="1"><mxGeometry y="78" width="160" height="26" as="geometry"/></mxCell><mxCell id="s9poXXWlQeJ2IswRoZ03-19" value="- Goods_Price : String" style="text;strokeColor=none;fillColor=none;align=left;verticalAlign=top;spacingLeft=4;spacingRight=4;overflow=hidden;rotatable=0;points=[[0,0.5],[1,0.5]];portConstraint=eastwest;" parent="ZgN52ImHQu7eaq46eePh-46" vertex="1"><mxGeometry y="104" width="160" height="26" as="geometry"/></mxCell><mxCell id="ZgN52ImHQu7eaq46eePh-48" value="" style="line;strokeWidth=1;fillColor=none;align=left;verticalAlign=middle;spacingTop=-1;spacingLeft=3;spacingRight=3;rotatable=0;labelPosition=right;points=[];portConstraint=eastwest;strokeColor=inherit;" parent="ZgN52ImHQu7eaq46eePh-46" vertex="1"><mxGeometry y="130" width="160" height="8" as="geometry"/></mxCell><mxCell id="ZgN52ImHQu7eaq46eePh-49" value="+ method(type): type" style="text;strokeColor=none;fillColor=none;align=left;verticalAlign=top;spacingLeft=4;spacingRight=4;overflow=hidden;rotatable=0;points=[[0,0.5],[1,0.5]];portConstraint=eastwest;" parent="ZgN52ImHQu7eaq46eePh-46" vertex="1"><mxGeometry y="138" width="160" height="26" as="geometry"/></mxCell><mxCell id="ZgN52ImHQu7eaq46eePh-86" value="USE" style="edgeStyle=orthogonalEdgeStyle;rounded=0;orthogonalLoop=1;jettySize=auto;html=1;endArrow=open;endFill=0;dashed=1;" parent="1" source="ZgN52ImHQu7eaq46eePh-50" target="ZgN52ImHQu7eaq46eePh-46" edge="1"><mxGeometry relative="1" as="geometry"/></mxCell><mxCell id="ZgN52ImHQu7eaq46eePh-50" value="상품DAO" style="swimlane;fontStyle=1;align=center;verticalAlign=top;childLayout=stackLayout;horizontal=1;startSize=26;horizontalStack=0;resizeParent=1;resizeParentMax=0;resizeLast=0;collapsible=1;marginBottom=0;" parent="1" vertex="1"><mxGeometry x="1187.5" y="208" width="195" height="164" as="geometry"/></mxCell><mxCell id="ZgN52ImHQu7eaq46eePh-51" value="- INSERT" style="text;strokeColor=none;fillColor=none;align=left;verticalAlign=top;spacingLeft=4;spacingRight=4;overflow=hidden;rotatable=0;points=[[0,0.5],[1,0.5]];portConstraint=eastwest;" parent="ZgN52ImHQu7eaq46eePh-50" vertex="1"><mxGeometry y="26" width="195" height="26" as="geometry"/></mxCell><mxCell id="s9poXXWlQeJ2IswRoZ03-68" value="- UPDATE" style="text;strokeColor=none;fillColor=none;align=left;verticalAlign=top;spacingLeft=4;spacingRight=4;overflow=hidden;rotatable=0;points=[[0,0.5],[1,0.5]];portConstraint=eastwest;" parent="ZgN52ImHQu7eaq46eePh-50" vertex="1"><mxGeometry y="52" width="195" height="26" as="geometry"/></mxCell><mxCell id="s9poXXWlQeJ2IswRoZ03-69" value="- SELECT" style="text;strokeColor=none;fillColor=none;align=left;verticalAlign=top;spacingLeft=4;spacingRight=4;overflow=hidden;rotatable=0;points=[[0,0.5],[1,0.5]];portConstraint=eastwest;" parent="ZgN52ImHQu7eaq46eePh-50" vertex="1"><mxGeometry y="78" width="195" height="26" as="geometry"/></mxCell><mxCell id="s9poXXWlQeJ2IswRoZ03-70" value="- DELETE" style="text;strokeColor=none;fillColor=none;align=left;verticalAlign=top;spacingLeft=4;spacingRight=4;overflow=hidden;rotatable=0;points=[[0,0.5],[1,0.5]];portConstraint=eastwest;" parent="ZgN52ImHQu7eaq46eePh-50" vertex="1"><mxGeometry y="104" width="195" height="26" as="geometry"/></mxCell><mxCell id="ZgN52ImHQu7eaq46eePh-52" value="" style="line;strokeWidth=1;fillColor=none;align=left;verticalAlign=middle;spacingTop=-1;spacingLeft=3;spacingRight=3;rotatable=0;labelPosition=right;points=[];portConstraint=eastwest;strokeColor=inherit;" parent="ZgN52ImHQu7eaq46eePh-50" vertex="1"><mxGeometry y="130" width="195" height="8" as="geometry"/></mxCell><mxCell id="ZgN52ImHQu7eaq46eePh-53" value="+ method(type): type" style="text;strokeColor=none;fillColor=none;align=left;verticalAlign=top;spacingLeft=4;spacingRight=4;overflow=hidden;rotatable=0;points=[[0,0.5],[1,0.5]];portConstraint=eastwest;" parent="ZgN52ImHQu7eaq46eePh-50" vertex="1"><mxGeometry y="138" width="195" height="26" as="geometry"/></mxCell><mxCell id="ZgN52ImHQu7eaq46eePh-89" style="edgeStyle=orthogonalEdgeStyle;rounded=0;orthogonalLoop=1;jettySize=auto;html=1;endArrow=diamondThin;endFill=1;" parent="1" source="ZgN52ImHQu7eaq46eePh-55" target="ZgN52ImHQu7eaq46eePh-42" edge="1"><mxGeometry relative="1" as="geometry"><Array as="points"><mxPoint x="1060" y="983"/></Array></mxGeometry></mxCell><mxCell id="ZgN52ImHQu7eaq46eePh-77" style="edgeStyle=orthogonalEdgeStyle;rounded=0;orthogonalLoop=1;jettySize=auto;html=1;endArrow=block;endFill=0;" parent="1" source="ZgN52ImHQu7eaq46eePh-64" target="ZgN52ImHQu7eaq46eePh-14" edge="1"><mxGeometry relative="1" as="geometry"><Array as="points"><mxPoint x="1640" y="868"/><mxPoint x="1640" y="470"/></Array></mxGeometry></mxCell><mxCell id="ZgN52ImHQu7eaq46eePh-64" value="인증DTO" style="swimlane;fontStyle=1;align=center;verticalAlign=top;childLayout=stackLayout;horizontal=1;startSize=26;horizontalStack=0;resizeParent=1;resizeParentMax=0;resizeLast=0;collapsible=1;marginBottom=0;" parent="1" vertex="1"><mxGeometry x="1430" y="776" width="160" height="216" as="geometry"/></mxCell><mxCell id="s9poXXWlQeJ2IswRoZ03-54" value="- Index(PK) : int" style="text;strokeColor=none;fillColor=none;align=left;verticalAlign=top;spacingLeft=4;spacingRight=4;overflow=hidden;rotatable=0;points=[[0,0.5],[1,0.5]];portConstraint=eastwest;" parent="ZgN52ImHQu7eaq46eePh-64" vertex="1"><mxGeometry y="26" width="160" height="26" as="geometry"/></mxCell><mxCell id="ZgN52ImHQu7eaq46eePh-65" value="- E-mail(FK) : String" style="text;strokeColor=none;fillColor=none;align=left;verticalAlign=top;spacingLeft=4;spacingRight=4;overflow=hidden;rotatable=0;points=[[0,0.5],[1,0.5]];portConstraint=eastwest;" parent="ZgN52ImHQu7eaq46eePh-64" vertex="1"><mxGeometry y="52" width="160" height="26" as="geometry"/></mxCell><mxCell id="s9poXXWlQeJ2IswRoZ03-44" value="- Salt(인증번호) : INT" style="text;strokeColor=none;fillColor=none;align=left;verticalAlign=top;spacingLeft=4;spacingRight=4;overflow=hidden;rotatable=0;points=[[0,0.5],[1,0.5]];portConstraint=eastwest;" parent="ZgN52ImHQu7eaq46eePh-64" vertex="1"><mxGeometry y="78" width="160" height="26" as="geometry"/></mxCell><mxCell id="s9poXXWlQeJ2IswRoZ03-42" value="- Start_Time : Date" style="text;strokeColor=none;fillColor=none;align=left;verticalAlign=top;spacingLeft=4;spacingRight=4;overflow=hidden;rotatable=0;points=[[0,0.5],[1,0.5]];portConstraint=eastwest;" parent="ZgN52ImHQu7eaq46eePh-64" vertex="1"><mxGeometry y="104" width="160" height="26" as="geometry"/></mxCell><mxCell id="s9poXXWlQeJ2IswRoZ03-21" value="- End_Time : Date" style="text;strokeColor=none;fillColor=none;align=left;verticalAlign=top;spacingLeft=4;spacingRight=4;overflow=hidden;rotatable=0;points=[[0,0.5],[1,0.5]];portConstraint=eastwest;" parent="ZgN52ImHQu7eaq46eePh-64" vertex="1"><mxGeometry y="130" width="160" height="26" as="geometry"/></mxCell><mxCell id="s9poXXWlQeJ2IswRoZ03-22" value="- Certifi_Commit : int,Boolean" style="text;strokeColor=none;fillColor=none;align=left;verticalAlign=top;spacingLeft=4;spacingRight=4;overflow=hidden;rotatable=0;points=[[0,0.5],[1,0.5]];portConstraint=eastwest;" parent="ZgN52ImHQu7eaq46eePh-64" vertex="1"><mxGeometry y="156" width="160" height="26" as="geometry"/></mxCell><mxCell id="ZgN52ImHQu7eaq46eePh-66" value="" style="line;strokeWidth=1;fillColor=none;align=left;verticalAlign=middle;spacingTop=-1;spacingLeft=3;spacingRight=3;rotatable=0;labelPosition=right;points=[];portConstraint=eastwest;strokeColor=inherit;" parent="ZgN52ImHQu7eaq46eePh-64" vertex="1"><mxGeometry y="182" width="160" height="8" as="geometry"/></mxCell><mxCell id="ZgN52ImHQu7eaq46eePh-67" value="+ method(type): type" style="text;strokeColor=none;fillColor=none;align=left;verticalAlign=top;spacingLeft=4;spacingRight=4;overflow=hidden;rotatable=0;points=[[0,0.5],[1,0.5]];portConstraint=eastwest;" parent="ZgN52ImHQu7eaq46eePh-64" vertex="1"><mxGeometry y="190" width="160" height="26" as="geometry"/></mxCell><mxCell id="ZgN52ImHQu7eaq46eePh-88" value="USE" style="edgeStyle=orthogonalEdgeStyle;rounded=0;orthogonalLoop=1;jettySize=auto;html=1;endArrow=open;endFill=0;dashed=1;" parent="1" source="ZgN52ImHQu7eaq46eePh-42" target="ZgN52ImHQu7eaq46eePh-64" edge="1"><mxGeometry relative="1" as="geometry"><mxPoint x="1365" y="842" as="sourcePoint"/><Array as="points"><mxPoint x="1290" y="880"/></Array></mxGeometry></mxCell><mxCell id="ZgN52ImHQu7eaq46eePh-91" style="edgeStyle=orthogonalEdgeStyle;rounded=0;orthogonalLoop=1;jettySize=auto;html=1;endArrow=diamondThin;endFill=1;" parent="1" source="ZgN52ImHQu7eaq46eePh-79" target="ZgN52ImHQu7eaq46eePh-50" edge="1"><mxGeometry relative="1" as="geometry"><Array as="points"><mxPoint x="1170" y="300"/><mxPoint x="1170" y="300"/></Array></mxGeometry></mxCell><mxCell id="ZgN52ImHQu7eaq46eePh-79" value="상품Service" style="swimlane;fontStyle=1;align=center;verticalAlign=top;childLayout=stackLayout;horizontal=1;startSize=26;horizontalStack=0;resizeParent=1;resizeParentMax=0;resizeLast=0;collapsible=1;marginBottom=0;" parent="1" vertex="1"><mxGeometry x="990" y="248" width="160" height="86" as="geometry"/></mxCell><mxCell id="ZgN52ImHQu7eaq46eePh-80" value="- 상품 DAO" style="text;strokeColor=none;fillColor=none;align=left;verticalAlign=top;spacingLeft=4;spacingRight=4;overflow=hidden;rotatable=0;points=[[0,0.5],[1,0.5]];portConstraint=eastwest;" parent="ZgN52ImHQu7eaq46eePh-79" vertex="1"><mxGeometry y="26" width="160" height="26" as="geometry"/></mxCell><mxCell id="ZgN52ImHQu7eaq46eePh-81" value="" style="line;strokeWidth=1;fillColor=none;align=left;verticalAlign=middle;spacingTop=-1;spacingLeft=3;spacingRight=3;rotatable=0;labelPosition=right;points=[];portConstraint=eastwest;strokeColor=inherit;" parent="ZgN52ImHQu7eaq46eePh-79" vertex="1"><mxGeometry y="52" width="160" height="8" as="geometry"/></mxCell><mxCell id="ZgN52ImHQu7eaq46eePh-82" value="+ method(type): type" style="text;strokeColor=none;fillColor=none;align=left;verticalAlign=top;spacingLeft=4;spacingRight=4;overflow=hidden;rotatable=0;points=[[0,0.5],[1,0.5]];portConstraint=eastwest;" parent="ZgN52ImHQu7eaq46eePh-79" vertex="1"><mxGeometry y="60" width="160" height="26" as="geometry"/></mxCell><mxCell id="ZgN52ImHQu7eaq46eePh-112" style="edgeStyle=orthogonalEdgeStyle;rounded=0;orthogonalLoop=1;jettySize=auto;html=1;endArrow=block;endFill=0;" parent="1" source="ZgN52ImHQu7eaq46eePh-92" target="ZgN52ImHQu7eaq46eePh-14" edge="1"><mxGeometry relative="1" as="geometry"><Array as="points"><mxPoint x="1650" y="1087"/><mxPoint x="1650" y="460"/></Array></mxGeometry></mxCell><mxCell id="ZgN52ImHQu7eaq46eePh-92" value="결제DTO" style="swimlane;fontStyle=1;align=center;verticalAlign=top;childLayout=stackLayout;horizontal=1;startSize=26;horizontalStack=0;resizeParent=1;resizeParentMax=0;resizeLast=0;collapsible=1;marginBottom=0;" parent="1" vertex="1"><mxGeometry x="1430" y="1005" width="160" height="268" as="geometry"/></mxCell><mxCell id="ZgN52ImHQu7eaq46eePh-93" value="- Index(PK) : int" style="text;strokeColor=none;fillColor=none;align=left;verticalAlign=top;spacingLeft=4;spacingRight=4;overflow=hidden;rotatable=0;points=[[0,0.5],[1,0.5]];portConstraint=eastwest;" parent="ZgN52ImHQu7eaq46eePh-92" vertex="1"><mxGeometry y="26" width="160" height="26" as="geometry"/></mxCell><mxCell id="s9poXXWlQeJ2IswRoZ03-49" value="- E-mail(FK) : String" style="text;strokeColor=none;fillColor=none;align=left;verticalAlign=top;spacingLeft=4;spacingRight=4;overflow=hidden;rotatable=0;points=[[0,0.5],[1,0.5]];portConstraint=eastwest;" parent="ZgN52ImHQu7eaq46eePh-92" vertex="1"><mxGeometry y="52" width="160" height="26" as="geometry"/></mxCell><mxCell id="s9poXXWlQeJ2IswRoZ03-47" value="- Name(FK) : String" style="text;strokeColor=none;fillColor=none;align=left;verticalAlign=top;spacingLeft=4;spacingRight=4;overflow=hidden;rotatable=0;points=[[0,0.5],[1,0.5]];portConstraint=eastwest;" parent="ZgN52ImHQu7eaq46eePh-92" vertex="1"><mxGeometry y="78" width="160" height="26" as="geometry"/></mxCell><mxCell id="s9poXXWlQeJ2IswRoZ03-48" value="- Phone(FK) : String" style="text;strokeColor=none;fillColor=none;align=left;verticalAlign=top;spacingLeft=4;spacingRight=4;overflow=hidden;rotatable=0;points=[[0,0.5],[1,0.5]];portConstraint=eastwest;" parent="ZgN52ImHQu7eaq46eePh-92" vertex="1"><mxGeometry y="104" width="160" height="26" as="geometry"/></mxCell><mxCell id="s9poXXWlQeJ2IswRoZ03-45" value="- Addr : String" style="text;strokeColor=none;fillColor=none;align=left;verticalAlign=top;spacingLeft=4;spacingRight=4;overflow=hidden;rotatable=0;points=[[0,0.5],[1,0.5]];portConstraint=eastwest;" parent="ZgN52ImHQu7eaq46eePh-92" vertex="1"><mxGeometry y="130" width="160" height="26" as="geometry"/></mxCell><mxCell id="s9poXXWlQeJ2IswRoZ03-23" value="- Create_Time : String" style="text;strokeColor=none;fillColor=none;align=left;verticalAlign=top;spacingLeft=4;spacingRight=4;overflow=hidden;rotatable=0;points=[[0,0.5],[1,0.5]];portConstraint=eastwest;" parent="ZgN52ImHQu7eaq46eePh-92" vertex="1"><mxGeometry y="156" width="160" height="26" as="geometry"/></mxCell><mxCell id="s9poXXWlQeJ2IswRoZ03-24" value="- End_Time : String" style="text;strokeColor=none;fillColor=none;align=left;verticalAlign=top;spacingLeft=4;spacingRight=4;overflow=hidden;rotatable=0;points=[[0,0.5],[1,0.5]];portConstraint=eastwest;" parent="ZgN52ImHQu7eaq46eePh-92" vertex="1"><mxGeometry y="182" width="160" height="26" as="geometry"/></mxCell><mxCell id="s9poXXWlQeJ2IswRoZ03-25" value="- Cetifi_Commit : int,Boolean" style="text;strokeColor=none;fillColor=none;align=left;verticalAlign=top;spacingLeft=4;spacingRight=4;overflow=hidden;rotatable=0;points=[[0,0.5],[1,0.5]];portConstraint=eastwest;" parent="ZgN52ImHQu7eaq46eePh-92" vertex="1"><mxGeometry y="208" width="160" height="26" as="geometry"/></mxCell><mxCell id="ZgN52ImHQu7eaq46eePh-94" value="" style="line;strokeWidth=1;fillColor=none;align=left;verticalAlign=middle;spacingTop=-1;spacingLeft=3;spacingRight=3;rotatable=0;labelPosition=right;points=[];portConstraint=eastwest;strokeColor=inherit;" parent="ZgN52ImHQu7eaq46eePh-92" vertex="1"><mxGeometry y="234" width="160" height="8" as="geometry"/></mxCell><mxCell id="ZgN52ImHQu7eaq46eePh-95" value="+ method(type): type" style="text;strokeColor=none;fillColor=none;align=left;verticalAlign=top;spacingLeft=4;spacingRight=4;overflow=hidden;rotatable=0;points=[[0,0.5],[1,0.5]];portConstraint=eastwest;" parent="ZgN52ImHQu7eaq46eePh-92" vertex="1"><mxGeometry y="242" width="160" height="26" as="geometry"/></mxCell><mxCell id="ZgN52ImHQu7eaq46eePh-111" value="USE" style="edgeStyle=orthogonalEdgeStyle;rounded=0;orthogonalLoop=1;jettySize=auto;html=1;endArrow=open;endFill=0;dashed=1;" parent="1" source="ZgN52ImHQu7eaq46eePh-42" target="ZgN52ImHQu7eaq46eePh-92" edge="1"><mxGeometry relative="1" as="geometry"><mxPoint x="1370" y="1063.0526315789475" as="sourcePoint"/><Array as="points"><mxPoint x="1285" y="1120"/></Array></mxGeometry></mxCell><mxCell id="s9poXXWlQeJ2IswRoZ03-35" style="edgeStyle=orthogonalEdgeStyle;rounded=0;orthogonalLoop=1;jettySize=auto;html=1;startArrow=none;startFill=0;endArrow=block;endFill=0;" parent="1" source="s9poXXWlQeJ2IswRoZ03-7" target="ZgN52ImHQu7eaq46eePh-14" edge="1"><mxGeometry relative="1" as="geometry"><Array as="points"><mxPoint x="1285" y="493"/></Array></mxGeometry></mxCell><mxCell id="s9poXXWlQeJ2IswRoZ03-7" value="회원DTO" style="swimlane;fontStyle=1;align=center;verticalAlign=top;childLayout=stackLayout;horizontal=1;startSize=26;horizontalStack=0;resizeParent=1;resizeParentMax=0;resizeLast=0;collapsible=1;marginBottom=0;" parent="1" vertex="1"><mxGeometry x="1190" y="562" width="190" height="242" as="geometry"/></mxCell><mxCell id="s9poXXWlQeJ2IswRoZ03-8" value="- MemberID(E-mail)(PK) : String" style="text;strokeColor=none;fillColor=none;align=left;verticalAlign=top;spacingLeft=4;spacingRight=4;overflow=hidden;rotatable=0;points=[[0,0.5],[1,0.5]];portConstraint=eastwest;" parent="s9poXXWlQeJ2IswRoZ03-7" vertex="1"><mxGeometry y="26" width="190" height="26" as="geometry"/></mxCell><mxCell id="s9poXXWlQeJ2IswRoZ03-9" value="- MemberPWD : String" style="text;strokeColor=none;fillColor=none;align=left;verticalAlign=top;spacingLeft=4;spacingRight=4;overflow=hidden;rotatable=0;points=[[0,0.5],[1,0.5]];portConstraint=eastwest;" parent="s9poXXWlQeJ2IswRoZ03-7" vertex="1"><mxGeometry y="52" width="190" height="26" as="geometry"/></mxCell><mxCell id="s9poXXWlQeJ2IswRoZ03-10" value="- Name : String" style="text;strokeColor=none;fillColor=none;align=left;verticalAlign=top;spacingLeft=4;spacingRight=4;overflow=hidden;rotatable=0;points=[[0,0.5],[1,0.5]];portConstraint=eastwest;" parent="s9poXXWlQeJ2IswRoZ03-7" vertex="1"><mxGeometry y="78" width="190" height="26" as="geometry"/></mxCell><mxCell id="s9poXXWlQeJ2IswRoZ03-11" value="- Addr : String" style="text;strokeColor=none;fillColor=none;align=left;verticalAlign=top;spacingLeft=4;spacingRight=4;overflow=hidden;rotatable=0;points=[[0,0.5],[1,0.5]];portConstraint=eastwest;" parent="s9poXXWlQeJ2IswRoZ03-7" vertex="1"><mxGeometry y="104" width="190" height="26" as="geometry"/></mxCell><mxCell id="s9poXXWlQeJ2IswRoZ03-12" value="- Phone : String" style="text;strokeColor=none;fillColor=none;align=left;verticalAlign=top;spacingLeft=4;spacingRight=4;overflow=hidden;rotatable=0;points=[[0,0.5],[1,0.5]];portConstraint=eastwest;" parent="s9poXXWlQeJ2IswRoZ03-7" vertex="1"><mxGeometry y="130" width="190" height="26" as="geometry"/></mxCell><mxCell id="s9poXXWlQeJ2IswRoZ03-13" value="- JOIN_Date : Date" style="text;strokeColor=none;fillColor=none;align=left;verticalAlign=top;spacingLeft=4;spacingRight=4;overflow=hidden;rotatable=0;points=[[0,0.5],[1,0.5]];portConstraint=eastwest;" parent="s9poXXWlQeJ2IswRoZ03-7" vertex="1"><mxGeometry y="156" width="190" height="26" as="geometry"/></mxCell><mxCell id="s9poXXWlQeJ2IswRoZ03-56" value="- Grant : int,Boolean" style="text;strokeColor=none;fillColor=none;align=left;verticalAlign=top;spacingLeft=4;spacingRight=4;overflow=hidden;rotatable=0;points=[[0,0.5],[1,0.5]];portConstraint=eastwest;" parent="s9poXXWlQeJ2IswRoZ03-7" vertex="1"><mxGeometry y="182" width="190" height="26" as="geometry"/></mxCell><mxCell id="s9poXXWlQeJ2IswRoZ03-16" value="" style="line;strokeWidth=1;fillColor=none;align=left;verticalAlign=middle;spacingTop=-1;spacingLeft=3;spacingRight=3;rotatable=0;labelPosition=right;points=[];portConstraint=eastwest;strokeColor=inherit;" parent="s9poXXWlQeJ2IswRoZ03-7" vertex="1"><mxGeometry y="208" width="190" height="8" as="geometry"/></mxCell><mxCell id="s9poXXWlQeJ2IswRoZ03-17" value="+ method(type): type" style="text;strokeColor=none;fillColor=none;align=left;verticalAlign=top;spacingLeft=4;spacingRight=4;overflow=hidden;rotatable=0;points=[[0,0.5],[1,0.5]];portConstraint=eastwest;" parent="s9poXXWlQeJ2IswRoZ03-7" vertex="1"><mxGeometry y="216" width="190" height="26" as="geometry"/></mxCell><mxCell id="s9poXXWlQeJ2IswRoZ03-34" style="edgeStyle=orthogonalEdgeStyle;rounded=0;orthogonalLoop=1;jettySize=auto;html=1;startArrow=none;startFill=0;endArrow=block;endFill=0;" parent="1" source="s9poXXWlQeJ2IswRoZ03-26" target="ZgN52ImHQu7eaq46eePh-14" edge="1"><mxGeometry relative="1" as="geometry"><Array as="points"><mxPoint x="1510" y="480"/></Array></mxGeometry></mxCell><mxCell id="s9poXXWlQeJ2IswRoZ03-26" value="장바구니DTO" style="swimlane;fontStyle=1;align=center;verticalAlign=top;childLayout=stackLayout;horizontal=1;startSize=26;horizontalStack=0;resizeParent=1;resizeParentMax=0;resizeLast=0;collapsible=1;marginBottom=0;" parent="1" vertex="1"><mxGeometry x="1430" y="562" width="160" height="190" as="geometry"/></mxCell><mxCell id="s9poXXWlQeJ2IswRoZ03-50" value="- Index(PK) : int" style="text;strokeColor=none;fillColor=none;align=left;verticalAlign=top;spacingLeft=4;spacingRight=4;overflow=hidden;rotatable=0;points=[[0,0.5],[1,0.5]];portConstraint=eastwest;" parent="s9poXXWlQeJ2IswRoZ03-26" vertex="1"><mxGeometry y="26" width="160" height="26" as="geometry"/></mxCell><mxCell id="s9poXXWlQeJ2IswRoZ03-53" value="- Phone(FK) : String" style="text;strokeColor=none;fillColor=none;align=left;verticalAlign=top;spacingLeft=4;spacingRight=4;overflow=hidden;rotatable=0;points=[[0,0.5],[1,0.5]];portConstraint=eastwest;" parent="s9poXXWlQeJ2IswRoZ03-26" vertex="1"><mxGeometry y="52" width="160" height="26" as="geometry"/></mxCell><mxCell id="s9poXXWlQeJ2IswRoZ03-52" value="- Name(FK) : String" style="text;strokeColor=none;fillColor=none;align=left;verticalAlign=top;spacingLeft=4;spacingRight=4;overflow=hidden;rotatable=0;points=[[0,0.5],[1,0.5]];portConstraint=eastwest;" parent="s9poXXWlQeJ2IswRoZ03-26" vertex="1"><mxGeometry y="78" width="160" height="26" as="geometry"/></mxCell><mxCell id="s9poXXWlQeJ2IswRoZ03-51" value="- E-mail(FK) : String" style="text;strokeColor=none;fillColor=none;align=left;verticalAlign=top;spacingLeft=4;spacingRight=4;overflow=hidden;rotatable=0;points=[[0,0.5],[1,0.5]];portConstraint=eastwest;" parent="s9poXXWlQeJ2IswRoZ03-26" vertex="1"><mxGeometry y="104" width="160" height="26" as="geometry"/></mxCell><mxCell id="s9poXXWlQeJ2IswRoZ03-29" value="- Amount : int" style="text;strokeColor=none;fillColor=none;align=left;verticalAlign=top;spacingLeft=4;spacingRight=4;overflow=hidden;rotatable=0;points=[[0,0.5],[1,0.5]];portConstraint=eastwest;" parent="s9poXXWlQeJ2IswRoZ03-26" vertex="1"><mxGeometry y="130" width="160" height="26" as="geometry"/></mxCell><mxCell id="s9poXXWlQeJ2IswRoZ03-30" value="" style="line;strokeWidth=1;fillColor=none;align=left;verticalAlign=middle;spacingTop=-1;spacingLeft=3;spacingRight=3;rotatable=0;labelPosition=right;points=[];portConstraint=eastwest;strokeColor=inherit;" parent="s9poXXWlQeJ2IswRoZ03-26" vertex="1"><mxGeometry y="156" width="160" height="8" as="geometry"/></mxCell><mxCell id="s9poXXWlQeJ2IswRoZ03-31" value="+ method(type): type" style="text;strokeColor=none;fillColor=none;align=left;verticalAlign=top;spacingLeft=4;spacingRight=4;overflow=hidden;rotatable=0;points=[[0,0.5],[1,0.5]];portConstraint=eastwest;" parent="s9poXXWlQeJ2IswRoZ03-26" vertex="1"><mxGeometry y="164" width="160" height="26" as="geometry"/></mxCell><mxCell id="ZgN52ImHQu7eaq46eePh-55" value="회원Service" style="swimlane;fontStyle=1;align=center;verticalAlign=top;childLayout=stackLayout;horizontal=1;startSize=26;horizontalStack=0;resizeParent=1;resizeParentMax=0;resizeLast=0;collapsible=1;marginBottom=0;" parent="1" vertex="1"><mxGeometry x="980" y="786" width="160" height="86" as="geometry"/></mxCell><mxCell id="uW-124T2UgA_92aE4cPZ-8" value="- 회원 DAO" style="text;strokeColor=none;fillColor=none;align=left;verticalAlign=top;spacingLeft=4;spacingRight=4;overflow=hidden;rotatable=0;points=[[0,0.5],[1,0.5]];portConstraint=eastwest;" parent="ZgN52ImHQu7eaq46eePh-55" vertex="1"><mxGeometry y="26" width="160" height="26" as="geometry"/></mxCell><mxCell id="ZgN52ImHQu7eaq46eePh-57" value="" style="line;strokeWidth=1;fillColor=none;align=left;verticalAlign=middle;spacingTop=-1;spacingLeft=3;spacingRight=3;rotatable=0;labelPosition=right;points=[];portConstraint=eastwest;strokeColor=inherit;" parent="ZgN52ImHQu7eaq46eePh-55" vertex="1"><mxGeometry y="52" width="160" height="8" as="geometry"/></mxCell><mxCell id="ZgN52ImHQu7eaq46eePh-58" value="+ method(type): type" style="text;strokeColor=none;fillColor=none;align=left;verticalAlign=top;spacingLeft=4;spacingRight=4;overflow=hidden;rotatable=0;points=[[0,0.5],[1,0.5]];portConstraint=eastwest;" parent="ZgN52ImHQu7eaq46eePh-55" vertex="1"><mxGeometry y="60" width="160" height="26" as="geometry"/></mxCell><mxCell id="s9poXXWlQeJ2IswRoZ03-36" value="VIew" style="shape=umlFrame;whiteSpace=wrap;html=1;" parent="1" vertex="1"><mxGeometry x="-250" y="270" width="380" height="770" as="geometry"/></mxCell><mxCell id="s9poXXWlQeJ2IswRoZ03-67" style="edgeStyle=orthogonalEdgeStyle;rounded=0;orthogonalLoop=1;jettySize=auto;html=1;startArrow=none;startFill=0;endArrow=diamondThin;endFill=1;" parent="1" source="s9poXXWlQeJ2IswRoZ03-37" target="zdFcsWyQoaF2xdpgz6Ov-1" edge="1"><mxGeometry relative="1" as="geometry"><mxPoint x="170.00000000000045" y="493" as="targetPoint"/></mxGeometry></mxCell><mxCell id="s9poXXWlQeJ2IswRoZ03-37" value="GUI_VIEW" style="swimlane;fontStyle=1;align=center;verticalAlign=top;childLayout=stackLayout;horizontal=1;startSize=26;horizontalStack=0;resizeParent=1;resizeParentMax=0;resizeLast=0;collapsible=1;marginBottom=0;" parent="1" vertex="1"><mxGeometry x="-170" y="437" width="200" height="112" as="geometry"/></mxCell><mxCell id="s9poXXWlQeJ2IswRoZ03-38" value="- Front_Controller : controller" style="text;strokeColor=none;fillColor=none;align=left;verticalAlign=top;spacingLeft=4;spacingRight=4;overflow=hidden;rotatable=0;points=[[0,0.5],[1,0.5]];portConstraint=eastwest;" parent="s9poXXWlQeJ2IswRoZ03-37" vertex="1"><mxGeometry y="26" width="200" height="26" as="geometry"/></mxCell><mxCell id="s9poXXWlQeJ2IswRoZ03-39" value="" style="line;strokeWidth=1;fillColor=none;align=left;verticalAlign=middle;spacingTop=-1;spacingLeft=3;spacingRight=3;rotatable=0;labelPosition=right;points=[];portConstraint=eastwest;strokeColor=inherit;" parent="s9poXXWlQeJ2IswRoZ03-37" vertex="1"><mxGeometry y="52" width="200" height="8" as="geometry"/></mxCell><mxCell id="s9poXXWlQeJ2IswRoZ03-40" value="+ init() : void" style="text;strokeColor=none;fillColor=none;align=left;verticalAlign=top;spacingLeft=4;spacingRight=4;overflow=hidden;rotatable=0;points=[[0,0.5],[1,0.5]];portConstraint=eastwest;" parent="s9poXXWlQeJ2IswRoZ03-37" vertex="1"><mxGeometry y="60" width="200" height="26" as="geometry"/></mxCell><mxCell id="s9poXXWlQeJ2IswRoZ03-41" value="+ Ex_Sub_Controller(menu,SN)" style="text;strokeColor=none;fillColor=none;align=left;verticalAlign=top;spacingLeft=4;spacingRight=4;overflow=hidden;rotatable=0;points=[[0,0.5],[1,0.5]];portConstraint=eastwest;" parent="s9poXXWlQeJ2IswRoZ03-37" vertex="1"><mxGeometry y="86" width="200" height="26" as="geometry"/></mxCell><mxCell id="zdFcsWyQoaF2xdpgz6Ov-1" value="FrontController" style="swimlane;fontStyle=1;align=center;verticalAlign=top;childLayout=stackLayout;horizontal=1;startSize=26;horizontalStack=0;resizeParent=1;resizeParentMax=0;resizeLast=0;collapsible=1;marginBottom=0;" parent="1" vertex="1"><mxGeometry x="170" y="437" width="190" height="112" as="geometry"/></mxCell><mxCell id="zdFcsWyQoaF2xdpgz6Ov-2" value="-map:Map&lt;String,Subcontroller&gt;" style="text;strokeColor=none;fillColor=none;align=left;verticalAlign=top;spacingLeft=4;spacingRight=4;overflow=hidden;rotatable=0;points=[[0,0.5],[1,0.5]];portConstraint=eastwest;" parent="zdFcsWyQoaF2xdpgz6Ov-1" vertex="1"><mxGeometry y="26" width="190" height="26" as="geometry"/></mxCell><mxCell id="zdFcsWyQoaF2xdpgz6Ov-3" value="" style="line;strokeWidth=1;fillColor=none;align=left;verticalAlign=middle;spacingTop=-1;spacingLeft=3;spacingRight=3;rotatable=0;labelPosition=right;points=[];portConstraint=eastwest;strokeColor=inherit;" parent="zdFcsWyQoaF2xdpgz6Ov-1" vertex="1"><mxGeometry y="52" width="190" height="8" as="geometry"/></mxCell><mxCell id="zdFcsWyQoaF2xdpgz6Ov-4" value="- init():void" style="text;strokeColor=none;fillColor=none;align=left;verticalAlign=top;spacingLeft=4;spacingRight=4;overflow=hidden;rotatable=0;points=[[0,0.5],[1,0.5]];portConstraint=eastwest;" parent="zdFcsWyQoaF2xdpgz6Ov-1" vertex="1"><mxGeometry y="60" width="190" height="26" as="geometry"/></mxCell><mxCell id="zdFcsWyQoaF2xdpgz6Ov-5" value="+Ex_Sub_Controller(menu,SN)" style="text;strokeColor=none;fillColor=none;align=left;verticalAlign=top;spacingLeft=4;spacingRight=4;overflow=hidden;rotatable=0;points=[[0,0.5],[1,0.5]];portConstraint=eastwest;" parent="zdFcsWyQoaF2xdpgz6Ov-1" vertex="1"><mxGeometry y="86" width="190" height="26" as="geometry"/></mxCell></root></mxGraphModel></diagram><diagram id="KBPRqG-02jAeLX31tPXi" name="ERD"><mxGraphModel dx="2414" dy="1734" grid="1" gridSize="10" guides="1" tooltips="1" connect="1" arrows="1" fold="1" page="1" pageScale="1" pageWidth="827" pageHeight="1169" math="0" shadow="0"><root><mxCell id="0"/><mxCell id="1" parent="0"/><mxCell id="P889oIppsMQ120hweUP2-1" value="" style="shape=image;verticalLabelPosition=bottom;labelBackgroundColor=#ffffff;verticalAlign=top;aspect=fixed;imageAspect=0;image=data:image/png,iVBORw0KGgoAAAANSUhEUgAAAw4AAAK0CAIAAAAlBv29AAAAAXNSR0IArs4c6QAAAARnQU1BAACxjwv8YQUAAAAJcEhZcwAADsMAAA7DAcdvqGQAAMEuSURBVHhe7f1bjB3Xmd6N8z4IEOCfDPDPTb5vDOdmLgIIEGIQ4xlhchEg8HeXjAdIJojhQYvxKJQs6XNMU5IPsi0ltD1txPKQYvMoUrKatHhqNmlRTYon+SCLJimRIkWJzaYtutknNilKch/U/t6qtfbaT62q2nuTa9eud9d+fig1V613rVXvU6tq1aPqzc1lf/zjH2/duiU/83j//fdtKYvGfbsxSr2IzpxDotSL6Mw5JEq9iM6cQ6LUi+jMOSSqVu8y+a8xkrot9QbUW22ot9pQb7Wh3mqjVi/fKvlQL6Iz55Ao9SI6cw6JUi+iM+eQKPUiOnMOiarVS6vkQ72IzpxDotSL6Mw5JEq9iM6cQ6LUi+jMOSSqVi+tkg/1IjpzDolSL6Iz55Ao9SI6cw6JUi+iM+eQqFq9tEo+1IvozDkkSr2IzpxDotSL6Mw5JEq9iM6cQ6Jq9dIq+VAvojPnkCj1IjpzDolSL6Iz55Ao9SI6cw6JqtVLq+RDvYjOnEOi1IvozDkkSr2IzpxDotSL6Mw5JKpWL62SD/UiOnMOiVIvojPnkCj1IjpzDolSL6Iz55CoWr20Sj7Ui+jMOSRKvYjOnEOi1IvozDkkSr2IzpxDomr10ir5UC+iM+eQKPUiOnMOiVIvojPnkCj1IjpzDomq1ctv6/ah3mpDvdWGeqsN9VYbtXr5VsmHehGdOYdEqRfRmXNIlHoRnTmHRKkX0ZlzSFStXlolH+pFdOYcEqVeRGfOIVHqRXTmHBKlXkRnziFRtXpplXyoF9GZc0iUehGdOYdEqRfRmXNIlHoRnTmHRNXqpVXyoV5EZ84hUepFdOYcEqVeRGfOIVHqRXTmHBJVq5dWyYd6EZ05h0SpF9GZc0iUehGdOYdEqRfRmXNIVK1eWiUf6kV05hwSpV5EZ84hUepFdOYcEqVeRGfOIVG1emmVfKgX0ZlzSJR6EZ05h0SpF9GZc0iUehGdOYdE1eqlVfKhXkRnziFR6kV05hwSpV5EZ84hUepFdOYcElWrl1bJh3oRnTmHRKkX0ZlzSJR6EZ05h0SpF9GZc0hUrV5+W7cP9VYb6q021FttqLfaqNXLt0o+1IvozDkkSr2IzpxDotSL6Mw5JEq9iM6cQ6Jq9dIq+VAvojPnkCj1IjpzDolSL6Iz55Ao9SI6cw6JqtVLq+RDvYjOnEOi1IvozDkkSr2IzpxDotSL6Mw5JKpWL62SD/UiOnMOiVIvojPnkCj1IjpzDolSL6Iz55CoWr20Sj7Ui+jMOSRKvYjOnEOi1IvozDkkSr2IzpxDomr10ir5UC+iM+eQKPUiOnMOiVIvojPnkCj1IjpzDomq1Uur5EO9iM6cQ6LUi+jMOSRKvYjOnEOi1IvozDkkqlYvrZIP9SI6cw6JUi+iM+eQKPUiOnMOiVIvojPnkKhavbRKPtSL6Mw5JEq9iM6cQ6LUi+jMOSRKvYjOnEOiavXy27p9qLfaUG+1od5qQ73VRq1evlXyoV5EZ84hUepFdOYcEqVeRGfOIVHqRXTmHBJVq5dWyYd6EZ05h0SpF9GZc0iUehGdOYdEqRfRmXNIVK1eWiUf6kV05hwSpV5EZ84hUepFdOYcEtWgd3x8fMOGDS+8uGPX7r37SHnI+X/+xcGBgQ3Xr1+XeSl09mmVfKgX0ZlzSJR6EZ05h0SpF9GZc0i0dL1btmzdtXvP4PCRzYdOrT/89tojF9ceeYdbGdtFOf8yCzIXL+3eI/NS6OzTKvlQL6Iz55Ao9SI6cw6JUi+iM+eQaLl61w9s2LVv/4aRN1OPbW5lbhtGzu7au3/ds8+aycokcPZplXyoF9GZc0iUehGdOYdEqRfRmXNItES9W7ZseWnv0LPRmyT/Uc2t9O3Zw+fFLW3dutVOWIrA2adV8qFeRGfOIVHqRXTmHBKlXkRnziHRsvS+++67u3bv4fskzdvGkbMyR+ZzS2kCrw1aJR/qRXTmHBKlXkRnziFR6kV05hwSLUvv2rVrB4ePeM/mez97run27//TpSe3Hfrh8GmvL7citsHhwwMDA3bOkgReG7RKPtSL6Mw5JEq9iM6cQ6LUi+jMOSRalt7nfzK4+dAp78H8n//H+3/74Pv/9aFr0fZgvJlC/PO/rHxfGtz/+PjfPPh1cUteX25FbFteOfXCi4N2zpIEXhv8tm4f6q021FttqLfalKV31+496w+f9x7Me84tmEfpJ0t/nF/84x8W/vjh3NKtj5dmPlqa+GDp2s1Prkx/sum1D/7df/xvq9fv8fpyK2KLPrG0e4+ds7bCt0o+1IvozDkk2pt6+U0w4Xhf4uJR7vzmUVZWxUXL0isXQPp7Afa+NX/rw4W3Rm/+5t3Zs6O3xiY+/sXFG8fPzZz/3ccjZ2eG35h+Z3xh4OiNgq3Sob/+s2XLlt2Tqs/Ztq3+lDT/s9VPevVPf16ql31uIFGpYOvf8/Nv/nhb5iYhr7HMkcyUnbMkgdcGrZIP9SI6cw6J9qBefhNMOzb/S1zs+a1R4vzaUhZlZVVctCy9sVXyLol3dr85d+P2/K/fuXHyralfXrjxzvsfHTk7ffDU1G9GP9z7+tTOE79/Y/TWPx66XrpVeuBzkQv67NPxbrdZpX985fzfP/RIX4q/f/DhZw6d8xrLRquUoLgo9SI6cw6J9preZ378Y34TTHs38yUuAxs22FMcU9b88v5FijtuplV66fRHU7fmf35++vDpyeNvTr519cODb0zt+cX4Ly7d3nFy4vkjYycvzPzowO9olQK372x4yfoj4Dsbd3nNzEarlKC4KPUiOnMOifaUXn4TTEFb+ktcypp93r9IccfNtEo73rh9fXbuxFvTh05NHjkzeXr0w6HXJ396cvz4hdsvHJ/YOjJ29NxM/76xHKs08NnIm9zzqcjoRHzqgfij386yRIXPP1Bvabjnr7fF3Y3jqZNrlZ584B7bJKZmlT7/2bzjJrur2A5ffOirj1uLFPPQ/3xMKv1m8UarlKC4KPUiOnMOifaO3vHxcX4TTHGb9yUuZc0+71+kuONmWqUXfzl7bWbu6JvTB389+cpvJl6/fHv3LyZfPD5+5PwHz706sfHQ2MibMz/Y9V5jqxRbH/NmKH7xYyzLn90TO6HPP5B4CWRfIP31/zI+yRipu3qrlDhuXNZslY68s+bFEeuSYtb85BWvgdtolRIUF6VeRGfOIdHe0bthwwZ+E0yhG36JS1mzz/sXKe64mVbphdemxibnXjk9ve+X4wdeH//5O7cHT05uf/Xaz87e3DQy/uzBKwdPT6/ZcbGhVTJ2x777iV7wWKtkf0FWr4fdf/r///9BZdAv4PzjarVKsn3lW//b+KSvPLnGC+FGq5SguCj1IjpzDon2jt4XXtzBb4IpdMMvcSlr9nn/IsUdN9MqPXf0+rvX5/b96vpPj43tOnH18NmpbYd/t+nl0d2/vL7u4NiP9727742pp18434pVqjuVpGXxrJKNxljr0zNW6Yf7fnX/iv9+/4oV/Xt/6YVwo1VKUFyUehGdOYdEe0cvvwmm6M18iYs5n2XNPu9fpLjjZlqlTSPXLrz/0ctvXNt7cnTva6NS+MmrY9tGLu888dsNL48+e/Dy7tenntr25t28VcqxSma3N98qyfbY99c99oNnvUpvo1VKUFyUehGdOYdEe0dvvLir+SaY5AJ9Z1te3wIW97v+EpeyZp/3L1LccTOt0vqDY+9N/OHs2K1fXZx+7e2p4+dnDr818/LpyeHfTO07Nb3719N7Tt367tYzLVgl+NySf1XHIXvx1z5aZD6rZCttXxjZ3xJ+K3E3QQ7dYJV+9LOzsnmV3laUVZL/GiOXpi31BtRbbXpHb+bi3slvgmnpryjnbC31LWBxv4svcbGnuyR4/3aGzLvpqecv/J/dl/p/euEHg+e//+K5771wbs3zb/2v7Wef3nbmqa1nxSTJ9vjaXzW0So7aX23LuKqxpW1m3E+M+Tt0jaxSzWNF2LupToPjduVW0C3Jt0o+1IvozDkk2jt6Mxf3Tn4TTDdaJdnu7ktcypp93r9IccfNvJue3Hbobx78utwsjbecT/7BGx1u7dvcLekReG3QKvlQL6Iz55Bo7+jNXNyDvgkm+f+jWe/z6x+bgP/rjag1S32bS9bWat+C/j/4rr7EpazZ5/2LFHfczLvph8OnxQPJndJ4y/n7pO22SsnbE2j8wqlqG61SguKi1IvozDkk2jt6Mxf3oG+CkbXY+hKzysev7nOskmwZb4bs2377kDDNMrf8vrWPa0i5sF8Z3MWXuJQ1+7x/keKOm3k3cVO40SolKC5KvYjOnEOivaM3c3EP+yaY+la3MndklbKaZW4NfgHXmb+zc6df4lLW7PP+RYo7Lq1St2y0SgmKi1IvojPnkGjv6M1c3MO+CcY6GEeFrdKdfolLWbPP+xcp7ri0St2y0SolKC5KvYjOnEOivaM3c3EP+SYYY1/M54TqVqaiVkm2O/oSl7Jmn/cvUtxxaZW6ZaNVSlBclHoRnTmHRHtHb+biHvJNMGBfjNcxZfx0qv0Mk2lf9zSye4dWKb8vHK5gq3RHX+JS1uzz/kWKO65MNOkW7JwlCbw2aJV8qBfRmXNItHf0ypLhPddlC/omGGNZIuw/h27e+hhbE+N9xYt1VMKdWqWMvnUUfROMW5fLmn3ev0hxx/3GN75hS0Q3eTMVeG3QKvlQL6Iz55Bo7+jNtEph3wTDzd9olTIpLlqWXlqlbqEoqyT/NUYuTVvqDai32vSO3kyrFPZNMO3e/NdFjsYvnBRtcpLt6S4J3r+dgVapW5CZsnPWVvhWyYd6EZ05h0R7R2+mVeLW3o1vlTIpLlqWXlqlbqGot0rmD7OfCW9FRGfOIVHqRXTmfHdRWqUObLRKmRQXLUtv3gP49uijt9+7f3Hhw6WlJVtFSoVWKUFxUepFdOYcEu0dvbRKHdholTIpLlqW3swH8O2Lfzn/7vK5K8s/fONfzkxeWlhYsAFSHrRKCYqLUi+iM+eQaO/opVXqwEarlElx0bL0ph/AH/9+3eLM/fPv/9X8tb5Pzv7rq7/4D9PT0215t3Tp0qXly5fbnda4iy5VhVYpQXFR6kV05hwS7R298hQnHcCc7bJmn/cvUtxx0w/gP1zfujD1+U/G/+qTS//mk1N/enHkzy9fvry4uGjDARRklexfmVgWPfTNbn9/vymb7oJp4HANughapQTFRakX0ZlzSLR39OYtGaSNuJNc1uzz/kWKO27m3TR77jMLY/928Td/Ovvav9g5uH50dFSzVfLaRM5o+XKplDKG7uLoqqBVSlBclHoRnTmHRHtHL61SB6BVyqS4aFl6s63S2NrF3/3FB8f/2Yldnztx4sTMzAz+Ai62IvY9zfDwsKnp6+uTXSmLIzEhIW6eqJGWptLuxyO00gVrpGyaGWTXDStIWcaUfKSMIa9Z10GrlKC4KPUiOnMOifaOXlqlDkCrlElx0bL0Zt5NH/1+4+L7fzF7/J/v37//t7/9rfexbmdWxJFI2dQYz4Tl/v5+41dcjTMrxs1IwdBKF6mRn1jj8GpMWcaRETCU7thd0ColKC5KvYjOnEOivaOXVqkD0CplUly0LL2Zd9PH45vEKt069k9eO3l0dnbW1tZAwyEOJtOpCFJv/E3arGB7oZUuUo+YqCEzAVOJIa9Z11GUVZIrjxBSPfKWDH4TTBuRk2xPN6k0DazSzeP/9OTJk0qsktcFyUugPyY9VJdS0C0Zne7Gfkoa2VIWgU7NlrIoK0q9iM6cQ6K9ozdzcec3wbQXd5LLmn3ev0hxx828m4QPzn167MRfnjp16oMPPrBVNZzhGB4eNmW0IOJ10r9NE5tialx708bQShfXJk2eVRKkl9utgFWypSSB1watkg/1IjpzDon2jt70ktGeb4K5JItyf+Lzoj0MrVImxUXL0pv3AJ6dnX3vvfeuXbs2Nzdnq2qI/3CYGrQg4khsrBYVi2N2xQaZlthGonfaxXM8tjYrGRnH7dIqpZEorZIP9SI6cw6J9o7e9JLR9JtgWvJAd26Vat/W0mf+b1d26wPEoz3gf58LNNANrVImxUXL0pv3AG5AVxuO7oVWKUFxUepFdOYcEu0dvZlLRhu+CeYu3iolu0R/Y9rtY+guRi4bWqVMiouWpZdWqVugVUpQXJR6EZ05h0R7R2+2VWryTTDWqUihP/r+lwj7Lkh8jK2ovfOp19hu0sOWohC4nqQHisrDfXZcDCWbdQW0SpkUFy1L711YJVIKtEoJiotSL6Iz55Bo7+jNXDIafxOMcyrigaxDEk8TV4oNqnsmW2Mr6hZHClFlyvIkK0zZmiUMpfrph1Ypk+KiZemlVeoWaJUSFBelXkRnziHR3tGbuWQ0+yYY61TS9iWjxr5SMtR9lOy4tpakB7JlU4mhZLOugFYpk+KiZemlVeoWaJUSFBelXkRnziHR3tHbwCrlfxOMdSpp+9KoBhmOfm/nR5IeyJWlui/6S861EK1SFo2jvH+R4o5Lq9Qt0ColKC5KvYjOnEOivaM3b8lo+E0w1qmk7Yv9PVxc4f9Kro75rVrtl3aOHKvkGytapSwaR3n/IsUdl1apWyjKKsl/jZFL05Z6A+qtNr2jN2/JaPBNMM6p1C2Lsy+xq4mMjfvra5FpqhHX1M1T1Ljuo2rNbE3CD6Gt6k6rZE93SfD+7Qy0St1CQbck3yr5UC+iM+eQaO/o5eLeAdxJLmv2ef8ixR2Xd1O3kDdTgdcGrZIP9SI6cw6J9o5eLu4dgFYpk+KiZenl3dQt0ColKC5KvYjOnEOivaOXi3sHoFXKpLhoWXp5N3ULtEoJiotSL6Iz55Bo7+jl4t4BaJUyKS5all7eTd0CrVKC4qLUi+jMOSTaO3q5uHcAWqVMiouWpTfvbpq+eXPj8PDEzMz8/LytIqVCq5SguCj1IjpzDon2jl5apQ5Aq5RJcdGy9GbeTVOzs9uOHTuxsPC9/fsvXbmS/iuld0kX/lXQdhD/ldrUF5Bkkv7uNgetUoLiotSL6Mw5JNo7emmVOgCtUibFRcvSm76bxCdtP3bs9aWlw0tLOxcWvrZv38XR0fa4paKtUmJ872CxX4GK+heCYG3tq0MiYnPjj5EYv4UBTbukT4oOYpvg8eIq/JKRJLRKCYqLUi+iM+eQaO/opVXqALRKmRQXLUuvdzeZ90nik44uLe1dWtq4tPT0/PyKoaELbXFLnntpP3AA71jRrvvmtIh6seZloj/B1Az3ReXUINCr2YAxvveJ9uv9ZC9po5KdEVqlBMVFqRfRmXNItHf00ip1AFqlTIqLlqXXu5vWDw2dWFg4vLS0x/ikTz5ZPT+/cmzsm4ODExMTpk1sEeybEPNQlwd/f/R6JN6LHUdM7Ylfr7GvTmrtI0wjaGJNhDtK37AN1g1EvXXChQgScSYEY6YebUutnWD9CvigOom6+ugtDWiLMIIdALMEWQY4SIKirJL81xi5NG2pN6DeatM7emmVOoCcZHu6S4L3b2fw7qapGzf+4eDBnQsLxid9bW7uwatXV27aNDIyMjY2ZtrYfwBIkAd9/KQX4+Ie+LYqfuSbkqtxLqDePukkImrmwR4lOkStUGtZtxdpW1HrXvvTUGsHg9Q71ioz3+bUPFkN26ulAQVMsF6ul6SpxTWL6jISKeqW5FslH+pFdOYcEu0dvbRKHcCd5LJmn/cvUtxxvbtpYWHh3bGx1UNDT8/Pr56fF5/0wMaNQ0NDp0+fnpmZMW3qD/+aKYAaKIshiJ/5iZq4nK6JG9fANtig1itpXzxbYYyGtIb6et+6i/EOF9XUCkiiMiOZRgMKkPUfQWHM8n5TH1MfJ9EHyFv3Aq8NWiUf6kV05hwS7R29tEodgFYpk+KiZelN301zc3MXR0dXDA2tHBtbuWmT8UnT09OLi4umATzI22aV6m+qvDbON7gCds8i+s3bsO+UrDuJMb3rw9bMVt2sAIlj1XJocUCh1iNJRi1UGbOXglYpQXFR6kV05hwS7R29eUvG7PTUvo3rZyYm+E0w4dAqZVJctCy9mXeTuKULo6Pf3rlzZGTkzJkz6JOE+mO+9ioEH/xZv4Cz4ajGa19zCK7Gb+MshCvgb/QykawSDaIh67vpnKP2UTxql2gYlevNBJtDqwPaMo5gcFrMMUxNrYsLetAqJSguSr2IzpxDor2jN3PJuDE1NbJ98+2TR3Z9/+nRS++07ZtggOXLl9uSbiTPvr4+u9MQeaJcupSxKAu0SpkUFy1Lb94DWO6giYmJq1evzszMoE8S4I2Kfbr7fiIZja1DhPubX/X2NV9Qa5Jq44wDOoj6IWqvdBLIYLVDC9gxwpoXrIzHi/ZxYDNGoq8Z6k4GdNEEbgQ4Xi3jqAqyr0OrlKC4KPUiOnMOifaO3vSSEfukrR//+rWPXj04+9K2nasfHb14oY1uyZgkzyqJycAaKaPtkF0XtWthDLYZHh62tbJQxubGdRHS4+Ou7RaDY/b39zufZMMxpo3dWRYtj4IkgGMitEqZFBctS2/eA7gBSaNAmpDrfTLJclYGWqUExUWpF9GZc0i0d/R6S8aNqcmR7Zsjn3T8ldtDO25ufmZyzRODX/rC5Qtvt/fdUtpVSI2xIJ6tMbsu6kKy62yKeBpXFhpbJW9AAUM4jpRdG6wX5BDijaSAdkrGMZUetEqZFBctSy+tUvHE745ac0uZb8kMtEoJiotSL6Iz55Bo7+j1low9A+tunzzy0asHb+8bvLnlxzNrHr/+xINnv/zFbd96wn0TjPETBuMkYuMRvfw2b1ZMwTQ2JsbgGrufiLQUpCB9TcFg6sWOmErsKGOaglQ6T+PAlhJ1u96AQuaYRospC67e4HbTI5syQquUSXHRsvTehVUipUCrlKC4KPUiOnMOifaOXm/JuDE1ua9/zexL225ufkZ80vjjK998+O/WrVyB3wSTdglSI2XxFq6AJsMglfiyp0ED+SllUylISxzTdcSjeD7GIJWIa+wNaGpMASs932NHWbbMVErB1AuuLN2NBA9apUyKi5all1apW6BVSlBclHoRnTmHRHtHr7dkLCwsXHn30k8f+8rkmieuP/Gg+KS1K1d43wQTG4Y6UmPshXNOrmDKtl3NrOBPD2kjPzGEQ0k0PZohc7TMcdIDmoIBu3hWySHNTBp2v5a2gIMjtEqZFBctSy+tUrdQlFWS/xojl6Yt9QbUW216R296yZibmxu9eGHwS184++Uvrqv5pOQ3wfhuwHMhmXbEVeJPD/M+CV/MiFmRERyy6w4hu6aNIGVzFAQP4Y6eHlAqM8eUkIl6SGNs6UYWGrxVsqe7JHj/dgZapW6hoFsyWhTkD3OMTOTStKUsGvftxij1IjpzDon2jt7MxV3c0uULb7/w7W9kfhOMuATxBHYnxlkNryC4gtgOU8afHjKsN7g0c7tSkF3X0TQ2ZRkcXY7xK66l4FKSn96AptLVuHFc1JQFKTiTZFydFOTQzh5F3irLXbmTXNbs8/5FijsurVK3kDdTgdcGrZIP9SI6cw6J9o7evCWjwTfBGLtgQKuRaZXERpiWUsDGroGHtLSl5DgGid5zzz12p+aQpJkrG/KsUuaAXiWO6QryMxo3xjgkEzWYXUHGcVGEVimT4qJl6aVV6hZolRIUF6VeRGfOIdHe0cvFvQFim9wbo6aISfJ8mINWKZPiomXp5d3ULdAqJSguSr2IzpxDor2jl4t7Y8T9tOiWlmV9XspAq5RJcdGy9PJu6hZolRIUF6VeRGfOIdEe0Ts4OMjFvQPQKmVSXLQsvbybugVapQTFRakX0ZlzSLQCemUtwOXAi4pJ+kxM3pJB2og7yR2bfQ/ev0hxx+Xd1C3kzVTgtUGr5EO9iM6cQ6IV0CtrAS4HLupMkhRkN2/JIG3EneSOzb4H71+kuOPm3U3TN29uHB6emJmZn5+3VaRU8mYq8NqgVfKhXkRnziHRCuiVtQCXA4l6JsmQt2SQNuJOcsdm34P3L1LccTPvpqnZ2W3Hjp1YWPje/v2Xrlxp77+lSO6OvHUv8NqgVfKhXkRnziHRCuiVtcAtB+KN7r33Xs8kGfKWDNJG3Eku69rg/YsUd9z03SQ+afuxY68vLR1eWtq5sPC1ffsujo522C15X4dhMN9zIZiy+z4w11h+mgYO16YC5K17gdcGv63bh3orw6osHnnkEVtatcq2i7FVDbFNY2xVQ2zTGFvVENs0xlZl8dmYL37xi5/61KfEJ23ZsiWzPa1SB5CTbOarLLhedQbvbjLvk8QnHV1a2ru0tHFp6en5+RVDQxc665YyrRJWSkEwf3/Ta5zZtwIUdEvyrZIP9SI6c24lKjfMfffdJz89xCrZUnLtMzXGYeSBx7VVQLqvbRrTeOS0szH1Bq+v6BJWrFjx6U9/+jOf+YxYJa+9wwxFisOd5KKv5zy4XiHFHde7m9YPDZ1YWDi8tLTH+KRPPlk9P79ybOybg4MTExOmDX51qjErsW+J3uiYb+oyBdNYGsQNI0yNNDAF52nkp/veV9PRDCLgayH0QFKQluZLMTxv5O1Whrx1L/DaoFXyoV5EZ84h0QrojUxQbTngL+DKxZ3ksq4N3r9Iccf17qapGzf+4eDBnQsLxid9bW7uwatXV27aNDIyMjY2ZhvVcGZFPI0YFNl1BWdWpMa4H/flqC7kPI1r4zpm2h2sNAUZULp4jTP7VoC8dS/w2qBV8qFeRGfOIdEK6JW1AJcDiYpPij7UzY91dxx3kjs2+x68f5HijuvdTQsLC++Oja0eGnp6fn71/Lz4pAc2bjT//vTMzIxpI15EzI3BmBLz03mUtKcRTC+vxpTTNTiCIz2sqfEaZ/atAHnrXuC1QavkQ72IzpxDohXQK2sBLgcu6hmmvCWDtBF3kjs2+x68f5Hijpu+m+bm5i6Ojq4YGlo5NrZy0ybjk/DfnxbHI3ZECs6UoHHBguAKUtl2qyT0x2DjzL4VIG/dC7w2aJV8qBfRmXNItAJ6ZS3A5cCLOsOUt2SM37z51P79v79xg98EE447yR2bfQ/ev0hxx828m8QtXRgd/fbOnSMjI2fOnEGfJKBNMWXzM9PoiD3yfgFnDJOpwe4CjuCaOXBYVxCkJe5isyqRt+4FXhu0Sj7Ui+jMuZWo3DCZ90yPzK8Ypkz512Znf3T06OTi4pMHD14I/iaY5cv7s/9ptJ7BneSyZp/rFVLccTPvJkHuoImJiatXr87MzKBPEsTxiDsRpGBMifmJRseZFWN6DKZGHJLZ9boL2NEcRRqbXcH0EqTsmgnuE04GWiWkaZRWyYd6EZ05txKVGybznumd+U3LF5/0zNGjH8XlW4uLXx0ePn8XbumS/D+udUjNrRI0bkRWM/zulz7794Qc0kH+HznqEhWSmJGS1a0kcTe4k1zW7HO9Qoo7buZiQhSSN1OB1watkg/1IjpzbiUqN0zmPdM78+vJfz9+n2R8kmF6cXHlgQPn7tQtdcwquZrYFyXcUtQ++n/tep/UCC0dNxh3ksuafa5XSHHHzVxMiELyZirw2qBV8qFeRGfOrUTlhsm8Z3pnfj353xkamkz+gkA4Nj6+es8e900wsScxWKOR8Ctx2TWRPanpt79ksFamPkKy8Z/8339iSzBy3Dfql+xkSXidpBMye8N90D7ZQPB2C8Kd5LJmn+sVUtxxMxcTopC8mQq8Nvht3T7UWw1WxdgdoHfm11syxm/ceOrll2+BW3praurhHTsyvwnmj2JDYu9TNxzOi4ApEYdjX/bUbMvyekVcSDmY+sj4oijdzPc6tW4RtdbolVIj1NxXTGrwdiEn2Z7ukuB61RlolbqFgm5JvlXyoV5EZ86tROWGyVzdemd+PfkLCwsXx8ZWHTgwHbsl8UkPDQ563wQTGQ5rLqy9qPsP50XAlKSj8TumugVK9IpHjYhr6n0FGNORrAGrVG8MXik1QnrAInAnuazZ53qFFHfczMWEKCRvpgKvDVolH+pFdObcSlRumMx7pnfmNy1/bm7u/JUrKw8cODY+/vCOHelvglmech51w+G8CJiSjGiEOBghdjZunAYjC4nulrwGUowNl8VWp0ZID1gE7iSXNftcr5Dijpu5mBCF5M1U4LVBq+RDvYjOnFuJyg2Tec/0zvxmyhe3dO7Klcf27s35JhiwI3HZ/ULN1cQlW1m3IzWn0lcfIN6vNc4Y2fUVYEwHNIi8Vy2cbOreK9UO6PB2C8Kd5LJmn+sVUtxxM+8mopC8mQq8NmiVfKgX0ZlzK1G5YTLvmd6Z37wlo8E3wZjXQdGrmtpfL4uMSbLGNZO9uh2pOZXaANbACG5Mgxun3jfGjWn3pUHcPgaqfUtU80ppq2T7GpKx9uFOclmzz/UKKe64eXcT0UbeTAVeG7RKPtSL6My5lajcMJn3TO/Mb96SQdqIO8llzT7XK6S44/Ju6hbyZirw2qBV8qFeRGfOrUTlhsm8Z3pnfvOWDNJG3Ekua/a5XiHFHZd3U7eQN1OB1watkg/1IjpzbiUqN0zmPdM785u3ZJA24k5yWbPP9Qop7ri8m7qFvJkKvDZolXyoF9GZc0i0d/Ryce8AtEqZFBctSy/vpm6BVilBcVHqRXTmHBLtHb1c3DsArVImxUXL0pt3N03fvLlxeHhiZmZ+ft5WkVIpyirJf42RS9OWegPqrTa9o5dWqQPISbanuyR4/3aGzLtpanZ227FjJxYWvrd//6W7+JenSQEUdEvyrZIP9SI6cw6J9o5eWqUO4E5yWbPP+xcp7rjpu0l80vZjx15fWjq8tLRzYeFr+/ZdHB1t3S15323RCrXvv4i/qAy/ACP+powHkl+PIRT1DRm6yVv3Aq8NWiUf6kV05txKVG6YzHumd+Y3b8kgbcSd5LJmn+sVUtxxvbvJvE8Sn3R0aWnv0tLGpaWn5+dXDA1duBO3dMfAl4ctxy86wy8VS33BWK+Rt+4FXhu0Sj7Ui+jMuZWo3DCZ90zvzG/ekkHaiDvJZc0+1yukuON6d9P6oaETCwuHl5b2GJ/0ySer5+dXjo19c3BwYmLCtIndjH3BY75fXkxMf/RVq/FrobqhqX9LaxQQr2P3UpYnYZX6L0k/My6tEpC37gVeG7RKPtSL6My5lajcMJn3TO/Mb96SQdqIO8llzT7XK6S443p309SNG/9w8ODOhQXjk742N/fg1asrN20aGRkZGxszber/7mHkhexvzYy3EZyh8f5Nn6x/FrqGZ5XigaPWtEpA3roXeG3QKvlQL6Iz51aicsNk3jO9M795SwZpI+4klzX7XK+Q4o7r3U0LCwvvjo2tHhp6en5+9fy8+KQHNm40//70zMyMaQOWxf7zO2hiXNlzNslPHKGJyrBKtoZWCchb9wKvDVolH+pFdObcSlRumMx7pnfmN2/JIG3EneSyZp/rFVLccdN309zc3MXR0RVDQyvHxlZu2mR8Ev7702BZ7sQqJXcTpK1SXNfXT6tUJ2/dC7w2aJV8qBfRmXMrUblhMu+Z3pnfvCVj/ObNp/bv//2NG/wmmHDcSS5r9rleIcUdN/NuErd0YXT02zt3joyMnDlzBn2SULcs1iklbJArp34B571KArKskvn1Xv1zTbRKtEpIcVHqRXTm3EpUbpjMe6Z35jdT/rXZ2R8dPTq5uPjkwYMXgr8JJnRR7v5l3Z3ksmaf6xVS3HEz7yZB7qCJiYmrV6/OzMygTxLgV2nW/ODVXi/LXWCb1T54ZPf8D3bX6qNWiRunZsUiaJVolZDiotSL6My5lajcMJn3TO/Mb1q++KRnjh79KC7fWlz86vDw+btwS7AWhy7KqWUdP6iR+n/r+BkSt4eHicUMk6wOTK4l3Ekua/a5XiHFHTdzMWlMj1uWssibqcBrg9/W7UO91WBVjN0Bemd+vSXj/fh9kvFJhunFxZUHDpy7U7dUqFVyu7EvSrilqDF8l4zQoHunkJNsT3dJcL3qDLRK3UJBtyTfKvlQL6Iz51aicsNkrm69M7+e/O8MDU0mf0EgHBsfX71nj/smmNifGOwyn/Aucdk1kT2pib8nJsLamvoQ9RHy2/ivfhJPl6QTMnv4qwavgeDtdgB3ksuafa5XSHHHzVxMiELyZirw2qBV8qFeRGfOrUTlhsm8Z3pnfj354zduPPXyy7fALb01NfXwjh34TTB1xJLEvqZuPpwvAYNSf/FTszDpb4XJagOeqTaUIblbSyKi1hS9Urq79V8xyVBBuJNc1uxzvUKKO27mYkIUkjdTgdcGrZIP9SI6c24lKjdM5j3TO/PryV9YWLg4NrbqwIHp2C2JT3pocND7JpjIfFijYa1G3Ys4XwIGJR1NmJXY6GS0SdU4krtgleotwSs16d4J3Ekua/a5XiHFHTdzMSEKyZupwGuDVsmHehGdOYdEe0dvesmYm5s7f+XKygMHjo2PP7xjR8Y3waRcSN18OF8CBiUdrdfUaNQGhjIkdiEqReu+Ymx14+4dgVYpk+KiZendR7oHO2dJAq8NWiUf6kV05hwS7R29mf93JW7p3JUrj+3d2/ibYCJrEpfdd764mrhkK+vWpOZa0t8Kk9XGVtXHrFFvHL09wndKMKx7r1Qb0OHtdgBapUyKi5alVx7AJ0k3QKuUoLgo9SI6cw6J9o7evBfRDb4JJrIn5rVN7a+aRSYlWeOayV7dmjjX4joIcU1Gm9phvL/QJsC7Iwj4lqjmlfx679d/yVgx0CplUly0LL20St0CrVKC4qLUi+jMOSTaO3rzrBJpI7RKmRQXLUsvrVK3QKuUoLgo9SI6c24lKs+wTK/QO/ObKZ+0F3eSy5p9rldIccelVeoWaJUSFBelXkRnzq1EY6dEq0SKxZ3ksmaf6xVS3HFplbqFoqySXHmEVI9HYuxOT0Kr1AHkJNvTTSpNuFU6Px5dMOPn7S5pkfXr169bt+748eN2vxkyU3bO2grfKvlQL6Iz51ai8gzL9Aq9M7+Z8kl7cSe5rNnneoUUd9y0VTLWx3Lrsq3Nh1bp7njmmWf6+voeffTR7du326qGFPVWyfxh9jPhrYjozDkkWlW9sVPqaaskSwbpAOZslzX7XK+Q4o4rE20fxcid2B9apbvDWCXD6tWrd+/ebQM5uFvSI/DaoFXyoV5EZ86tRGmVshd30lZolTIpLlqW3uZWyZTdKLcuvwFNHNYqYW3c0vaOO71xOR7j1uV0s6yuFQetknD//fd/97vf/dnPfmbDKWiVEhQXpV5EZ86tRGmVaJU6AK1SJsVFy9LbslWq+56oGhrUi7EVsi4nrjXlWrH2Z1Yz46JsZW/gWSXDypUrDxw4YFskoVVKUFyUehGdObcSpVWiVeoAtEqZFBctS2+rVinpijLj9qURYlrUI9F+ZjOs7BHDxLdKSqPUi+jMuZUorRKtUgegVcqkuGhZettulbKMjmkiRD1ym7lWghm60vCzSkqj1IvozLmVKK0SrVIHoFXKpLhoWXrvziqh3anHrdfxbU5cLZXxn9Inp5nFDJ0TrBLGKvFvwOVSVpR6EZ05txKlVQq3SvXFvWe4iy9xiU92abPP9Qop7rjpu8k6GYP7CHZ8t0ARf2MWYe+mZPWty+fMvonaoIzpN7OfVbJkvZiqHgMDA3JX3sUt6RF4bdAq+VAvojPnVqK0Ss0X92b0oFW66/+FLWv2uV4hxR03fTcRnRRlleS/xsilaUu9AfVWm97Rm72434n96VmrZGjxgxH2dJcE79/OQKvULRR0S/Ktkg/1IjpzDon2jt7mVsmUXf/a+3xT7bBWCWvjlrZ33Kn+K4NUs6yuernrv27T+fk18P5FijsurVK34G5Jj8Brg1bJh3oRnTmHRHtHb8tWqe57ompoUC/GVsi6nLjWlGvF2p9ZzYyLspXq8aySoZUvcSlr9nn/IsUdl1apW6BVSlBclHoRnTmHRHtHb6tWKemKMuOJD5MaTIt6JNrPbIaV+g0T3yo5dEbL0kur1C3QKiUoLkq9iM6cW4nyY91tt0pZRsc0EaIeuc1cK8EMrZW7+KySkVXW7HO9Qoo7Lq1St0CrlKC4KPUiOnNuJUqrdHdWCe1OPW69jm9z4mqpjP+UPjnNLGbonKASjFXi34ATdEbL0isTTboFO2dJAq8NWiUf6kV05txKlFZJlgz7PK9hnYyB3wSTxV1/iUtZs8/1CinuuC/t3rP+8Ntrj7zDTfO2/vB5mSk7Z0kCrw1aJR/qRXTm3EqUViltlUjboVXKpLhoWXq3/+TFzYdOeQ9mbtq2zYfeeP7FQTtnSQKvDVolH+pFdObcSpRWiVapA9AqZVJctCy9a9euGxw+4j2YuWnbdgwfHhgYsHOWJPDaoFXyoV5EZ86tRGmVaJU6AK1SJsVFy9L73nvvvbR7z4aRs96zmZuebcMrZ2WOJiYm7JwlCbw2+G3dPtRbDVbF2B2gd+aXVqkDyEm2p7skuF51jIGBgV179z97+Lz3hOamYZN5kdnZsGGDna12w7dKPtSL6My5lSjfKtEqdQC+VcqkuGi5egc2bJDn8Ua+W1K2bXjlrMzL2nXrzGRlEjj7tEo+1IvozLmVKK0SrVIHoFXKpLho6Xq3bn1u1+49g8OHt7xyKn7DdNF7bHPr1HZRzv/mQ2/IXMiMPPfcc4XOPq2SD/UiOnNuJUqrJE9x0gHM2S5r9rleIZ3J6vr16wMDA8//ZFCe0PYiIGUg5//5FwdlLsznkwqdfVolH+pFdObcSpRWid8EU/SGX+JS1uxzvUJ05hwSLU7vqlWrMldIQ3sV4WrcuK/a+aVV8qFeRGfOrUTx5kR6Z37l/7f4TTCFbvglLmXNPtcrRGfOIdHi9NIqIU2jtEo+1IvozDkk2jt6BwY28JtgCt3wS1zKmn3ev4jOnEOixentpFVCGkfVzi+tkg/1IjpzDon2jt7r16/zm2CK27wvcSlr9nn/IjpzDokWp5dWCWkapVXyoV5EZ84h0Z7Su3XrVn4TTBGb+RKX5557zp7o8maf9y+iM+dWol+vcV+M3fn619uu14779a+LVbKlGBuuEa5IsEMnkeOaaCZq55dWyYd6EZ05h0R7Te+Pf/xjfhNMezfzJS7ev59Q1vzy/kV05txK1PoIWiWt88tv6/ah3mogN6Rgd4AenN8NGzbwm2CCt8SXuBT3pcB3CteriuEtXNXQ64lqgFq9fKvkQ72IzpxbicZ/5aKn/wacwejlN8GE432Ji0e585tHWVkVF628Xm/hqoZeFNW4r1q9tEo+1IvozLmVKN6cCOcX0ZlzSJR6EZ05h0Srqtf+dqqDv4D78z//czyQDdcIVyTYoZOiVvGzSmm6MUq9iM6cW4nSKhmoF9GZc0iUehGdObcSNTZCQFchtF2vHZdWKUnTKK2SD/UiOnNuJUqrZKBeRGfOIVHqRXTmfEdRb+EqTq9YlswV0tBGRQKKatxX7fzSKvlQL6Iz51aieHMinF9EZ84hUepFdOYcEq28Xm/hKk4vrRLSNEqr5EO9iM6cW4nizYlwfhGdOYdEqRfRmXNItPJ6vYWrOL20SkjTKK2SD/UiOnNuJYo3J8L5RXTmHBKlXkRnziHRyuv1Fq7i9NIqIU2jtEo+1IvozLmVKN6cCOcX0ZlzSJR6EZ05h0Qrr9dbuIrTS6uENI3SKvlQL6Iz51aieHMinF9EZ84hUepFdOYcEq28Xm/hKk4vrRLSNMpv6/ah3mogC4FgdwDOb7Wh3mpDve0ib4UsgtaPpXZ++VbJh3oRnTm3EsX/j0E4v4jOnEOi1IvozDkkSr1IyMjiXTJXSEN7FeFq3Liv2vmlVfKhXkRnziFR6kV05hwSpV5EZ84hUepFQkbupFVCGkfVzi+tkg/1IjpzDolSL6Iz55Ao9SI6cw6JUi8SMjKtEtI0SqvkQ72IzpxDotSL6Mw5JEq9iM6cQ6KV1xv/qqruYDi/SIk50yr5UC+iM+eQKPUiOnMOiVIvojPnkGjl9dIq2VIWJeZMq+RDvYjOnFuJeiuOg/OL6Mw5JEq9iM6cQ6KV1+stXNXQi6Ia91Wrl1bJh3oRnTm3EsWbE+H8IjpzDolSL6Iz55Bo5fV6C1c19KKoxn3V6qVV8qFeRGfOrUTx5kQ4v4jOnEOi1IvozDkkWnm93sJVnF5+WQDSNEqr5EO9iM6cW4nizYlwfhGdOYdEqRfRmXNItPJ6vYWrOL20SkjTKL+t24d6q4EsBILdATi/1YZ6q03l9XoLV3F6vQMVSuvHUju/fKvkQ72IzpxbieL/xyCcX0RnziFR6kV05hwSrbxeb+EqTq94l8wV0tBGRQKKatxX7fzSKvlQL6Iz51aieHMinF9EZ84hUepFdOYcEq28Xm/hKk4vrRLSNEqr5EO9iM6cW4nizYlwfhGdOYdEqRfRmXNItPJ6vYWrOL20SkjTKK2SD/UiOnNuJYo3J8L5RXTmHBKlXkRnziHRyuv1Fq7i9NIqIU2jtEo+1IvozLmVKN6cCOcX0ZlzSJR6EZ05h0Qrr9dbuIrTS6uENI3SKvlQL6Iz51aieHMinF9EZ84hUepFdOYcEqVeJGRkWiWkaZRWyYd6EZ05txLFmxPh/CI6cw6JUi+iM+eQKPUiISPTKiFNo7RKPtSL6Mw5JEq9iM6cQ6LUi+jMOSRKvUjIyJ20SkjjqNr5pVXyoV5EZ84hUepFdOYcEqVeRGfOIVHqRUJGplVCmkb5bd0+1FttqLfaUG+1qbxecTCC3eH8qoFvlXyoF9GZc0iUehGdOYdEqRfRmXNItPJ640/11F/2cH6REnOmVfKhXkRnzq1EvRXHwflFdOYcEqVeRGfOIdHK6/UWrmroRVGN+6rVS6vkQ72IzpxbieLNiXB+EZ05h0SpF9GZc0i08nq9hasaelFU475q9dIq+VAvojPnVqJ4cyKcX0RnziFR6kV05hwSrbxeb+EqTm8nP9aNohr3VTu/tEo+1IvozLmVKN6cCOcX0ZlzSJR6EZ05h0Qrr9dbuIrTS6uENI3SKvlQL6Iz51aieHMinF9EZ84hUepFdOYcEq28Xm/hKk4vrRLSNEqr5EO9iM6cW4nizYlwfhGdOYdEqRfRmXNItPJ6vYWrOL20SkjTKK2SD/UiOnNuJYo3J8L5RXTmHBKlXkRnziHRyuv1Fq7i9NIqIU2jtEo+1IvozLmVKN6cCOcX0ZlzSJR6EZ05h0Qrr9dbuIrTS6uENI3y27p9qLcayEIg2B2A81ttqLfaVF6vt3AVp9c7UKG0fiy188u3Sj7Ui+jMuZUo/n8MwvlFdOYcEqVeRGfOIdHK6/UWruL0infJXCENbVQkoKjGfdXOL62SD/UiOnNuJYo3J8L5RXTmHBKlXkRnziFR6kVCRqZVQppGaZV8qBfRmXMrUbw5Ec4vojPnkCj1IjpzDolSLxIyMq0S0jRKq+RDvYjOnEOi1IvozDkkSr2IzpxDotSLhIzcSauENI6qnV9aJR/qRXTmHBKlXkRnziFR6kV05hwSpV4kZGRaJaRplFbJh3oRnTmHRKkX0ZlzSJR6EZ05h0Qrrzf+VVXdwXB+kRJzplXyoV5EZ84hUepFdOYcEqVeRGfOIdHK66VVsqUsSsyZVsmHehGdObcS9VYcB+cX0ZlzSJR6EZ05h0Qrr9dbuKqhF0U17qtWL62SD/UiOnNuJYo3J8L5RXTmHBKlXkRnziHRyuv1Fq5q6EVRjfuq1btMMiOkejwSY3cIIaQb6NjC1bEDCZ08VkHwrZIP9SI6c24liv8fg3B+EZ05h0SpF9GZc0i08nq9has4vfxeJaRplFbJh3oRnTm3EsWbE+H8IjpzDolSL6Iz55Bo5fV6C1dxemmVkKZRWiUf6kV05txKFG9OhPOL6Mw5JEq9iM6cQ6KV1+stXMXppVVCmkZplXyoF9GZcytRvDkRzi+iM+eQKPUiOnMOiVZer7dwFaeXVglpGqVV8qFeRGfOrUTx5kQ4v4jOnEOi1IvozDkkWnm93sJVnF5aJaRplFbJh3oRnTm3EsWbE+H8IjpzDolSL6Iz55Bo5fV6C1dxemmVkKZRWiUf6kV05txKFG9OhPOL6Mw5JEq9iM6cQ6KV1+stXMXppVVCmkZplXyoF9GZcytRvDkRzi+iM+eQKPUiOnMOiVIvEjIyrRLSNEqr5EO9iM6cW4nizYlwfhGdOYdEqRfRmXNIlHqRkJFplZCm0WXyX2MkdVvqDai32lBvtaHeakO97UKskmB31KB2fvlWyYd6EZ05h0SpF9GZc0iUehGdOYdEqRcJGbmTb5WQxlG180ur5EO9iM6cQ6LUi+jMOSRKvYjOnEOildeLv6sSOL9IiTnTKvlQL6Iz55Ao9SI6cw6JUi+iM+eQaOX10irZUhYl5kyr5EO9iM6cW4l6K46D84vozDkkSr2IzpxDopXX6y1c1dCLohr3VauXVsmHehGdObcSxZsT4fwiOnMOiVIvojPnkGjl9XoLVzX0oqjGfdXqpVXyoV5EZ86tRPHmRDi/iM6cQ6LUi+jMOSRaeb3ewlWc3k5+rBtFNe6rdn5plXyoF9GZcytRvDkRzi+iM+eQKPUiOnMOiVZer7dwFaeXVglpGqVV8qFeRGfOrUTx5kQ4v4jOnEOi1IvozDkkWnm93sJVnF5aJaRplFbJh3oRnTm3EsWbE+H8IjpzDolSL6Iz55Bo5fXKqnXfffeZ5UtAvbYKMHZHsC2SND6u9MUDIRJ1fW1VEndcg2lpkF0vKsiB3LEkapvGmErHI488YktZotp4nj2aRvlt3T7UWw3khhTsDsD5rTbUW216Qa9Zuwyo11al+OxnPys/baM7wXRPY8MxtqohtmmMrUoiGZokDbZpjK2qIVbJFO5aVEHwrZIP9SI6c24lmvf/JZxfRGfOIVHqRXTmHBKlXsT0zVvryso5HcUMG/d1erGLo5M5IxKlVfKhXkRnzq1EM+80gfOL6Mw5JEq9iM6cQ6LUi5i+eWtdWTmno5hh475OL3ZxdDJnRKK0Sj7Ui+jMuZVo5p0mcH4RnTmHRKkX0ZlzSJR6EZ05p6O4Gjfuq1YvrZIP9SI6c24lijcnwvlFdOYcEqVeRGfOIVHqRXTmnI7iaty4r1q9tEo+1IvozLmVKN6cCOcX0ZlzSJR6EZ05h0SpF9GZczqKq3Hjvmr10ir5UC+iM+eQKPUiOnMOiVIvojPnkCj1IjpzDomq1avOKo2Pj2/YsOGFF3fs2r13HwlGTuP2n7w4MLDh+vXr9hQn4a2I6Mw5JEq9iM6cQ6LUi+jMOSTail58Z4OUlXNI1OnNFFVizrqs0pYtW3ft3jM4fGTzoVPrD7+99sjFtUfe4RawXZTTKCdTTulLu/fI6bUnGuDSg+jMOSRKvYjOnEOi1IvozDkk2oreTFchlJVzSNTpzRRVYs6KrNL6gQ279u3fMPJm6nnPrQ3bhpGzu/buH9iwwZ7uGlx6EJ05h0SpF9GZc0iUehGdOYdEW9Gb6SqEsnIOiTq9maJKzFnLt3UPDAy8tHfo2ehNkv+M59au7dnD5yO3NDBgT3pMZ+a385ivfLU7QFX15kG91YZ6q00revPWOj20nqHT23qXzqDirdL4+Piu3Xv4PqkD28aRs3Kq8XNLHZjfTIqOZv5PiVBVvXlQL6Iz55Ao9SI6cw6JtqI3b60rK+d0FDNs3NfpxS6OTuaMSFSFVdqwYcPg8BHvoX7vZ8813f79f7r05LZDPxw+7fXl1mAbHD48MDBgzrxQ1aUn804TuNQiOnMOiVIvojPnkCj1IqZv3lpXVs7pKGbYuK/Ti10cncwZkagKq/TCizs2HzrlPdH/8/94/28ffP+/PnQt2h6MN1OIf/6Xle9Lg/sfH/+bB78ubsnry63BtuWVUy+8OGjOvFDVpSfzThO41CI6cw6JUi+iM+eQKPUipm/eWldWzukoZti4r9OLXRydzBmRqAqrtGv3nvWHz3tP9D3nFkz0k6U/zi/+8Q8Lf/xwbunWx0szHy1NfLB07eYnV6Y/2fTaB//uP/631ev3eH25NdiiTyzt3mPOrVDVpSfzThO41CI6cw6JUi+iM+eQKPUipm/eWldWzukoZti4r9OLXRydzBmRqAqrtG/fvvT3Aux9a/7Whwtvjd78zbuzZ0dvjU18/IuLN46fmzn/u49Hzs4MvzH9zvjCwNEbeqzSk9sOLVu27FN/dg9WPvD0gFR+9nOfx8q2b/17fv7NH2/L3CTkNZZTLSfcnHmhqktP5p0mcKlFdOYcEqVeRGfOIVHqRUzfvLWurJzTUcywcV+nF7s4OpkzIlE9Vsl7nL+z+825G7fnf/3OjZNvTf3ywo133v/oyNnpg6emfjP64d7Xp3ae+P0bo7f+8dD1cq2SeCBxQuKHpFyiVfrHV87//UOP9KX4+wcffubQOa+xbLRKeZSbcx4hUepFdOYcEqVeRGfOIdFW9OatdWXlnI5iho37Or3YxdHJnBGJ6rVKL53+aOrW/M/PTx8+PXn8zcm3rn548I2pPb8Y/8Wl2ztOTjx/ZOzkhZkfHfgdrZLZvrPhJeuPgO9s3OU1MxutUh7l5pxHSJR6EZ05h0SpF9GZc0i0Fb15a11ZOaejmGHjvk4vdnF0MmdEonqt0o43bl+fnTvx1vShU5NHzkyeHv1w6PXJn54cP37h9gvHJ7aOjB09N9O/byzTKnmuRQqya8rG3BiMgzGNDabG+RtTMB3T218/sDruZHEHNYcTpEHHrNLawxcf+urj1iLFPPQ/H5NKv1m80SrlUW7OeYREqRfRmXNIlHoRnTmHRFvRm7fWlZVzOooZNu7r9GIXRydzRiSq1yq9+MvZazNzR9+cPvjryVd+M/H65du7fzH54vHxI+c/eO7ViY2HxkbenPnBrvfuyCoZcyM/TRtxMKalsTIuavyNczxmkMxNOkoDaS9lZ7mkILum+9/+v9+Rn52wSkfeWfPiiHVJMWt+8orXwG20SnmUm3MeIVHqRXTmHBKlXkRnziHRaujF1bhxX7V6VXxbd6ZVeuG1qbHJuVdOT+/75fiB18d//s7twZOT21+99rOzNzeNjD978MrB09Nrdly8I6tknI2rdzXG67g3QM4quWZ5W9oquV7GeH32//kbM6apLHr7yrf+t/FJX3lyjRfCTU64PfXV/fbbvC97rarePKi32lBvtamG3rzVOI1avXrfKj139Pq71+f2/er6T4+N7Tpx9fDZqW2Hf7fp5dHdv7y+7uDYj/e9u++NqadfOH9HVsm9+DGImzFeB5HGzjOZ7g02bVbph/t+df+K/37/ihX9e3/phXDjW6U8ys05j5Ao9SI6cw6JUi+iM+eQaDX04mrcuK9avXqt0qaRaxfe/+jlN67tPTm697VRKfzk1bFtI5d3nvjthpdHnz14effrU09te/NOP6tkNmNxpB69jtu61yrJ9tj31z32g2e9Sm/rBauUB/UiOnMOiVIvojPnkCj1IjpzDomq1avXKq0/OPbexB/Ojt361cXp196eOn5+5vBbMy+fnhz+zdS+U9O7fz2959St7249k2mVZBODInhlsSxiaKRgbI3ZlYLzN7Irla1bJeOH5KeUvaGkLLQ+VLu2H/3srGxepbfRKuWhM+eQKPUiOnMOiVIvojPnkGgrevGdDVJWziFRpzdTVIk567VKTz1/4f/svtT/0ws/GDz//RfPfe+Fc2uef+t/bT/79LYzT209KyZJtsfX/irPKhkTY3BvlcSymBoB7ZGtirkjqySbGVzwxhGkpvNWqZWNVikPnTmHRKkX0ZlzSJR6EZ05h0Rb0ZvpKoSycg6JOr2ZokrMWa9VEp/xNw9+XZxQ443/BtxdbLRKeejMOSRKvYjOnEOi1IvozDkk2oreTFchlJVzSNTpzRRVYs56rdIPh0+LB1q9fk/jTdpIS69vGzcZ37wiSuO17KKtF6xS5p0mcKlFdOYcEqVeRGfOIVHqRUzfvLWurJzTUcywcV+nF7s4OpkzIlG9VolbcRutUh7l5pxHSJR6EZ05h0SpF9GZc0i0Fb15a10RWZljrVq1yhRsbYypEVzUcd9998lP06xFvaajKTuKUGRoGqVV6sWNVimPcnPOIyRKvYjOnEOi1IvozDkk2orevLWu7VnJUYzpuVOrJNhGLev1ehnarsjRNEqr1IsbrVIe5eacR0iUehGdOYdEqRfRmXNItBW9eWtd27NyB2r7yA6n1x0LKe64TaN6v62bW3GbnHB76qv77bfyfzaC3QGqqjcP6q021FttWtGbt9a1nQ4cyOntwLHuCC1vlUiHMWde6MD8ZlJ0NPN/SoSq6s2DehGdOYdEqRfRmXNItBW9eWtd27NyB2r7yA6n1x0LKe64TaMqrFL6jJBCwRNe1aUnvtEyrisutYjOnEOi1IvozDkkSr2I6Zu31rU9K3egto/scHrdsZDijts0SqvUi+AJr+rSE99oGdcVl1pEZ84hUepFdOYcEqVexPTNW+vanpU7UNtHdji97lhIccdtGqVV6kXwhFd16YlvtIzrikstojPnkCj1IjpzDolSL2L65q11bc/KHajtIzucXncspLjjNo3SKvUieMKruvTEN1rGdcWlFtGZc0iUehGdOYdEqRfRmXNIVK1e1Vbp9uijt9+7f3Hhw6WlJVtF2gGe8KreirFTolWi3gQ6cw6JUi+iM+eQKPUiJeas1yrdvviX8+8un7uy/MM3/uXM5KWFhQUbIMHgCa/qrRg7JVol6k2gM+eQKPUiOnMOiVIvUmLOSq3Sx79ftzhz//z7fzV/re+Ts//66i/+w/T0dNvfLS1fvtyWdCN59vX12Z2GLFu27NKlS3YnHzzhvBURnTmHRKkX0ZlzSJR6EZ05h0SpFykxZ6VW6Q/Xty5Mff6T8b/65NK/+eTUn14c+fPLly8vLi7acDDGJHlWSUwG1kgZbYfsuqj553IN2GZ4eNjWLltmzI3rIqTHx13bLQbH7O/vdz7JhmNMG7uzLJpHQRLAMfOgVcpDZ84hUepFdOYcEqVeRGfOIdFW9Mp6nn6GCm3Pyh2o7SM7nF53LKS44zaNqvi27vQZEWbPfWZh7N8u/uZPZ1/7FzsH14+OjrbRKhnSrkJqjAXxbI3ZdVEXkl1nU8TTuLLQ2Cp5AwoYwnGk7NpgvSCHEG8kBbRTMo6pbICccHvq+e23VYd6qw31VptW9Hbsi607cCCntwPHuiOiR6/8YZ6gmUjqtpRF474tRrOt0tjaxd/9xQfH/9mJXZ87ceLEzMwM/gLO+AmDcRKx8Vguu+bNiimYxsbEGFxj9xORloIUpK8pGEy92BFTiR1lTFOQSudpHNhSom7XG1DIHNNoMWXB1RvcbnpkU84DT7jM79djzC6WhbbMbyZlRTtwPWdSVpR6EZ05h0SpF9GZc0i0Fb2ynmc+Q9uelTtQ20d2OL3uWEhxx20a1WuVPvr9xsX3/2L2+D/fv3//b3/7W+9j3WmXIDVSFm/hCmgyDFKJL3saNJCfUjaVgrTEMV1HPIrnYwxSibjG3oCmxhSw0vM9dpRly0ylFEy94MrS3UhoAJ5wmV+0R1gW2jK/mRQdjW+0jOuKSy2iM+eQKPUiOnMOiVIvYvrmrXVtz8odqO0jO5xedyykuOM2jeq1Sh+PbxKrdOvYP3nt5NHZ2VlbWyM2DHWkxtgL55xcwZRtu5pZwZ8e0kZ+YgiHkmh6NEPmaJnjpAc0BQN28aySQ5qZNOx+LW0BB88DT7jML9ojLAttmd9Mio7GN1rGdcWlFtGZc0iUehGdOYdEqRcxffPWurZn5Q7U9pEdTq87FlLccZtGtVulm8f/6cmTJ9NWKe0GPBeSaUdcJf70MO+T8MWMmBUZwSG77hCya9oIUjZHQfAQ7ujpAaUyc0wJmaiHNMaWbmThTt8qPfLII/fFxFfmN7AsrFq1Sn7apjGm3mCiaUxLM7+2KgX2Ne0NpiZvZANeV7YKMH2NCtsI4FKL6Mw5JEq9iM6cQ6LUi5i+8bKXsda1PSt3oLaP7HB63bGQ4o7bNKrXKgkfnPv02Im/PHXq1AcffGCraohLEE9gd2Kc1fAKgiuI7TBl/Okhw3qDSzO3KwXZdR1NY1OWwdHlGL/iWgouJfnpDWgqXY0bx0VNWZCCM0nG1UlBDu3sUeStstwVgie8qlZJsC2ScKlFdOYcEqVeRGfOIVHqRUzfvOWu7Vm5A7V9ZIfT646FFHfcplHVVml2dva99967du3a3Nycraph7IIBrUamVRIbYVpKARu7Bh7S0paS4xgkes8999idmkOSZq5syLNKmQN6lTimK8jPaNwY45BM1GB2BRnHRfPAEy7zi790w7LQlvnNpKwol1pEZ84hUepFdOYcEqVexPSNTQWtUrFR1VaJCGKb3BujpohJ8nxYJnjCZX7RHmFZaMv8ZlJWlEstojPnkCj1IjpzDolSL2L6xqaCVqnYKK1SFyDup0W3tCzr81Jp8ITL/KI9wrLQlvnNpKwol1pEZ84hUepFdOYcEqVexPSNTQWtUrFRWqVeBE84lx5EZ84hUepFdOYcEqVeRGfOIdFW9Mamglap2Kjeb+smxSEn3J56fvtt1aHeakO91aYVvati7E6RdOBATm8HjnVH8K1SL4InvAPzm0lZUepFdOYcEqVeRGfOIVHqRXTmHBJVq5dWqRehVcpDZ84hUepFdOYcEqVeRGfOIVHqRUrMmVapF6FVykNnziFR6kV05hwSpV5EZ84hUepFSsyZVqkXoVXKQ2fOIVHqRXTmHBKlXkRnziFR6kVKzJlWqRehVcpDZ84hUepFdOYcEqVeRGfOIdFW9Mp6nvkMbXtW7kBtH9nh9LpjIcUdt2mUVqkXwRPOpQfRmXNIlHoRnTmHRKkX0ZlzSLQVvbGpoFUqNkqr1IvgCefSg+jMOSRKvYjOnEOi1IvozDkk2ore2FTQKhUbpVXqRfCEc+lBdOYcEqVeRGfOIVHqRXTmHBJtRW9sKmiVio2qtkrTN29uHB6emJmZn5+3VaQd4Ann0oPozDkkSr2IzpxDotSL6Mw5JNqK3thU0CoVG10mmZVO+owIU7Oz244dO7Gw8L39+y9duTI3N2cDd82l/uXL+5v/A2klI1kuW9Y3bPcasmzZXeqRE25PPSGEkG7mkRi7UyQdO5DQyWO1gtK3SuKTth879vrS0uGlpZ0LC1/bt+/i6GioW0pbpUQN7sR+BRrLXo3kEMN9tlroG06M7x8uMWbegFEj45Pi5oZaC3ewmpOSikTvVsET3oH5zaSsKPUiOnMOiVIvojPnkCj1IqavrOfpZ6jQ9qzcgdo+ssPpdcdCijtu06hGq2TeJ4lPOrq0tHdpaePS0tPz8yuGhi4EuiXfuwhQhdGo3NcHrROhmlOJivD+Z7gvaVxwQCE5ZuaACe8jwyUNkfxharwU6hm0DJ5wLj2IzpxDotSL6Mw5JEq9iM6cQ6Kt6I1NBa1SsVGNVmn90NCJhYXDS0t7jE/65JPV8/Mrx8a+OTg4MTFh2sS2I/GOxZqPunmQUlyIamo4g1JDgrZuuM8FTSW+sqk7m7pj+WPSCkUkKupDR3hjZg5YM0UedqB6Mxg5eZBWwRPOpQfRmXNIlHoRnTmHRKkX0ZlzSLQVvbGpoFUqNqryrdKNG/9w8ODOhQXjk742N/fg1asrN20aGRkZGxszbZY7TyH2IvYQxkmIdegTIk9hvY8NC5m2omZUwLDU2oFxqXfEStejBvxaLaZ+OH/MzAGzfU+ttp4gJgvF1sETzqUH0ZlzSJR6EZ05h0SpF9GZc0g0T29sJL6xatUq+XlfjKkxmDZtycqOGOMOZI4rmDYed31cGfCRRx4xI7tjOaRBWxRl0jSq0SotLCy8Oza2emjo6fn51fPz4pMe2LhxaGjo9OnTMzMzpg14Cus1jDOKfm0l3kLcg/mJLbOdiPEatdZCvVndxWS+l0qPlqjBw6XGzBwwK8F6DtlWKatPU/CEc+lBdOYcEqVeRGfOIVHqRXTmHBLN0xubB1qlBIVGlX6se25u7uLo6IqhoZVjYys3bTI+aXp6enFx0TQAf2DNhHiGvmHjl2zRuIksv5Ig6jOccErWxMSYHrZjFHN+RbyLP1xifDhceszMAaGHoe6ThGx7BK6pdfCEc+lBdOYcEqVeRGfOIVHqRXTmHBJtRe+KGFODtD0rd6C2j+xwet2xkOKO2zSq1CoJ4pYujI5+e+fOkZGRM2fOoE8SEl6hZjv6ljsHEv0WzrRwbiOyJa4XIiPUP56dNC+1wROHq8Wjpom2Se9UNzQZY/5J1oDucBGpdCVo2uFw9YPcCbRKeejMOSRKvYjOnEOi1IvozDkk2oreT8eYGqTtWbkDtX1kh9PrjoUUd9ymUb1WSRC3NDExcfXq1ZmZGfRJArylcSYEjAZ6jsiLRCT/ThviTEjaetiBsDJyKrXR43KNvC8LyBpz2Z9kDljPOzGyDdeU1CVHrdxO69Aq5aEz55Ao9SI6cw6JUi+iM+eQaFO9g4ODn4mRgq2t0d6s8EDtHRkxevNEFXfcplHVVqkBSfNRHe7M+9Sd1Z1Bq5SHzpxDotSL6Mw5JEq9iM6cQ6JN9Ro/YbyFra3R3qzwQO0dGTF680QVd9ym0WXyX2MkdVsqDFolIH6d1Jpbci+37hQ54fbUd2R+VUG91YZ6qw31Ilu2bLn33ntNWQqya8ptp2MHEr0dO9Yd0a1vlUgIfKuUh86cQ6LUi+jMOSRKvYjOnEOijfWKkxgcHJT1XCj0HYx5zeMOJMe1gSwC9XrHQlFtVOTRNEqr1IvgCefSg+jMOSRKvYjOnEOi1IvozDkk2kCvsyyxqYiWdGMy4mBEu7JyfsUdyFi0OJhByHHXrVvnHQtFtUtRmqZRWqVeBE84lx5EZ84hUepFdOYcEqVeRGfOIdEGesVDbNmyRQqxqYiWdOdpDO3KypkVdyA5Lh7II+S499xzj3csFNUuRWmaRmmVehE84Vx6EJ05h0SpF9GZc0iUehGdOYdE8/QaA2H6xqbCLunO1ghtyQqdijuQRPFAHnd9XBlQrJIpu2MJ7lh3PbIQGKVV6kXwhHPpQXTmHBKlXkRnziFR6kV05hwSzdNr3IPpG5sKu6Sjs2lLVmiJ3IEkigfyuOvjyoDr1q0zZXcswR3rrkcWAqO0Sr0InnAuPYjOnEOi1IvozDkkSr2IzpxDopl6PesQm4r6ku7MTXhWnh9yBzJRdyCPuzuuOZbT645lMMe6u5ENgVFapV4ETziXHkRnziFR6kV05hwSpV5EZ84SHR8f37Bhwwsv7ti1e+8+Uh5y/p9/cXBgYMP169ft9MQ0nUFapV6EVikPnTmHRKkX0ZlzSJR6EZ05DwwM7Nq9Z3D4yOZDp9YffnvtkYtrj7zDrYztopx/mQWZi5d279myZaudoRbml1apF/Gs0tdjzC6WhbbMbyZlRfloQXTmHBKlXkRnziHRrtO7fmDDrn37N4y8mXpscytz2zBydtfe/QMbNphpajq/3fpt3SQEOeH21MfzuyrG7GK5knTgelYF9VYb6tXMwMDAS3uHno3eJPmPam6lb88ePh+5pYEBO1sNUf1WafrmzY3DwxMzM/Pz87aKtAO+VcpDZ84hUepFdOYcEqVeRFXO4+Pju3bv4fskzdvGkbMyR9evX286v3qt0tTs7LZjx04sLHxv//5LV67Mzc3ZQC/S5n8YTk6445FHHrkvxuyiVZLdVatWmfpMJGpaGmxtjcy+tmk8+7YqC9fXto4xNUKDrKQZXldpRK8txZiWBtmlXkSVXtsI9GZC64DozDkk2kV6N2zYMDh8xHs23/vZc023f/+fLj257dAPh097fbkVsQ0OHzYvluy0ZSFRpVZJfNL2Y8deX1o6vLS0c2Hha/v2XRwd7YRbEk9SdxqJHetXoEL2akDtcJ+tE2Jz44+RGL+FAU0745PiHoZaC3e8mpOSikTvDMyzx0Cr5JBd6kX06DXXp2nm9GZC64DozDkk2kV6X3hxx+ZDp7wH83/+H+//7YPv/9eHrkXbg/FmCvHP/7LyfWlw/+Pjf/Pg18UteX25FbFteeXUCy82/xoCjVbJvE8Sn3R0aWnv0tLGpaWn5+dXDA1d6IRbAi+TsDVmt68PqurFmpeJnUz95c9wX1RODQK9mg0YA97HjGhKcaX8YWqgR6JzJnjCZX7RHmFZaMv8ZlJWlI8WRGfO6Whkl2iVsqBeRFXOu3bvWX/4vPdg3nNuwUQ/Wfrj/OIf/7Dwxw/nlm59vDTz0dLEB0vXbn5yZfqTTa998O/+439bvX6P15dbEVv0iaXde5rOr0artH5o6MTCwuGlpT3GJ33yyer5+ZVjY98cHJyYmDBtxFX0J1+nRAbBYo1FbESi/b5hG6wbiHrrulMxSMRWDfdhzNTjKxswOdaxgA+qk6irj97SgLaII1jsQPVmqZHjYjZ4wmV+0R5hWWjL/GZSVpSPFkRnziFR6kV05hwS7SK9+/btS38vwN635m99uPDW6M3fvDt7dvTW2MTHv7h44/i5mfO/+3jk7MzwG9PvjC8MHL1RvlXatvpT8nj8s9VPevVPfz56bH5uIFGpbOvf8/Nv/nhb5iYhr7HMkcxU0/lV+Vbpxo1/OHhw58KC8Ulfm5t78OrVlZs2jYyMjI2NmTb1tzdpJ1GzGctNQHZdodYy02FYat1rfxpq7WCQesdaZebbHOfgLLZXSwMK2b6nVgs5Qr5QzIRWKQ+dOYdEqRfRmXNIlHoRVTnHVsl7Kr+z+825G7fnf/3OjZNvTf3ywo133v/oyNnpg6emfjP64d7Xp3ae+P0bo7f+8dD1tlulBz4XPXw++7Rfj1uiTTdbpX985fzfP/RIX4q/f/DhZw6d8xrL1q1WaWFh4d2xsdVDQ0/Pz6+enxef9MDGjUNDQ6dPn56ZmTFt6vbBWQkpRHMYE9fU672Cb188W2GMhrSG+nrfuovxDhfV1ApIojIjmUYDCpC1o94l2ypl9UE8q2RLWbRlfjMpK0q9iM6cQ6LUi+jMOSTaRXozrdJLpz+aujX/8/PTh09PHn9z8q2rHx58Y2rPL8Z/cen2jpMTzx8ZO3lh5kcHfkerFLh9Z8NL1h8B39m4y2tmtm61SsLc3NzF0dEVQ0Mrx8ZWbtpkfNL09PTi4qJpULcCNVtg3yFhjalwvgEMhCtkEv3mbdh3StH1UcP0rg9b8yj1d0FA4li1HFocUKj1cNR9kpBtj8A1ZUKrlIfOnEOi1IvozDkkSr2IqpwzrdKON25fn5078db0oVOTR85Mnh79cOj1yZ+eHD9+4fYLxye2jowdPTfTv28s1yoZp2IQH2MMTY1PPVD7JLgzNFHh859/4J44bqmPBtuTXhtrlT7/2T8zFbXBu8QqrT188aGvPm4tUsxD//MxqfSbxVsXWyVB3NKF0dFv79w5MjJy5swZ9ElC3RbULIKriZwG1jgPAWaiL/UqKYFYjUSDaMj6bs2ruNHi9lE8apdoGJXrzQSbQ6sD2rKrj/rhcFHQtMMR7UHyoVXKQ2fOIdFq6JUr1l20jftyfhGdOYdEu0hvplV68Zez12bmjr45ffDXk6/8ZuL1y7d3/2LyxePjR85/8NyrExsPjY28OfODXe9lWyVjU+ybnoHPGqtkXcvAZ6PYPX+9DVveExupzz9w12+V7ICH/joyTHG5W6zSkXfWvDhiXVLMmp+84jVwW0tWSf5rjFyatlQY+ORGxC1NTExcvXp1ZmYGfZJQ9wI1XxC5ixj3t8psG2cc0EFEzqKGq6zjHEiMbz2secHKeLxoHwc2YyT6mqHuZEAXrVXWiWudbpdw1Aqyz0BOuD31/LbfqlMNvati7E5DOL/Vpov0ZlqlF16bGpuce+X09L5fjh94ffzn79wePDm5/dVrPzt7c9PI+LMHrxw8Pb1mx8VMq9TY7iSiCVOViuZsGVapNoJ55xS9WOoeqyTbV771v41P+sqTa7wQbsYqNUbvWyXiaO59kLqzygVPeAfmN5OyotSL6Mw5HZUr1l20jftyfhGdOYdEu0hvplV67uj1d6/P7fvV9Z8eG9t14urhs1PbDv9u08uju395fd3BsR/ve3ffG1NPv3C+datkKh0JqwSGpjet0g/3/er+Ff/9/hUr+vf+0gvh1tJbJfOH2c+kA5cmPrlJFvHrpNbcUuZbMg884VxqEZ05h0SroTd2SrRKGVAvoirnTKu0aeTahfc/evmNa3tPju59bVQKP3l1bNvI5Z0nfrvh5dFnD17e/frUU9vebNEqmRrzKaJElFaptj32/XWP/eBZr9LbaJVINnjCudQiOnMOiVZDb+yUaJUyoF5EVc6ZVmn9wbH3Jv5wduzWry5Ov/b21PHzM4ffmnn59OTwb6b2nZre/evpPadufXfrmRY+q3Torz+3+vN1c2M+TpRrlepep1aT3hJtElbJfBAq+sxT11mlH/3srGxepbfRKpFs8IRzqUV05hwSrYbe2CnRKmVAvYiqnDOt0lPPX/g/uy/1//TCDwbPf//Fc9974dya59/6X9vPPr3tzFNbz4pJku3xtb/KtkqyGadiEB9jP3wt3POphlbJeSkBKr0N2tRHNiQ/MN49VqmVjVaJZIMnnEstojPnkGg19MZOiVYpA+pFVOWcaZWe3Hbobx78ujihxhv/DbhObrRKJBs84VxqEZ05h0SroTd2SrRKGVAvoirnTKv0w+HT4oFWr9/TeJM20tLr257Nf13kuMdv2TMbrRLJBk84l1pEZ84h0WrojZ0SrVIG1IuoyjnTKnFTuNEqkWzwhHOpRXTmHBKtht7YKdEqZUC9iKqcaZW6ZaNVItngCedSi+jMOSRaDb2xU6JVyoB6EVU50yp1y9aSVZL/GiOXpi0VBj65SQeQE25PPb/tt+pUQy+/rTsP6lULrVK3bMYqNYZvlXoRPOEdmN9MyopSL6Iz55Ao9SI6cw6JdpFeeQCTbqHp/NIq9SK0SnnozDkkSr2IzpxDotSLqMqZz7VuQWaq6fyqtkrjN28+tX//72/cmJ+ft1WkHdAq5aEz55Ao9SI6cw6JUi+iKmdapW6hu63StdnZHx09Orm4+OTBgxeuXJmbm7OBZly6dGn58uV2JyZdox9JuK+vz+7cIcuWLRPJdicLWqU8dOYcEqVeRGfOIVHqRVTlTKvULXSxVRKf9MzRox/F5VuLi18dHj7fslu6I6vkhaSMJkN2XdR8S5cB2wwPD9vaZcuMuXFdhPT4uGu7xeCY/f39nk/K7GX3UzWSErZPQ6uUh86cQ6LV0CtXrLtoG/fl/CI6cw6JdpFeXGaJZmSmms6vRqv0fvw+yfgkw/Ti4soDB8615pY8dyKkaxAJGZviNTO7LupCsutMiXgaVxYaWyVvQAFDOI6UXRtzCNdSDiFOyNSbw6VrBGlvKjPBE86lFtGZc0i0GnrlinUXbeO+nF9EZ84h0S7Si8sscnv00dvv3b+48OHS0pKtIqUiM9V0fjVape8MDU0uLtqdGsfGx1fv2TMxMWF2jYEwGFdh3IbBGIt0jfwUMyG70RA1ZChBCuItTMFg6qW9qXRmRXAjSKXzNA5sKVG36w0oZI6ZfieEg7hmrjJdI5hjmXIaPOFcahGdOYdEq6FXrlh30Tbuy/lFdOYcEu0ivbjMOm5f/Mv5d5fPXVn+4Rv/cmby0sLCgg2Q8pCZajq/0VO2caMOXJreJTV+48ZTL798C9zSW1NTD+/YMTIyMjY2ZqtqiLEwr1LEMZj3KOgh8moQN4L8xKh0kY5SY/o6F+JqBGdTEKlEXGNvQFNjCliZdjnogWRAUxBMOV0jyIBGVCZ4wrnUIjpzDolWQ69cse6ibdyX84vozDkk2kV6cZk1fPz7dYsz98+//1fz1/o+Ofuvr/7iP0xPT9/xu6VL/cuX9/v/g04CkJlqOr/Rk7Vxow5cmt4lJUb74tjYqgMHpmO3JD7pocHBoaGh06dPz8zMmDbiHsQWGIyNcGbCGYsGNR4yiPzEqOdO0oczZA6YOU56QFMwYJe2WCXskgZPOJdaRGfOIdFq6JUr1l20jftyfhGdOYdEu0gvLrOGP1zfujD1+U/G/+qTS//mk1N/enHkzy9fvrwILwVa8kB3bpWWy4Mhos+8CZDd+gDxaA/UWjh6yozJTDWdX6Xf1j03N3f+ypWVBw4cGx9/eMcO45PEgLurSubSuA3nCZwzaKXGw7xPwtcwYlbMFWOQXdNXhpJd00aQskkDwaO4Q6cHlMrMMSVkog43iOBausp0jdD0rZI99fy236pTDb38tu48qFct6eeaMHvuMwtj/3bxN386+9q/2Dm4fnR0FK1SS9zFW6Vkl+hzKG4fQ3cxciXAB2Ie0VNW/jAdMpFL05ayaNy3xWjmJSVu6dyVK4/t3TsyMnLmzBn0SYLzBOIqnGMQr9C4xvXyEGMhjeWn3Y9bul0pyK7raxqbsozsyoJxJ66l4OyL/PQGNJWuxo3jog70QMbVSUEObQ6XrjFlwZTT4AnvwPxmUlaUehGdOaejcsW6i7ZxX84vojPnkGgX6cVl1jE7tnbxd3/xwfF/dmLX506cODEzM4O/gHNORQr90adqI+y7IPExtqL2zqdeY7tJD1uKQuB6kh4oKg/32XExlGzWO8hMNZ1fvVZJELc0MTFx9epVuZ486y2ewFwjUjA2wriNxjWeBUGkmS3JBQPWxCDRe+65x+7UHJLzYdExYoxTwb5mqMwBvUoc0xVcvcFYIrsDCdt9qJGRTeNM8IRzqUV05hwSrYZeuWLdRdu4L+cX0ZlzSLSL9OIy6/jo9xsX3/+L2eP/fP/+/b/97W+9j3U7pyIeyDok8TRxpTzw6p7J1tiKusWRQlSZsjzJClO2ZglDqX49gsxU0/lVbZV6FrFHxnXdHWKSPGfmgSecSy2iM+eQaDX0yhXrLtrGfTm/iM6cQ6JdpBeXWcfH45vEKt069k9eO3l0dnbW1tZwTiVtXzJq7P8gG+o+SnZcW0vSA9myqcRQslnvIDPVdH5plZQiXueu3ZLcKu6lVCZ4wrnUIjpzDolWQ69cse6ibdyX84vozDkk2kV6cZl1GKt08/g/PXnyZKhVcjXIcPT7Fj+S9ECuLNV90adTaiFapRwkSqvUi+AJ51KL6Mw5JFoNvXLFuou2cV/OL6Iz55BoF+nFZRb54Nynx0785alTpz744ANbVcM5lbR9sb+Hiyv8X8nVMb9Vq/3SzpFjlXxjRauUg0RplXoRPOFcahGdOYdEq6FXrlh30Tbuy/lFdOYcEu0ivbjMIrOzs++99961a9fS//iEcyp1y+LsS+xqImPj/vpaZJpqxDV18xQ1rvuoWjNbk/BDaKtolXKQKK1SL4InXOb36zFmF8tCW+Y3k7KifLQgOnMOiVIvojPnkGgX6eVzrVugVSLZ0CrloTPnkCj1IjpzDolSL6IqZz7XugVaJZINrVIeOnMOiVIvojPnkCj1Iqpy5nOtW2jJKsl/jZFL05YKg5dUhzFXhkHm989jzBciYxmxrWNsVUNs0xhb1RDbNMZWNcQ2jUnXNKAD17MqqLfaUK9a+FzrFvCBmAffKvUieMJlfu+LkUoBy4JYEFOwrWNMjeCiaaQZzm8ar69paZDdBiMLErVNY6TG5Gx2S7+eMykrWg298bRzfjOgXkRVzu6KJcqRmWo6v7RKvQiecJlf/KUbloW2zG8m7Y2KIieqcV8+WhCdOaejnN88qBdRlbO7YolyZKaazi+tUi+CJ1zmF+0RloW2zG8m7Y2KIieqcV8+WhCdOaejnN88qBdRlbO7YolyZKaazi+tUi+CJ1zmF+0RloW2zG8m7Y2KIieqcV8+WhCdOaejnN88qBdRlbO7YolyZKaazq9qqzR98+bG4eGJmZn5+XlbRdoBnnA+SpFO5owUF+X8Ip3MGSkuSr2IqpzdFUuUIzPVdH71WqWp2dltx46dWFj43v79l65cSX+xqUdvfM1o/P2sqW+zzyT9DwE58ITzUYp0MmekuCjnF+lkzkhxUepFVOXsrliiHJmppvOr1CqJT9p+7NjrS0uHl5Z2Lix8bd++i6Ojjd1S+61S4lvecSf2K3C4+rfLe+6k9lX0EX3DiQz9r5BPjJk3YNTI+KS4uaHWwh2s5qTwG+uT4AnnoxTpZM5IcVHOL9LJnJHiotSLqMrZXbFEOTJTTedXo1Uy75PEJx1dWtq7tLRxaenp+fkVQ0MXGrql9lsltDPobKKy+2d4IhKhmlOJzUz9/c9wX9K44IBCcszMARPeR4ZLGiL5w9R4KdQzAPCE81GKdDJnpLgo5xfpZM5IcVHqRVTl7K5YohyZqabzq9EqrR8aOrGwcHhpaY/xSZ98snp+fuXY2DcHBycmJkyb2Fgk3qKIvej33qtEViFR0bANOheLBG3tcB+6FynjK5u6s6k7lj8mrVBEoqI+dIQ3ZuaANVPkYQeqN4ORkwepgyecj1KkkzkjxUU5v0gnc0aKi1Ivoipnd8V6zE5P7du4fmZigp/BVYLMVNP51fht3VM3bvzDwYM7FxaMT/ra3NyDV6+u3LRpZGRkbGzMtFnuXIMYiNgl1N/h1CyFDcSOwZSy2tiKbFtRMyq1P4Vau9oIQr0jVroeNWqerEb9cP6YmQNm+55abT1BTBaKiLkyDB2Y3w6wKsbuNKQaeluH81ttqFctmVbpxtTUyPbNt08e2fX9p0cvvdP0M7gtcunSpeXLl9ud1riLLlUFH4h5aHyrtLCw8O7Y2Oqhoafn51fPz4tPemDjxqGhodOnT8/MzJg24Bqsm6jX1NxDoia2DBltrG0xpG2F8RrSuhaqdUQXUx/EjZ/I0JKoqY+TMWbmgNijRj2HbKuU1UfAE96B+c2krCj1IjpzTkflinUXbeO+nF9EZ84h0S7Si8usIfZJWz/+9WsfvXpw9qVtO1c/OnrxQlvcUkFWyT6GlkU+wez29/ebsukumAYO16CLkJlqOr9KP9YtV8/F0dEVQ0Mrx8ZWbtpkfNL09PTi4qJpAA6gZi9cTc0fJGryrJKrySH6zdtwwinZKyLG9LaD1I5icCbGkThWLQFTtMPFSHXmgNDDUPdJQrY9AteE4AnnUovozDkkWg29csW6i7ZxX84vojPnkGgX6cVlVrgxNTmyfXPkk46/cntox83Nz0yueWLwS1+4fOHtcLdUkFXy2kTOaPlyqZQyhu7i6KqQmWo6v0qtkiBXz4XR0W/v3DkyMnLmzBn0SULCDcTlek3NK2T8Ai6/TS4yfr2NGykmfeiosY1HTRNtk96plkDmmH+SNaA7XETUCYeLgqYdDlc/SBI84VxqEZ05h0SpF9GZc0iUehFVOXvPtT0D626fPPLRqwdv7xu8ueXHM2sev/7Eg2e//MVt33oCPoMbYf6feXg4WsZlt0+eHfF7HXEkJiTEzRM10tJU2v14hFa6YI2UTTOD7LphBSnLmJKPlDHkNes6utsqCeKW5Bq6evXqzMwM+iQB3sNYX5C2QbFraL1N4rddgDMh0MtizQtWxuPZfRxbxkj0xQSwPh5z2Z9kDlj3SomRbViihlq2cSu3g9Aq5aEz55Ao9SI6cw6JUi+iKmfvuXZjanJf/5rZl7bd3PyM+KTxx1e++fDfrVu5Aj+DK8u3MSviSKRsaoxnwnJ/f7/xK67GmRXjZqRgaKWL1MhPrHF4NaYs48gIGEp37C663io1IGkveoVc75NJ3Vn5VM8qiSInqnFfPloQnTmHRKkX0ZlzSLSL9OIyKywsLFx599JPH/vK5Jonrj/xoPiktStXpD6DWzcc4mAynYog9cbfpM0Kthda6SL1iIkaMhMwlRjymnUdMlNN55dWqbuIXye15pby3pIJeMKrsdSKIieqcV8+WhCdOYdEqRfRmXNItIv04jJrmJubG714YfBLXzj75S+uq/mk5Gdw64ZDXEumUxGk3niatFnB9sJddEHyEuiPSQ/VpchMNZ3fbrVKJAQ84dVYakWRE9W4Lx8tiM6c01HObx7Ui6jK2V2xiLilyxfefuHb38j5DK41HMPDw6aMFkS8Tvq3aWJTTI1rb9oYWuni2qTJs0qC9HK7tEoRHbg0My8pUhx4wvkoRTqZM1JclPOLdDJnpLgo9SKqcnZXrEeDz+CK/3CYGrQg4khsrBYVi2N2xQaZlthGonfaxXM8tjYrGRnH7dIqRXTg0sy7pEhB4AnnoxTpZM5IcVHOL9LJnJHiotSLqMrZXbGt09WGo3uRmWo6v8vkyiudu7ikSAhywu2prwqPxNgdUjk4v6TroFXqFlp5IPKtUi+CJ7wD85tJe6OiyIlq3LcaepHGUc4v0smckeKi1IuoytldsUQ5MlNN55dWqRfBE85HKdLJnJHiopxfpJM5I8VFqRdRlbO7YolyZKaazi+tUi+CJ5yPUqSTOSPFRTm/SCdzRoqLUi+iKmd3xRLlyEw1nV9apV4ETzgfpUgnc0aKi3J+kU7mjBQXpV5EVc7uiiXKkZlqOr+0Sr0InnA+SpFO5owUF+X8Ip3MGSkuSr2IqpzdFUuUIzPVdH5plXoRPOF8lCKdzBkpLsr5RTqZM1JclHoRVTm7K5YoR2aq6fyqtkrjN28+tX//72/cmJ+ft1WkHeAJ51KL6Mw5JFoNvXLFuou2cV/OL6Iz55BoF+nFZZZoRmaq6fzqtUrXZmd/dPTo5OLikwcPXrhyZW5uzgbawiXv3/PvLfCEc6lFdOYcEq2GXrli3UXbuC/nF9GZc0i0i/TiMks0IzPVdH6VWiXxSc8cPfpRXL61uPjV4eHznlvK9zoteaAGVqkFF7Xcftt7ROrfro3/RdvaCFE5iUSSda2k22bwhHOpRXTmHBKlXkRnziFR6kVU5Uyr1C20ZJXkv8bIpWlLheFdUu/H75OMTzJMLy6uPHDgXBvfLQVaJdcg9kUJtxR1j/5xncQQyTGbjl805sowdGB+VUG91YZ6q00X6aVV6hbwgZiHxrdK3xkamkz+I4LCsfHx1Xv2TExMRDvDffXXMbFZibGOxRkRKfTHDeuxemPbHSpsN1ex/IEHXNGzNgmvk7RBZk8STPRJtkl0LwM84R2Y30zaGxVFTlTjvtXQizSOUi+iM+eQKPUiqnLGZRaZnZ7at3H9zMQEP4OrBJmppvOr0SqN37jx1Msv3wK39NbU1MM7doyMjIyNjdmqmvkQL2RsUGR64pIzImJ0rEOqORfX2PMuEdLGDWQb27bpxsld11OoNfW8UnKEul0TkiN3Bjzh1VhqRZET1bgvHy2IzpxDotSL6Mw5JNpFenGZddyYmhrZvvn2ySO7vv/06KV32vwZ3Jhu+YfkJM++vj670xB5Tl66VOBzUmaq6fxqtEoLCwsXx8ZWHTgwHbsl8UkPDQ4ODQ2dPn16ZmbGtHHmo25BpCa2LK4mEUo3NuWoVw1XYxrbWoMzQxH1cSLAKrlhPa9Ur49Idi8BPOHVWGpFkRPVuC8fLYjOnNNRzm8e1IuoytldsY7YJ239+NevffTqwdmXtu1c/ejoxQttdEvGJHlWSUwG1kgZbYfsuqh91sVgm+HhYVsrD8LY3LguQnp83LXdYnDM/v5+zyfJrutoO8RIL0kAx2w7MlNN51fpx7rl6jl/5crKAweOjY8/vGOH8UnT0+Kdaq+anKFxtiMyPXdslZY7Q+PcTLpxikTIdYyLdnpj6q2gjdBg5M6AJ5yPUqSTOSPFRTm/SCdzRoqLUi+iKmd3xRpuTE2ObN8c+aTjr9we2nFz8zOTa54Y/NIXLl94u73vltKuQmqMTfFsjdl1UReSXXl+mbJ4GlcWGlslb0ABQziOlF0bQYb1rJIpOCQkhsnutBuZqabzq9QqCXL1nLty5bG9e0dGRs6cOZPwSULNfDT6BZxzJPXGtipqHBddG1fjBqr/ti5FfeTo7ZFr5lKIwfdKtQQMWC4FPOEyv1+PMbtYFtoyv5m0NyqKnKjGffloQXTmnI5yfvOgXkRVzu6KNewZWHf75JGPXj14e9/gzS0/nlnz+PUnHjz75S9u+9YT9jO48qCI/YTBOInIdyyP/g/cvFkxBdPYmBiDa+x+ItJSkIL0NQWDqRePYiqxo4xpClKJnsaALSXqdr0BhcwxvbdEpheO41o6TBu7025kpprOr16rJIhbkmvo6tWrMzMzCZ8kOPMR+RODdSnOiNQdiWscGZsI93fUahX1GtcKPtaNL4gi4N0RBJJ+KB6mtu9ZJdvXkBy6I+AJl/lFe4RloS3zm0l7o6LIiWrcl48WRGfO6SjnNw/qRVTl7K5Yw42pyX39a2Zf2nZz8zPik8YfX/nmw3+3buUK/AyuPA9MwfkGqZGyeAtXQJNhkEpxJ1IwoQYN5KeUTaUgLXFM1xGP4lJCpBJxjb0BTY0pYCX6Hld2kgU77rJlrpl0NxKKQGaq6fyqtkqNwHc25A7BEy7zi/YIy0Jb5jeT9kZFkRPVuC8fLYjOnNNRzm8e1IuoytldsYaFhYUr71766WNfmVzzxPUnHhSftHblCu8zuNYg1JAa4x6cjUA/IWXbrmZW8KeHtJGfGPKsSXo0Q+ZomeOkBzQFA3Zx9kiQetsiBpsJUmPGwcHbjsxU0/ntSqtkXvrQKN010WMnRsoyv8YemZr7YkxZWLVqlS3FmO4G2fWiHhK1TWNsbY3MvrZpfG3YqixcX9u6Nrgpl349Z1JWtBp6Ob95UC+iKmd3xTrm5uZGL14Y/NIXzn75i+tqPgk/W5J2A6amsR1xlfjTw7xPwhczYlaiB2kN2XWHkF3TRpCyOQqCh3BHTw8olZljSshEETcOIjXm6HyrFJG+pEihRI+dGCnL/FbAKpm0Tbn06zmTsqLV0IvT3bgv5xfRmXNItIv04gLlELd0+cLbL3z7G5mfwRU/IZ7A7sQ4q+EVBFcQ22HK+NNDhvUGl2ZuVwqy6zqaxqYsg6PLMX7FtRRcSvLTG9BUuho3josibhyJCqYG0xBMue3ITDWdX43f1k2KxlwZBplfcR6C2cVyF/HZGLvTkA5cz6qoht7WL0vOb7XpIr15z7UGn8E15sCAVsPZCFcQxLWYllLAxq6Bh7S0peQ4Bonec889dqfmkKSZKxvyrFLmgF4ljukKDtdYCtGRYoxnEiTkym0HH4h5ROdO/jAdMpFL05ayaNy3xSitUofBEy7za94qmV0sC22Z30zaG+VbpTyqoVeuWHfRNu7L+UV05hwS7SK9uMwSD7FNrf9CTUyS58Pai8xU0/mlVepF8ITL/KI9wrLQlvnNpL1RWqU8qqFXrlh30Tbuy/lFdOYcEu0ivbjMkjTiflp0S8uyPi/VRmSmms4vrVIvgiecj1KkkzkjxUU5v0gnc0aKi1IvoifnwcFBd8US5chMNZ1fWqVeBE84H6VIJ3NGiotyfpFO5owUF6VepDNZ4dVowKiYpM/EeG2IWmSmms4+rVIvgiecj1KkkzkjxUWpF9GZc0iUepHOZIWrjcFEnUmSgux6bYhaZKaazj6tUi+CJ7waS60ocqIa9+WjBdGZc0iUehGdOYdENejF1cawZcsWNEkGrw1Ri8xU09mnVepF8IRXY6nlx7rzoF5EZ84hUepFOpOVrJ9uCTVvku699140SQZcZolmZKaazj6tUi+CJ7waSy2tUh6V0SsXrWFV/hefSjOn11Yl8fqalgbZbTCyIFHbNMbW1sjsa5vGimxVFq6vbR1jaoQGWUkz6kW8vqalQXYbjCxI1DaNsbU1sK9ZbVasWPHpT3/avEnK02vHIrqRmWq6Iqm2SuM3bz61f//vb9yYn5+3VaQd4AmvxqPULF6m3LhvNfQijaOV0Rs9eWL0P0odtmmsyFZl4fra1jGmRmiQlTSjXsTra1oaZLfByIJEbdMYW1sD+5rVhlapMshMNV2R9H5b97XZ2R8dPTq5uPjkwYMXrlyZm5uzARKMuTIMHZjfDsBv686DeqsN9XYesU2CKW/ZsuXeGCmYGgetUreAD8Q8lL5VEp/0zNGjH8XlW4uLXx0ePl+YW1rewj+820obj/7Ev5ccYcaoVfcNx+X6wJf6o6MM99WrpKa207jXAznHygNPeAfmN5P2RkWRE9W4bzX0Io2j1IvozDkkSr1IZ7LC1cbAj3V3NTJTTWdfo1V6P36fZHySYXpxceWBA+e68d2SMUB2JwZqom8rdTu1ejFLkSGKC/WuzXr55YbgCa/GUiuKnKjGffloQXTmHBKlXkRnziFRDXpxtTGYqPmItzNMXhuiFpmpprOv0Sp9Z2hoMvmPCArHxsdX79kzMTFhdmO7YN+gGGMRGQVbYf2C+Ib+6N8TjN/E1Nr3Ddt2tlfczLmOKCAs7z+QHCxhR2zADlA7ClQhafsCNVHBOSNXbwrRgWC8pr28ckPwhFdjqRVFTlTjvny0IDpzDolSL6Iz55CoBr242hgw6gyT18YxOz21b+P6mYkJfgZXCTJTTWdfo1Uav3HjqZdfvgVu6a2pqYd37BgZGRkbGzM17jdT0buX2DXUvEPdMYincV7Dto8a1wq1AeoWpNZ8OPoXm+tlKbg2LuCcTP0oMGadtH2BGlOwtgfqo5HE3JlhDS30yjhWDnjCq7HUiiInqnFfPloQnTmHRKkX0ZlzSLRb9IphwmXWcWNqamT75tsnj+z6/tOjl95p2+9JWl78q4XIhsd8Qxp8LEVmqun8arRKCwsLF8fGVh04MB27JfFJDw0ODg0NnT59emZmxrSBy8I6lNrLHkN08vDSsWV3PcGF5QrxuyF71rEspBvHc5Q8SubFmq5MH9rUYMt29coBT3g1llrzd1JMuXFfPloQnTmHRKkX0ZlzSLSL9KatUuyTtn7869c+evXg7Evbdq5+dPTihfa4pZYX/7skMb53MNlN+BB4FkOtPKgd8aPVHyMxfgsDmnb1p3REdBDbBI8XV1mnkEG3WiVBrp7zV66sPHDg2Pj4wzt2GJ80PS3eyb5qgtNas0qps4A1tuzmAyYm2dGcX3P66+WMxrVZStQkhopJV2YdWur6+qFlu3rlQKuURydzRoqLUi+iM+eQKPUiqnL2nms3piZHtm+OfNLxV24P7bi5+ZnJNU8MfukLly+83Qa31PLif7fAAbxjRbvw8dmsp2T0J5ga73c1EThmCwPG+N4n2q/3k736EWMSnZEutkqCXD3nrlx5bO/ekZGRM2fOoE8S6ueudrrE1nhnAU51rezmAybGFfrsn1Fs2QP1slTX29SO4s66C+GYddKVUAOh2JY1GOrueuVAq5RHJ3NGiotSL6Iz55Ao9SKqcvaea3sG1t0+eeSjVw/e3jd4c8uPZ9Y8fv2JB89++YvbvvVEg8/gypLuPnEbrfAm5p519Rr7IKi1j6g/qiz28dDgk7vQ2n+WSMRWDfdhzNTXnsMR8BiyfiXzyZSoq4/e0oC2CCPYATBLkGWAgyTobqskiFuSa+jq1aszMzPok4T69eFOh5wGW1O/aNxZsWV3quCcuULtAot6YxnbwFHscRMhV3akKrF7IoQT36ZeedAq5dHJnJHiotSL6Mw5JEq9iKqcvefajanJff1rZl/adnPzM+KTxh9f+ebDf7du5YrGn8GVlb/2hMv4H3VX4xb/evukk4iomYcGn9yt24v006TWvfanodYOBql3rFVmvs2pPdRq2F4tDShggvVyvSRNLa5ZVJeRSPdbpQbUTxK5c6pnlUSRE9W4Lx8tiM6cQ6LUi+jMOSTaRXpxmRUWFhauvHvpp499ZXLNE9efeFB80tqVK5p/BheedPWyGIL4mZ+oicvpmrhxDWyDDWq9kvbFsxXGaEhrqK/3rbsY73BRTa2AJCozkmk0oABZp77FcHm/qY+pj5PoA8hMNZ1fvd/W3ZhMwaRFzJVh6MD8dgD8/tzGVENv61BvtaFetaSfa3Nzc6MXLwx+6Qtnv/zFdTWf1PpncOtleeS3bJXqb6q8Ns43uAJ2zyL6zduw75SsO4kxvevD1sxW3awAiWPVcmhxQKHWI0lGLVQZs5cCH4h5dOtbJRICnvAOzG8m7Y2KIieqcd9q6EUaR6kX0ZlzSJR6EVU54zLrELd0+cLbL3z7Gy1+Bhcf/Fm/gLPhqMZrX3MIrsZv4yyEK+Bv9DKRrBINoiHru+mco/ZRPGqXaBiV680Em0OrA9oyjmBwWswxTE2tiwt6yEw1nV9apV4ET3g1llpR5EQ17stHC6Iz55Ao9SI6cw6JdpFeXGaRO/oMru8nktHYOkS4v/lVb1/zBbUmqTbOOKCDqB+i9kongQxWO7SAHSOsecHKeLxoHwc2YyT6mqHuZEAXTeBGgOPVMo6qIPs6MlNN55dWqRfBE16NpZYf686DehGdOYdEqRdRlfNdPNeSRoE0Idf7ZJLlrAy0SiQbWqU8OpkzUlyUehGdOYdEqRdRlTOtUvHE745ac0uZb8kMtEokG1qlPDqZM1JclHoRnTmHRKkXUZUzn2vdAq0SyYZWKY9O5owUF6VeRGfOIVHqRVTlzOdat0CrRLKpnlUSRU5U4758tCA6cw6JUi+iM+eQaBfpxWWWaEZmqun80ir1InjCq7HUiiInqnFfPloQnTmHRKkX0ZlzSLSL9OIySzQjM9V0fmmVehE84dVYakWRE9W4Lx8tiM6cQ6LUi+jMOSTaRXpxmSWakZlqOr/d+m3dJARzZRg6ML8dgN/WnQf1VhvqVQufa90CPhDzUP1Wafzmzaf27//9jRvz8/O2irQDPOEdmN9M2hvlx7rzoF5EZ84hUepFVOVMq9QtGKtkd7KQqF6rdG129kdHj04uLj558OCFK1fm5uZsIIbfPxECrVIencwZKS5KvYjOnEOi1IuoyplWqVvoYqskPumZo0c/isu3Fhe/Ojx8PumW7sgqtdrYfSd6Jo2jWdS/Wb2GDFCri742y31De4QbH79UNPqGrWinca8Hsg5kG2ThWaWvx5hdLAttmd9M2hulVcqDehGdOYdEqRdRlTOtUrfQrVbp/fh9kvFJhunFxZUHDpwDt3SnrqUl2m2VLF5H2F3u/lUeAerFLJkvIK27phZ6+QfKh1Ypj07mjBQXpV5EZ84hUepFVOVMq9QtdKtV+s7Q0GTyHxEUjo2Pr96zZ2Jiwuwm/IF9kxK7i/pu/dWKaSw/+2v/cKAxIvW2cQPcg2HsKDDuA/VDx0FvHJ9aMwvsRgVni7CZKUfjmtid9DLlhlTPKokiJ6pxXz5aEJ05h0SpF9GZc0i0i/TiMovMTk/t27h+ZmKCn8FVgsxU0/nVaJXGb9x46uWXb4Fbemtq6uEdO0ZGRsbGxkyN8wRifuq+p08cRM1ceN5CfrpQ7V2NMyLDfXEh02qkTEm9javxxvHwhk0lZo+QbBbluHx5fbhWenkHyieyFTUeeeSR++67D62S7NrYN76xatUqW0piGpsZtFUpsK9pbzA1eSMb8MqxVUArWeXBRwuiM+eQKPUiOnMOiXaRXrciITempka2b7598siu7z89eukd7zO4pBRkpprOr0artLCwcHFsbNWBA9OxWxKf9NDg4NDQ0OnTp2dmZkwbzzdEiFFYlvyUT7JNomVcjt8xgbnxbEf8nijCVNaizcfxwGEF2LUFU5PfLKKVXl6XfCJbUYNWCWnxis1EZ5R6EZ05h0SpF1GVs1uRHLFP2vrxr1/76NWDsy9t27n60dGLF1p3Sy0u70jtKRY9nqRcHyB+WNzph1yrisxU0/lV+rFuuXrOX7my8sCBY+PjD+/YYXzS9LR4J/uqyV00CaNwh1YpZrhudLCLG8hV1grNx/FINEsepVaQur7+3GYRrfTyuuSDJ1zmV+wRWiVXFtoyv5m0NyqKnKjGffloQXTmHBKlXkRnziHRLtKLy6xwY2pyZPvmyCcdf+X20I6bm5+ZXPPE4Je+cPnC2wW+W0o8OEI/5FpVZKaazq9SqyTI1XPuypXH9u4dGRk5c+YM+iTBTa37jZtMt5TqXilxiUSF9JXR5zU1Q8RVrnFUZ8q1qGvjQv44Hl417EJ97LRymkW00ivn+GnwhMv8oj3CstCW+c2kvdH7Yky5cV8+WhCdOYdEqRfRmXNItIv0es+1PQPrbp888tGrB2/vG7y55cczax6//sSDZ7/8xW3fegI+gytuJvp/bsE8ZmRJjz9iGz96vJU/JgrIym/3Ug8A78Eh/cy4+LBo+cFRVVqySvJfY+TStKXCyLRKgrgluYauXr06MzODPklITLO9SuJLoH4J1S8b0zh9ZbimLmJ6y64bBo24qfyT//tP4kg9lB4nQfJCxGyxPhodd++iV8tXvLkyDDK/q2LMLpa7iH8VY3ca0oHrWRXUW22oVy3ec+3G1OS+/jWzL227ufkZ8Unjj6988+G/W7dyReIzuG41jx428WpvH2wRbnm3/9deo2Z/sh4BUGMKMnDUGlu2/OCoKvhAzEPvW6VQ7BVBMsAT3oH5zaS90f8rxpQb962GXqRxlHoRnTmHRKkXUZWz91xbWFi48u6lnz72lck1T1x/4kHxSWtXrsj7DK77n2A0Ma7sOZva/0gbko+9lFWyNbRKgLFKdicLiVbNKkVe3EKjlAutUh6dzBkpLkq9iM6cQ6LUi6jKOf1cm5ubG714YfBLXzj75S+uq/mkzM/g3plVSu4mSFuluO7uPuRaVXrRKpFWqJ5V4meV8qBeRGfOIVHqRVTlnPlcE7d0+cLbL3z7G40/g1tzSgkb5MqpX8DlvxjIskr2lYLbpVWiVSKZ0Crl0cmckeKi1IvozDkkSr2IqpzznmuNPoNrfiMSYc1PplWKzI1tFreD3boBiqnVR60SfqhmxSJolWiVSCa0Snl0MmekuCj1IjpzDolSL6Iq57t4rvW4ZSmLrrFK+0jHMWdeqMZSS6uUB/UiOnMOiVIvoipnWqVuoZus0knSQapnlfix7jyoF9GZc0iUehFVOd+FVSKlQKtEsqFVyqOTOSPFRakX0ZlzSJR6EVU50yp1C7RKJBtapTw6mTNSXJR6EZ05h0SpF1GVM61St9CSVZL/GiOXpi0VBq1Sh5ETbk99Vb7tl9/WnQf1VhvqVQutUrdgrFJj+FapF6neWyV+rDsP6kV05hwSpV5EVc60St1CS2+VzB9mP5MOXJrhVun8eDTO+Hm722usX79+3bp1x48ft/vNqJ5VkmvdLUyN+/LRgujMOSRKvYjOnEOiXaTXrUhEOTJTTedXqVUy1sdy67KtzafHrdIzzzzT19f36KOPbt++3VY1hFYpj07mjBQXpV5EZ84hUepFVOXsViSiHJmppvOr+K3SndgfWiWxSobVq1fv3r3bBnKgVcqjkzkjxUWpF9GZc0iUehFVObsViShHZqrp/HaJVTJl1+HW5TegicNaJayNW9recac3Lsdj3LqcbpbVtTtAqyTcf//93/3ud3/2s5/ZcIrqWSV+VikP6kV05hwSpV5EVc60St1C9axS3fdE1dCgXoytkHU5ca0p14q1P7OaGRdlK7sKzyoZVq5ceeDAAdsiSfWsEr8sIA/qRXTmHBKlXkRVzrRK3ULlrFLSFWXG7UsjxLSoR6L9zGZY2V2GiW+VaJXyoF5EZ84hUepFVOWcZ5Wmb97cODw8MTMzPz9vq0ip9K5VyjI6pokQ9cht5loJZuhugJ9VolXKg3oRnTmHRKkXUZVzplWamp3dduzYiYWF7+3ff+nKlbm5ORsg5VFxq4R2px63Xse3OXG1VMZ/Sp+cZhYzdE5QIcYq9fLfgONnlfKgXkRnziFR6kVU5Zy2SuKTth879vrS0uGlpZ0LC1/bt+/i6GiH3dKlS5eWL19ud2osq2HK/f39pt41lp+mgcO1qQAtWSW58konbZWskzG4j2DH3gWK+BuzCOttktW3Lp8z+yZqgzKm38x+VsmS9WJKLQMDA+vXr7+j71Wyp74qyJ0s2B1CCCkbzyqZ90nik44uLe1dWtq4tPT0/PyKoaELnXVLmVYJK+OldLnUePVCZt8KIDNl5ywfxW+VSGHwrVIencwZKS5KvYjOnEOi1IuoytmzSuuHhk4sLBxeWtpjfNInn6yen185NvbNwcGJiQnTpr+/3760WbbMmJXYt0RvdIaHh13BNJYGccMIUyMNTMF5GvnZ19dn2piOZhABXwuhB5KCtJReXr3g7VaGlt4qmT/MfiYduDRplToMrVIencwZKS5KvYjOnEOi1Iuoytl/q3Tjxj8cPLhzYcH4pK/NzT149erKTZtGRkbGxsZsoxrOrIinEYMiu67gzIrUGPcjpsc0diHnaVwb1zHT7mClKciA0sVrnNm3AtAqkWyqZ5X4se48qBfRmXNIlHoRVTl7VmlhYeHdsbHVQ0NPz8+vnp8Xn/TAxo1DQ0OnT5+emZkxbcSLiLkxGFNifjqPkvY0gunl1ZhyugZHcKSHNTVe48y+FYBWiWRDq5RHJ3NGiotSL6Iz55Ao9SKqcvaskjA3N3dxdHTF0NDKsbGVmzYZnzQ9Pb24uGgaiOMROyIFZ0rQuGBBcAWpbLtVEvpjsHFm3wpAq0SyoVXKo5M5I8VFqRfRmXNIlHoRVTmnrZIgbunC6Oi3d+4cGRk5c+YM+iQBbYopm5+ZRkfskfcLOGOYTA12F3AE18yBw7qCIC1xF5tVCVolkg2tUh6dzBkpLkq9iM6cQ6LUi6jKOdMqCeKWJiYmrl69OjMzgz5JEMcj7kSQgjEl5icaHWdWjOkxmBpxSGbX6y5gR3MUaWx2BdNLkLJrJrhPOBlolRo16sClKU9u0mHMmReqsdTyY915UC+iM+eQKPUiqnLOs0pEG11jlV7avWf94bfXHnmHWwe29YfPywk3Z16oxlIr17pbmBr35aMF0ZlzSJR6EZ05h0S7SK9bkYhyZKaazq8Kq/T8i4ObD53ynujcCto2H3pDTrg580I1ltrYKdEqZUC9iM6cQ6LUi6jK2a1IRDkyU03nd5n81xi5NG2pMNauXTc4fMR7onMraNsxfHjt2rX21HdkfjvAqhi705Bq6G0d6q021KsWWqVuwVilxqh4q3T9+vWXdu/ZMHLWe6hza/u24ZWzcqrdl8MKHZjfTNob5WeV8qBeRGfOIVHqRVTlTKvULbT0Vsn8YfYz6cyluXXr1l179z97+Lz3aOfWxk1Or5zk5557zp70mGostfwbcHlQL6Iz55Ao9SKqcrZ/g4Z0A03nV4tVEgY2bJAH+Ua+Wypm2/DKWTm9AwMD9nTXqMZSS6uUB/UiOnMOiVIvoipneQDbb2chuukyqyRs3frcrt17BocPb3nlVPyG6aL3vOd2h9tFOY2bD70hp1ROrPc+yVCNpZZWKQ/qRXTmHBKlXkRVzrRK3UL3WSXh+vXrAwMDz/9kUB7tIoAEIqfx+RcH5ZTi55OQaiy1/KxSHtSL6Mw5JEq9iKqcZfm1j2KiG5mppvOrzio5yopSL6Iz53SUVikP6kV05hwSpV5EVc60St0CrVI2jaPUi+jMOR2lVcqDehGdOYdEqRdRlTOtUrdAq5RN4yj1IjpzTkdplfKgXkRnziFR6kVU5Rxulc6PR+OMn7e7pEXWr1+/bt2648eP2/1m0Cpl0zhKvYjOnNNRfqw7D+pFdOYcEqVeRFXOaatkrI/l1mVbmw+t0t3xzDPP9PX1Pfroo9u3b7dVDWnJKsl/jZFL05Z6A+rtRv5VjN1pCOe32lBvtekivdlvle7E/tAq3R3GKhlWr169e/duG8jBWKXG8K2SD/UiOnNOR/lWKQ/qRXTmHBKlXkRVzs2tkim7zrcuvwFNHNYqYW3c0vaOO71xOR7j1uV0s6yuFQetknD//fd/97vf/dnPfmbDKVp6q2T+MPuZ8FZEdOYcEq2GXlqlPKgX0ZlzSJR6EVU5t2yV6r4nqoYG9WJshazLiWtNuVas/ZnVzLgoW9kbeFbJsHLlygMHDtgWSWiVsmkcpV5EZ87pKD/WnQf1IjpzDolSL6Iq51atUtIVZcbtSyPEtKhHov3MZljZI4aJb5XqFBelXkRnzunoN2JMuXFfzi+iM+eQKPUiOnMOiXaR3rZbpSyjY5oIUY/cZq6VYIauNHf3WSV7frKQKK2SD/UiOnNOR2mV8qBeRGfOIVHqRVTlfHdWCe1OPW69jm9z4mqpjP+UPjnNLGbonGCVMFapzX8Dzvxh9jPhrYjozDkkWg29tEp5UC+iM+eQKPUiqnJOWyXrZAzuI9ixd4Ei/sYswnqbZPWty+fMvonaoIzpN7OfVbJkvZiqHgMDA+vXr+f3KkUUF6VeRGfO6Sg/q5QH9SI6cw6JUi+iKufst0pEH7RK2TSOUi+iM+d0lH8DLg/qRXTmHBKlXkRVzrRK3QKtUjaNo9SL6Mw5HaVVyoN6EZ05h0SpF1GVM61St9CSVZL/GiOXpi31BtTbjfDbuvOg3mpDvWqhVeoWjFVqDN8q+VAvojPndJSfVcqDehGdOYdEqRdRlTOtUrfQ0lsl84fZz4S3IqIz55BoNfTSKuVBvYjOnEOi1IuoyplWqVugVcqmcZR6EZ05p6O0SnlQL6Iz55Ao9SKqcpYHMOkWms4vrZIP9SI6c05HK2+VxsfHN2zY8MKLO3bt3mtvbtI+5Kw+/+Lg2rXrrl+/bk96ihJn35ay4HqFqMr5pd171h9+e+2Rd7hp3tYfPi8z1XR+aZV8qBfRmXM6Wu2/ATcwMLBr957B4SObD52KF9+L3t3OLWy7KGdVzq2cYVk0t2zZas97Ep3XBtcrRFXOYr7lokpdbNx0bZsPvSEz1XR+aZV8qBfRmXM6WmGrtH5gw659+zeMvOnd4dyK2DaMnN21d//Ahg327AMKrw2B6xWiKueBgQ1ivr0LjJu2bcfwYfl/0abzS6vkQ72IzpzT0apapS1btry0d+hZvsbv4Pbs4fPilrZu9d8tabs2DFyvEFU5X79+/aXde8R8excYNz3bhlfOyhxNTEw0nV9aJR/qRXTmnI5W0iqNj4/vipZavk/q9LZx5Kycee9zS6quDQfXK0RbzmK4xXaL+fYuMG4aNvM/Rc8995zMVNP5pVXyoV5EZ87paCU/1r1hQ8YL/Hs/e67p9u//06Untx364fBpry+31rfB+LW8nYkYVdeGg+sVojDngQ0b5Hks5tu7wLiVu214Jf5Ve+0ebzq//LZuH+rtRlbF2J2GdJHe53+S8bHQ//w/3v/bB9//rw9di7YH480U4p//ZeX70uD+x8f/5sGvi1vy+nJrfdvyyqkX4g97KofrlX7k/3niv5ZxWC6q+A0T/1pGWdtFOf+bD70hcxG9sN+wwc5QC/Ctkg/1IjpzTke/EWPKjft2kV65mdenXt3vObdgop8s/XF+8Y9/WPjjh3NLtz5emvloaeKDpWs3P7ky/cmm1z74d//xv61ev8fry631LXo5v3uPOdUGVdeGg+sVojNniV6/fn1gYED+50cuKvsFFaQM5Pw//+KgzMXExISdnpimM0ir5EO9iM6c09FKWiW5sdP/A7r3rflbHy68NXrzN+/Onh29NTbx8S8u3jh+bub87z4eOTsz/Mb0O+MLA0dvdMYqPbnt0LJlyz71Z/d49R3YMg/9wNMDUvnZz30eK93Wv+fn3/zxtsxNQl5jOfNy/u1MxKi6NhxcrxCdOYdEqRcpMWdaJR/qRXTmnI5W8rNKsVXynt/v7H5z7sbt+V+/c+PkW1O/vHDjnfc/OnJ2+uCpqd+Mfrj39amdJ37/xuitfzx0vZJWSTyQHE78kJTvwir94yvn//6hR/pS/P2DDz9z6JzXWDZaJVvKoqwo9SI6cw6JqtVLq+RDvYjOnNPRSv4NuEyr9NLpj6Zuzf/8/PTh05PH35x86+qHB9+Y2vOL8V9cur3j5MTzR8ZOXpj50YHf0Splbt/Z8JL1R8B3Nu7ympmNVsmWsigrSr2IzpxDomr10ir5UC+iM+d0tHes0o43bl+fnTvx1vShU5NHzkyeHv1w6PXJn54cP37h9gvHJ7aOjB09N9O/byzPKomTMA7DFP76gdVS6dkOE3W2wxSk3hQMprHriAOaSoc5hNmM1zEYQ4ONG1gc2WQc2y4m89BNrdLawxcf+urj1iLFPPQ/H5NKv1m80SrZUhZlRakX0ZlzSFStXlolH+pFdOacjvaOVXrxl7PXZuaOvjl98NeTr/xm4vXLt3f/YvLF4+NHzn/w3KsTGw+Njbw584Nd7zW2SuIzpGxMhtgLZztMG1dvKuUn7ro28tMZHTOgKzuz4mqkbLyOcU6mjeluGmM0b5OW0kYykbLpK5jBTZ5/+/9+R342skpH3lnz4oh1STFrfvKK18BttEq2lEVZUepFdOYcElWrl1bJh3oRnTmno73zWaUXXpsam5x75fT0vl+OH3h9/Ofv3B48Obn91Ws/O3tz08j4swevHDw9vWbHxcZWyZSdOzG2A22Q7HreCG2K2zI7uqhs2MuUXWMvag7X2OVge+/QRstn/5+/aTqIbF/51v82PukrT67xQrjRKtlSFmVFqRfRmXNIVK1eWiUf6kV05pyO9o5Veu7o9Xevz+371fWfHhvbdeLq4bNT2w7/btPLo7t/eX3dwbEf73t33xtTT79wvhWr5NxJA6vkbAfaFLflWSXT2IHmxiHmxmsmuKEyN8whxCr9cN+v7l/x3+9fsaJ/7y+9EG60SraURVlR6kV05hwSVauXVsmHehGdOaejvWOVNo1cu/D+Ry+/cW3vydG9r41K4Sevjm0bubzzxG83vDz67MHLu1+femrbm+16q+RsB9oUt2V2NC1lWKnJ7GUqpXFmtMGG7UOskmyPfX/dYz941qv0NlolW8qirCj1IjpzDomq1ctv6/ah3m7kszF2pyFdpDfTKq0/OPbexB/Ojt361cXp196eOn5+5vBbMy+fnhz+zdS+U9O7fz2959St724904pVMmXxHJn1nlUyu86amPoGVskYGlNjylJvjmV6mV3sLrvucJmb83ZS9vpKWfBybrD96GdnZfMqvU3Ov50JxXC9qjbUqwS+VfKhXkRnzulo73ys+6nnL/yf3Zf6f3rhB4Pnv//iue+9cG7N82/9r+1nn9525qmtZ8Ukyfb42l81tkoO411kMy7E4PyN/ETbYWoMxqN4fsV0NJUGN5REZShTKbgu2Fho6nLMgILXUZCa1q1SKxvfKtlSFmVFqRfRmXNIVK1eWiUf6kV05pyO9o5VEkPwNw9+XZxQ4y3v34AzrsKr5Ja50SrZUhZlRakX0ZlzSFStXlolH+pFdOacjvaOVfrh8GnxQKvX72m8SRtp6fWVTblVkrRNhmm8lh3YaJVsKYuyotSL6Mw5JKpWL62SD/UiOnNOR3vHKnHr2EarZEtZlBWlXkRnziFRtXpplXyoF9GZczraO38DjlvHNlolW8qirCj1IjpzDomq1Uur5EO9iM6c09FvxJhy475dpJdWqdyNVsmWsigrSr2IzpxDomr10ir5UC+iM+d0lFaJW9s3WiVbyqKsKPUiOnMOiarVS6vkQ72IzpzT0apaJVIudiZiVF0bDq5XiM6cQ6LUi5SYM62SD/UiOnNORyv5WSVn/kgpeOdf1bXh4HqF6Mw5JEq9SIk589u6fai3G/lXMXanIV2kl1apXOT825lQDNerakO9SuBbJR/qRXTmnI5W8ssCaJXKhW+VbCmLsqLUi+jMOSSqVi+tkg/1IjpzTkdplUjboVWypSzKilIvojPnkKhavbRKPtSL6Mw5He2pzyrdHn309nv3Ly58uLS0ZKtIAdAq2VIWZUWpF9GZc0hUrV5aJR/qRXTmnI72jlW6ffEv599dPndl+Ydv/MuZyUsLCws2QNoNrZItZVFWlHoRnTmHRNXqpVXyoV5EZ87paI9YpY9/v25x5v759/9q/lrfJ2f/9dVf/Ifp6ek7frd0qX/58v5LdofkQqtkS1mUFaVeRGfOIVG1emmVfKgX0ZlzOtojVukP17cuTH3+k/G/+uTSv/nk1J9eHPnzy5cvLy4u2vAf/9iSB7pzq7Tc/pO1fcO13foA8WgP1Fo4KmDGaJVsKYuyotSL6Mw5JKpWL62SD/UiOnNOR3vnY92z5z6zMPZvF3/zp7Ov/Yudg+tHR0fRKrXEXbxVSnZZvryvz+1j6C5GVgytki1lUVaUehGdOYdE1eqlVfKhXkRnzuloD1mlsbWLv/uLD47/sxO7PnfixImZmRn8BZxzKlLo77MveOy7IPExtqL2zqdeY7tJD1uKQuB6kh4oKg/32XExlGzW7dAq2VIWZUWpF9GZc0hUrV5aJR/qRXTmnI5WzyoNDg5mWqWPfr9x8f2/mD3+z/fv3//b3/7W+1i3cyrigaxDEk8TV4oNqnsmW2Mr6hZHClFlyvIkK0zZmiUMpfp1NbRKtpRFWVHqRXTmHBJVq5ff1u1Dvd1Id31b96oYu5Niy5Yt98ZkWqWPxzeJVbp17J+8dvLo7Oysra3hnEravmTU2FdKhrqPkh3X1pL0QLZsKjGUbNbtyPm3U6IYrlfVhnqVwLdKPtSL6Mw5He2uj3XLM9izQSY6ODj4mRgpyK7XxmCs0s3j//TkyZOhVsnVIMPR7+38SNIDubJU9/VX2SrZUkxnro00jaNcrxCdOYdEqRcpMWdaJR/qRXTmnI7G3sM+2Br31aAXszVs2bIFTZLBa+P44Nynx0785alTpz744ANbVcM5lbR9sb+Hiyv8X8nVMb9Vq/3SzpFjlXxjRauUQ3FRrleIzpxDotSLlJgzrZIP9SI6c05HY+/RlVbJvEm699570SQZXBuP2dnZ995779q1a3Nzc7aqhnMqdcvi7EvsaiJj4/76WmSaasQ1dfMUNa77qFozW5PwQ2iraJVyKC7K9QrRmXNIlHqREnOmVfKhXkRnzumoPNXuu+++yIB84xurVq0yhTTS0um1VUm8vqalQXYbjCxI1DaNsbU1sK/5deGKFSs+/elPmzdJosjGktixSBl457+T1zPSOMr1CtGZc0iUepESc6ZV8qFeRGfO6ag81WiVSHvxzn8nr2ekcZTrFaIz55Ao9SIl5kyr5EO9iM6c01FjPky5cV8NetEG3cUv4Ehn8M5/Z66NNI2jXK8QnTmHRKkXKTFnWiUf6kV05pyOdq9VMtzRx7pJZ/DOf2eujTSNo1yvEJ05h0SpFykxZ1olH+pFdOacjna7VTJR84bJGSavDekwmXOUR1lRrleIzpxDotSLlJgzrZIP9SI6c05HY+9hH2yN+2rQi9kaMOoMk9eGdJgGc5SmrCjXK0RnziFR6kVKzHmZZEZIt/NIjN2pBOvWraNVKhc5/3YyCCG9Dd8q+VAvojPndFSeas5YNO7bRXqdIlIK3vlXdW04uF4hOnMOiVIvUmLOtEo+1IvozDkdjZ0SrRJpJ975V3VtOLheITpzDolSL1JizrRKPtSL6Mw5He2uj3WnyYzSKpULrZItZVFWlHoRnTmHRNXqpVXyoV5EZ87pKK0SaTu0SraURVlR6kV05hwSVauXVsmHehGdOaejtEqk7dAq2VIWZUWpF9GZc0hUrV5aJR/qRXTmnI72lFWanZ7at3H9zMTE/Py8rSIFQKtkS1mUFaVeRGfOIVG1emmVfKgX0ZlzOto7VunG1NTI9s23Tx7Z9f2nRy+9Mzc3ZwPtY/ny5bakG8mzr6/P7jRk2bJlly5dsjstQ6tkS1mUFaVeRGfOIVG1emmVfKgX0ZlzOipPNfdga9y3i/R6j2oh9klbP/71ax+9enD2pW07Vz86evFCG92SMUmeVRKTgTVSRtshuy4qjsSBbYaHh23tsmXG3LguQnp83LXdYnDM/v5+zyfJrutoO8RIL0kAx2wR7/yrujYcXK8QnTmHRKkXKTFnWiUf6kV05pyOxk6p4lbpxtTkyPbNkU86/srtoR03Nz8zueaJwS994fKFt9v7bintKqTG2BTP1phdF3Uh2RWPYsriaVxZaGyVvAEFDOE4xgPZnXhYzyqZgkNCYpjsTmt451/VteHgeoXozDkkSr1IiTkvk/8aI6nbUm9Avd3Iqhi705Au0us9qvcMrLt98shHrx68vW/w5pYfz6x5/PoTD5798he3feuJiYkJ08b4CYNxEpHvWL5cds2bFVMwjY2JMbjG7iciLQUpSF9TMJh68SimEjvKmKYglehpDNhSom7XG1DIHNN7S2R64TiupcO0sTutIeffzoRiuF5VG+pVQrSgyB9machEUrelLBr37cYo9SI6c05H5anmjEXjvl2k1yky3Jia3Ne/ZvalbTc3PyM+afzxlW8+/HfrVq4YGRkZGxszbZxFcL7B2CDxFq6AJsMgleJOpGBCDRrITymbSkFa4piuIx4l7VoEqURcY29AU2MKWIm+x5WdZMGOu2yZaybdjYTW8c6/qmvDwfUK0ZlzSJR6kRJzplXyoV5EZ87paC98rHthYeHKu5d++thXJtc8cf2JB8UnrV25Ymho6PTp0zMzM6aNNQg1pMa4B2cj0E9I2barmRX86SFt5CeGPGuSHs2QOVrmOOkBTcGAXZw9EqTetojBZoLUmHFw8BahVbKlLMqKUi+iM+eQqFq9tEo+1IvozDkd7QWrJMzNzY1evDD4pS+c/fIX19V80vT09OLiommQdgOmprEdcZX408O8T8IXM2JWYnNikV13CNk1bQQpm6MgeAh39PSAUpk5poRMFHHjIFJjjs63Smm6MUq9iM6cQ6Jq9dIq+VAvojPndLRHrJIgbunyhbdf+PY3RkZGzpw5gz5JED8hnsDuxDir4RUEVxDbYcr400OG9QaXZm5XCrLrOprGpiyDo8sxfsW1FFxK8tMb0FS6GjeOiyJuHIkKpgbTEEy5RWiVbCmLsqLUi+jMOSSqVi+tkg/1IjpzTkflqeYebI37dpFe71HtELc0MTFx9erVmZkZ9EmCMQcGtBrORriCIK7FtJQCNnYNPKSlLSXHMUj0nnvusTs1hyTNXNmQZ5UyB/QqcUxXcLjGUoiOFGM8kyAhV24R7/yrujYcXK8QnTmHRKkXKTFnWiUf6kV05pyOxk6pV6wSEcQ2tf4LNTFJng9rBe/8q7o2HFyvEJ05h0SpFykxZ1olH+pFdOacjsZOiVaptxD306JbWpb1eammeOdf1bXh4HqF6Mw5JEq9SIk50yr5UC+iM+d0NHZKtEqknXjnX9W14eB6hejMOSRKvUiJOdMq+VAvojPndLR3PtZNOgatki1lUVaUehGdOYdE1erlt3X7UG838tkYu9OQLtJLq1Qucv7tTCiG61W1oV4l8K2SD/UiOnNOR/lWibQdvlWypSzKilIvojPnkKhavbRKPtSL6Mw5HaVVIm2HVsmWsigrSr2IzpxDomr10ir5UC+iM+d0lFaJtB1aJVvKoqwo9SI6cw6JqtVLq+RDvYjOnNNReaq5B1vjvl2k13tUkw7jnX9V14aD6xWiM+eQKPUiJeZMq+RDvYjOnNPR2CnRKpF24p1/VdeGg+sVojPnkCj1IiXmTKvkQ72IzpzT0dgp0SqRduKdf1XXhoPrFaIz55Ao9SIl5kyr5EO9iM6c09HYKdEqkXbinX9V14aD6xWiM+eQKPUiJeZMq+RDvYjOnNPRnvpY9+z01L6N62cmJubn520VKQBaJVvKoqwo9SI6cw6JqtVLq+RDvYjOnNPR6lmlwcHBTKt0Y2pqZPvm2yeP7Pr+06OX3pmbm7OBXuRS//Jly/qG7V5Dli1b3n+H/wocrZItZVFWlHoRnTmHRNXq5bd1+1BvN9Jd39a9KsbupNiyZcu9MWmrFPukrR//+rWPXj04+9K2nasfHb14oRNuSTxJ3WkkdqxfgQrZqwG1w322TojNjT9GYvwWBjTtkj4pOohtgseLq6Qi0bs5cv7tlCiG61W1oV4l8K2SD/UiOnNOR+Wp5oxF474a9GK2BhMdHBz8TIwUZNdrc2NqcmT75sgnHX/l9tCOm5ufmVzzxOCXvnD5wtvFuyXwMglbY3b7+qCqXqx5mehPMDXDfVE5NQj0ajZgjO99ov16P9lL2qhk51bInKM8yopyvUJ05hwSpV6kxJxplXyoF9GZczoae48utkpbtmxBk2Tw2uwZWHf75JGPXj14e9/gzS0/nlnz+PUnHjz75S9u+9YTExMTpo0Yhf7a6xRjC2KbYrAmIjYi0X7fsA3WDUS9dcKFCBJxJgRjph5tS93Z1PwK+KA6ibr66C0NaIswgh0AswRZBjhIS3jnvzPXRprGUa5XiM6cQ6LUi5SYM62SD/UiOnNOR2Pv0ZVWybxJuvfee9EkGVwbw42pyX39a2Zf2nZz8zPik8YfX/nmw3+3buWKkZGRsbEx06b+9ibpJCJq5mG5CciuK9Ra1u1F2lbUutf+NNTawSD1jrXKzLc5zsFZbK+WBhQwwXq5XpKmFtcsqstIJBfv/Hfm2kjTOMr1CtGZc0iUepESc6ZV8qFeRGfO6ag81e67777IgHzjG6tWrTKFNNLS6bVVSby+pqVBdhuMLEjUNo2xtTWwr/kQ+ooVKz796U+bN0miyMaS2LFiFhYWrrx76aePfWVyzRPXn3hQfNLalSuGhoZOnz49MzNj2mTYBylYz2BdQ73eK/j2xbMVxmhI6wynhC7GO1xUUysgicqMZBoNKEDWfwSFMcv7TX1MfZxEnxbwzn8nr2ekcZTrFaIz55Ao9SIl5kyr5EO9iM6c01F5qlXeKglzc3OjFy8MfukLZ7/8xXU1nzQ9Pb24uGga1K1AzRbYd0hYYyqcbwAD4QqZRL95G/adknUnMaZ3fdia2aqbFSBxrFoOLQ4o1HokyaiFKr5VStKNUepFdOYcElWrl1bJh3oRnTmno2gsGvfVoBezbf0XcAZxS5cvvP3Ct78xMjJy5swZ9ElC3SjUHIKriZwG1jgLAV6iL/UqKYFYjUSDaMj6bu31jRstbh/Fo3aJhlG53kywObQ6oC3jCAanxRzD1NS6uGCLeOe/M9dGmsZRrleIzpxDotSLlJgzrZIP9SI6c05HY+/RlVbJ0MrHuh3iliYmJq5evTozM4M+Sah7gZoviNxFjPvbYbaNMw7oICJjUcNV1pHB6k4mZT2secHKeLxoHwc2YyT6mqHuZEAXTeBGgOPVMo6qIPvmeOe/M9dGmsZRrleIzpxDotSLlJgzrZIP9SI6c05HY+/RxVbJRM0bJmeYvDbE4868T5azakzmHOVRVpTrFaIz55Ao9SIl5kyr5EO9iM6c09HYe3S9VTI4w+S1ISnid0etuaXMt2SNaTBHacqKcr1CdOYcEqVepMSc+W3dPtRbbbpF75YtW2iVykXOv50MxfD+rTbUqwS+VfKhXkRnziHRLtJLq1QufKtkS1mUFaVeRGfOIVG1emmVfKgX0ZlzSLSL9NIqlQutki1lUVaUehGdOYdE1eqlVfKhXkRnziHRLtJLq1QutEq2lEVZUepFdOYcElWrl1bJh3oRnTmno/JUcw+2xn27SK/3qCYdxjv/qq4NB9crRGfOIVHqRUrMmVbJh3oRnTmno7FTolUi7cQ7/6quDQfXK0RnziFR6kVKzJlWyYd6EZ05p6OxU6JVIu3EO/+qrg0H1ytEZ84hUepFSsyZVsmHehGdOaejsVOiVSLtxDv/qq4NB9crRGfOIVHqRUrMmVbJh3oRnTmno7FTolUi7cQ7/6quDQfXK0RnziFR6kVKzJlWyYd6EZ05p6OxU6JVIu3EO/+qrg0H1ytEZ84hUepFSsyZ39btQ73dyKoYu9OQLtKbZ5Vmp6f2bVw/MzExPz9vq0gByPm3M6EYrlfVhnqVwLdKPtSL6Mw5HZWnmjMWjft2kV6nCLkxNTWyffPtk0d2ff/p0UvvzM3N2UAOyX+rv6oU8o/Beedf1bXh4HqF6Mw5JEq9SIk50yr5UC+iM+d0NHZK1bdKsU/a+vGvX/vo1YOzL23bufrR0YsXGrul9lslsSX1MXEn9itwONmrkUxiuM9WC33DiQwTgwuJMfMGjBolfVJ0BNsEDxZXSUWidy7e+Vd1bTi4XiE6cw6JUi9SYs60Sj7Ui+jMOR2NnVLFrdKNqcmR7Zsjn3T8ldtDO25ufmZyzRODX/rC5QtvN3BL7bdKaGfQ2UTlvj44XiJU8zJREXzNcF/SuOCAQnLMzAHT3ifar3eSPe91U6JzA7zzr+racHC9QnTmHBKlXqTEnGmVfKgX0ZlzOho7pYpbpT0D626fPPLRqwdv7xu8ueXHM2sev/7Eg2e//MVt33piYmLCtImNhX2FYtyAOIb+2nsV6w9it4IVDdskXIghMjA1H4LuRcpoW2qNhLpfSVqhiERFfegIb8zMAWNn5HdJpOha1kgeJBfv/Ku6NhxcrxCdOYdEqRcpMWdaJR/qRXTmnI7GTqniVunG1OS+/jWzL227ufkZ8Unjj6988+G/W7dyxcjIyNjYmGmz3LkGcQixRai/w6lZChuIHYMpZbWxFdm2omY/wIbU2tVGEOodsdL1qFHzZDXqh/PHzBwQE6yX6yVpanHNojo/iwy886/q2nBwvUJ05hwSpV6kxJxplXyoF9GZc0i0i/R6j+qFhYUr71766WNfmVzzxPUnHhSftHbliqGhodOnT8/MzJg2dddQcxNpH5GoiS1DRhvrLgxpW2G8hrSuhRLWxJbqg7jxExlaEjX1cTLGzBwQe7hXYZbl/aY+pp5Yok8+tEq2lEVZUepFdOYcElWrl1bJh3oRnTmHRLtIr/eoFubm5kYvXhj80hfOfvmL62o+aXp6enFx0TQABxBmlVxNDtFv3oYTTsm6kxjT2w5SO4qh7ldqJI5VS8AU7XAxUp05IPQAMmqhyji9ZtAq2VIWZUWpF9GZc0hUrV5aJR/qRXTmHBLtIr1pqySIW7p84e0Xvv2NkZGRM2fOoE8S6v6g9g6lXlOzChm/gMtvk4uMX2/jRopJHzpqbONR00TbpHeqJZA55p9kDegOl8CNIweoH7heTPdIQ6tkS1mUFaVeRGfOIVG1emmVfKgX0ZlzSLSL9GZaJUHc0sTExNWrV2dmZtAnCfAextqCuilwBiEyDa23Sfy2CxCHUjMrvvWw5gUr4/HsPo4tYyT6YgJYH4+57E8yB8zySjiOPRKm68qNoFWypSzKilIvojPnkKhavfy2bh/q7UZ66tu6G5C0F71Cq97HkPkWKgs5/3YmFMP1qtpQrxL4VsmHehGdOaej8lRzxqJx3y7S6xS1Tm9aJfvuqDW3lPeWLI13/lVdGw6uV4jOnEOi1IuUmDOtkg/1IjpzTkdjp0SrRNqJd/5VXRsOrleIzpxDotSLlJgzrZIP9SI6c05HY6dEq0TaiXf+VV0bDq5XiM6cQ6LUi5SYM62SD/UiOnNOR2OnRKtE2ol3/lVdGw6uV4jOnEOi1IuUmDOtkg/1IjpzTkdjp0SrRNqJd/5VXRsOrleIzpxDotSLlJgzrZIP9SI6c05HY6dEq0TaiXf+VV0bDq5XiM6cQ6LUi5SYM62SD/UiOnNOR2OnRKtE2ol3/lVdGw6uV4jOnEOi1IuUmDOtkg/1IjpzTkdjp0SrRNqJd/5VXRsOrleIzpxDotSLlJgzrZIP9SI6c05HY6dEq0TaiXf+VV0bDq5XiM6cQ6LUi5SYM7+t24d6u5HqfVv3li1baJXKRc6/nQzFcL2qNtSrBL5V8qFeRGfO6ag81ZyxaNxXg17M1oDRwcHBz8R4bUiHaTBHacqKcr1CdOYcEqVepMScaZV8qBfRmXNIVIPe2CllPIadSZKC7HptHOM3bz61f//vb9yYn5+3VaQAMucoj7KivH8RnTmHRKkXKTFnWiUf6kV05hwS1aA3dkqJx/CWLVvQJBm8NoZrs7M/Onp0cnHxyYMHL1y5Mjc3ZwPNuHTp0vLly+1OTLpGP5JwX1+f3WnIsmXLRKDduSu889+ZayNN4yjvX0RnziFR6kVKzJlWyYd6EZ05h0Q16I2dkn0MmzdJ9957L5okg/eoFsQnPXP06Edx+dbi4leHh8+37JbuyCp5ISmj7ZBdFxVH4sA2w8PDtnbZMmNuXBchPT7u2m4xOGZ/f7/nk2TXdbQdYqSXJIBj3gXe+e/MtZGmcZT3L6Iz55Ao9SIl5kyr5EO9iM6cM6Ox/YhYtWqVLaWQZk6vrUri9TUtDbLbYGRBorZpjK2tgX3vi1mxYsWnP/1p8yZJFNlYEjtWzPvx+yTjkwzTi4srDxw415pb8tyJkK5BJGRsitfM7LqoC8mueBRTFk/jykJjq+QNKGAIxzEeyO7Ew3pWyRQcEhLDZHfuHO/8d/h6djSOcr1CdOYcEqVepMScaZV8qBfRmXNm1HgLoapW6TtDQ5OLi3anxrHx8dV79kxMTJhd41EMxlUYt2EwriJdIz/Fc8huNEQNGUqQgrgNUzCYemlvKp1TEdwIUomexoAtJep2vQGFzDG9t0SmF47j5S+YNnbnzvHOf4evZ0fjKNcrRGfOIVHqRUrMmVbJh3oRnTmHRDXoRRvU+i/gxm/ceOrll2+BW3praurhHTtGRkbGxsZsVQ0xFmI+pCAGwrxZca6iQQ3iRpCfGJUu0lFqTF/nVFyNkHYtglQirrE3oKkxBaxE3+PKnlUyuGbS3Ui4O7zz35lrI03jKO9fRGfOIVHqRUrMmVbJh3oRnTmHRDXojZ1S4jHcyse6FxYWLo6NrTpwYDp2S+KTHhocHBoaOn369MzMjGkj1sH6BXhj5EJNazxkEPmJUc+apA9nyBwwc5z0gKZgwC7OHglSb1vEYDNBasw4OPhd4J3/zlwbaRpHef8iOnMOiVIvUmLOtEo+1IvozDkkqkFv7JQyHsPmDZMzTF4bYW5u7vyVKysPHDg2Pv7wjh3GJ01Pi3eyr5rSLsF5hVZqPMz7JHwxI2YlNicW2TV9ZSjZNW0EKZs0EDyKO3R6QKnMHFNCJoq4cRCpMUfnWyWdOYdEqRfRmXNIVK3eZZIZIaSTPBJjd1KsW7funpi0VRLELZ27cuWxvXtHRkbOnDmDPklwvkFchSmL2zC+oUGN6+UhVkMay0+7H7d0u1KQXdfXNDZlGRldjvErrqXgLI789AY0la7GjeOiiBtHooKpwTQEU74L5PzbKSGE9DbRmtLYT0kjW8qiUB9nS1kUF6VeRGfOIdFu0Ts4OJhplQRxSxMTE1evXp2ZmUGfJIgpEaMgSMF5iKY1aQvikGa2lPUKR6Ji6exOzSE5HxYdIybPKmUO6FXimK7gcI2lEB0pxngmQUKufBfwrZItZVFWlHoRnTmHRNXqpVXyoV5EZ84h0S7Sm2eVehaxTcZ1tYKYJM+H3Sm0SraURVlR6kV05hwSVauXVsmHehGdOYdEu0gvrVIacT8tuqVlqVdQdwqtki1lUVaUehGdOYdE1eqlVfKhXkRnziHRLtJLq1QutEq2lEVZUepFdOYcElWrl1bJh3oRnTmHRLtIL61SudAq2VIWZUWpF9GZc0hUrV5aJR/qRXTmHBLtIr20SuVCq2RLWZQVpV5EZ84hUbV6aZV8qBfRmXNItIv07iNlY2ciRtW14eD9i+jMOSRKvUiJOdMq+VAvojPnkGgX6ZVH9UlSHrRKtpRFWVHqRXTmHBJVq5dWyYd6EZ05h0S7SC+tUrnQKtlSFmVFqRfRmXNIVK3eZfJfYyR1W+oNqLfadJFeWqVykfNvZ0IxvH+rDfUqgW+VfKgX0ZlzSLSL9NIqlQvfKtlSFmVFqRfRmXNIVK1eWiUf6kV05hwS7SK9tErlQqtkS1mUFaVeRGfOIVG1emmVfKgX0ZlzSLSL9IZbpfPj0Tjj5+1uj7N+/fp169YdP37c7jeDVsmWsigrSr2IzpxDomr10ir5UC+iM+eQaBfpTVslY30sty7b2nxolZBnnnmmr6/v0Ucf3b59u61qCK2SLWVRVpR6EZ05h0TV6qVV8qFeRGfOIdEu0pv9VulO7A+tEmKskmH16tW7d++2gRxolWwpi7Ki1IvozDkkqlYvrZIP9SI6cw6JdpHe5lbJlF3nW5ffgCYOa5WwNm5pe8ed3rgcj3HrcrpZVteuBK2ScP/993/3u9/92c9+ZsMpaJVsKYuyotSL6Mw5JKpWL62SD/UiOnMOiXaR3patUt33RNXQoF6MrZB1OXGtKdeKtT+zmhkXZSu7Gc8qGVauXHngwAHbIgmtki1lUVaUehGdOYdE1eqlVfKhXkRnziHRLtLbqlVKuqLMuH1phJgW9Ui0n9kMK7vaMPGtkkc3RqkX0ZlzSFStXlolH+pFdOYcEu0ivW23SllGxzQRoh65zVwrwQzdhfCzSh7dGKVeRGfOIVG1evlt3T7UW226SO/dWSW0O/W49Tq+zYmrpTL+U/rkNLOYoXOC+jFW6Y7+BpydCcXw/q021KsEvlXyoV5EZ84h0S7Sm7ZK1skY3EewY+8CRfyNWYT1NsnqW5fPmX0TtUEZ029mP6tkyXox1S0MDAysX7+e36vk6MYo9SI6cw6JqtVLq+RDvYjOnEOiXaQ3+60S6RS0SraURVlR6kV05hwSVauXVsmHehGdOYdEu0gvrVK50CrZUhZlRakX0ZlzSFStXlolH+pFdOYcEu0ivbRK5UKrZEtZlBWlXkRnziFRtXpplXyoF9GZc0i0i/TSKpULrZItZVFWlHoRnTmHRNXqpVXyoV5EZ84h0S7SS6tULrRKtpRFWVHqRXTmHBJVq5dWyYd6EZ05h0S7SC+tUrnQKtlSFmVFqRfRmXNIVK1eWiUf6kV05hwS7SK98qgm5WJnIkbVteHg/YvozDkkSr1IiTnTKvlQL6Iz55BoF+l9afee9YffXnvkHW6d39YfPi/n385EjKprw8H7F9GZc0iUepESc+a3dftQb7XpIr3bf/Li5kOnvEc4t85smw+98fyLg3YmFMP7t9pQrxL4VsmHehGdOYdEu0jvwMCGweEj3iOcW2e2HcOHBwYG7EzEqLo2HLx/EZ05h0SpFykxZ1olH+pFdOYcEu0ivdevX39p954NI2e9pzi3orcNr5yVMz8xMWFnIkbVteHg/YvozDkkSr1IiTnTKvlQL6Iz55Bod+ndunXrrr37nz183nuWcytuk7Mt5/y5556zc1BD27Vh4P2L6Mw5JEq9SIk50yr5UC+iM+eQaNfpHdiwQZ7cG/luqSPbhlfOytn2fvVmUHhtCLx/EZ05h0SpFykxZ1olH+pFdOYcEu1GvRvELe3eMzh8eMsrp+I3TBe9Bzy3sO2inNXNh96QMyznOf0+yaDz2uD9i+jMOSRKvUiJOdMq+VAvojPnkGiX6r1+/frAwMDzPxmUZ7n9zh/SPuSsPv/i4Nq1a73PJyElzr4tZcH7F9GZc0iUepESc6ZV8qFeRGfOIVHqRXTmHBKlXkRnziFR6kV05hwSVauXVsmHehGdOYdEqRfRmXNIlHoRnTmHRKkX0ZlzSFStXlolH+pFdOYcEqVeRGfOIVHqRXTmHBKlXkRnziFRtXr5bd0+1FttqLfaUG+1od5qo1Yv3yr5UC+iM+eQKPUiOnMOiVIvojPnkCj1IjpzDomq1Uur5EO9iM6cQ6LUi+jMOSRKvYjOnEOi1IvozDkkqlYvrZIP9SI6cw6JUi+iM+eQKPUiOnMOiVIvojPnkKhavbRKPtSL6Mw5JEq9iM6cQ6LUi+jMOSRKvYjOnEOiavXSKvlQL6Iz55Ao9SI6cw6JUi+iM+eQKPUiOnMOiarVS6vkQ72IzpxDotSL6Mw5JEq9iM6cQ6LUi+jMOSSqVi+tkg/1IjpzDolSL6Iz55Ao9SI6cw6JUi+iM+eQqFq9tEo+1IvozDkkSr2IzpxDotSL6Mw5JEq9iM6cQ6Jq9dIq+VAvojPnkCj1IjpzDolSL6Iz55Ao9SI6cw6JqtXLb+v2od5qQ73VhnqrDfVWG7V6+VbJh3oRnTmHRKkX0ZlzSJR6EZ05h0SpF9GZc0hUrV5aJR/qRXTmHBKlXkRnziFR6kV05hwSpV5EZ84hUbV6aZV8qBfRmXNIlHoRnTmHRKkX0ZlzSJR6EZ05h0TV6qVV8qFeRGfOIVHqRXTmHBKlXkRnziFR6kV05hwSVauXVsmHehGdOYdEqRfRmXNIlHoRnTmHRKkX0ZlzSFStXlolH+pFdOYcEqVeRGfOIVHqRXTmHBKlXkRnziFRtXpplXyoF9GZc0iUehGdOYdEqRfRmXNIlHoRnTmHRNXqpVXyoV5EZ84hUepFdOYcEqVeRGfOIVHqRXTmHBJVq5dWyYd6EZ05h0SpF9GZc0iUehGdOYdEqRfRmXNIVK1eflu3D/VWG+qtNtRbbai32ijVe+vW/weDwgjI+eBTmgAAAABJRU5ErkJggg==;" vertex="1" parent="1"><mxGeometry x="180" y="430" width="2008.19" height="1777.07" as="geometry"/></mxCell></root></mxGraphModel></diagram></mxfile>